<svg width="1606" height="429" viewBox="0 0 1606 429" fill="none" xmlns="http://www.w3.org/2000/svg">
<g clip-path="url(#clip0_4397_836)">
<path d="M113.705 147.283C115.953 146.319 118.362 145.356 120.932 144.553C121.574 144.392 122.377 144.392 122.859 144.874L166.061 181.012L167.345 179.245C168.951 176.997 170.879 174.748 172.806 172.66L174.251 171.215L136.671 140.055C139.08 139.574 141.328 139.092 143.737 138.61L147.913 137.968L60.3857 64.7275L59.1009 66.0124C56.3707 68.9035 53.6405 71.9552 51.2315 74.8462C48.1801 78.5403 44.9681 82.3951 42.0773 86.4104L40.9531 87.856L112.581 147.765L113.705 147.283Z" fill="white"/>
<path d="M70.3426 176.515C72.1092 174.748 73.8758 173.142 75.803 171.375C76.2848 170.893 76.9272 170.893 77.5696 171.054L157.709 200.125L158.351 198.037C159.154 195.307 160.118 192.576 161.242 190.007L162.045 188.079L88.3298 161.417C90.257 160.132 92.1842 158.687 94.1114 157.562L97.484 155.475L18.4688 126.725L17.6658 128.491C14.2932 136.522 11.2418 145.035 8.67223 153.547L8.19043 155.153L69.379 177.318L70.3426 176.515Z" fill="white"/>
<path d="M430.89 205.265L430.729 203.337L315.418 203.498C315.74 203.016 315.9 202.374 316.221 201.892L317.506 199.161H304.498C303.855 199.161 303.695 198.198 304.337 198.037L320.397 192.255L320.718 191.452C321.2 190.006 321.842 188.4 322.324 186.955L421.414 150.817L420.772 149.05C419.809 146.159 419.005 143.589 418.202 141.18C417.078 138.289 415.954 135.237 414.83 132.346L414.187 130.579L328.427 161.899C328.588 161.256 328.588 160.775 328.588 160.132L329.069 156.92L293.898 169.769C293.416 169.93 292.934 169.287 293.416 168.805L329.712 138.289V137.325C329.712 135.879 329.551 134.273 329.391 132.828L387.367 84.0011L386.243 82.5556C382.549 77.8978 378.855 73.4006 374.84 68.9034L373.556 67.4579L325.376 107.933C325.215 107.29 325.055 106.808 324.894 106.166L324.091 103.275L273.984 145.356C273.502 145.677 272.859 145.195 273.181 144.713L312.849 75.9704L312.367 75.0067C311.725 73.8824 311.082 72.7581 310.44 71.6338L332.603 33.0865L330.997 32.1228C326.018 28.9105 321.039 26.0195 315.74 23.289L313.973 22.3253L296.628 52.3602C296.146 51.8783 295.825 51.3965 295.343 50.9146L293.577 48.8267L246.682 130.258C246.521 130.74 245.879 130.419 245.879 129.937L264.348 24.4133L263.223 23.7709C262.26 23.1284 261.296 22.6466 260.333 22.0041L263.545 4.01535L261.778 3.53351C255.996 2.2486 250.215 1.28491 244.433 0.481842L242.506 0.160614L240.418 12.2067C239.776 11.8854 239.133 11.7248 238.491 11.4036L236.243 10.6005L216.328 124.476C216.328 124.958 215.525 124.958 215.525 124.476L192.881 0L190.954 0.160614C182.121 1.28491 173.448 2.73044 164.936 4.81842L163.17 5.30026L185.172 130.097C185.333 130.579 184.53 130.74 184.369 130.419L120.932 20.5586L119.326 21.3617C111.457 25.377 103.587 29.7136 96.3601 34.6926L94.7541 35.6563L153.534 137.325L154.819 137.164C157.388 137.004 159.958 136.843 162.688 136.683C163.17 136.683 163.652 137.004 163.812 137.325L180.515 166.075L182.281 164.951C184.69 163.344 187.099 161.899 189.669 160.614L191.596 159.65L178.266 137.325C180.675 137.486 182.924 137.807 185.172 138.128L186.778 138.289L187.902 138.449C190.151 138.77 192.56 139.252 194.969 139.734C195.45 139.895 195.932 140.216 195.932 140.858L198.823 157.08L200.911 156.599C203.641 155.956 206.532 155.474 209.262 155.153L211.35 154.992L209.422 143.91C212.956 145.034 216.328 146.48 219.701 147.925C220.183 148.086 220.504 148.729 220.343 149.21L219.38 154.992L221.467 155.153C223.234 155.314 224.679 155.474 225.964 155.796C227.249 155.956 228.534 156.277 229.819 156.599L231.906 157.08L232.388 154.029C235.118 155.153 246.361 162.06 253.909 168.966C265.954 179.245 273.341 193.7 274.626 209.601C275.911 225.502 270.932 240.921 260.654 252.967C254.23 260.516 245.879 266.459 236.564 269.992L235.6 270.313C235.6 270.313 235.279 270.474 234.958 270.474L233.834 270.795C228.373 272.562 222.752 273.526 217.131 273.847H215.365H213.437C207.816 273.686 202.035 272.723 196.735 270.956L194.969 270.313L193.363 269.671C188.063 267.583 183.084 264.692 178.587 261.158L176.981 259.873L175.697 258.749C171.36 254.894 167.667 250.558 164.776 245.739L163.812 244.133L163.009 242.527C161.564 239.957 160.44 237.227 159.476 234.496C158.512 231.927 157.709 229.196 157.228 226.466L156.906 224.538L156.585 222.772C156.425 221.487 156.264 220.362 156.103 219.077C155.782 214.58 155.943 210.244 156.585 205.747L156.906 203.498H153.052L152.731 205.104C152.57 206.068 152.41 206.871 152.249 207.834H46.8953C48.0195 205.907 49.1437 203.819 50.2679 202.052L52.0345 199.161H0.481911L0.321311 200.928C-0.160489 209.762 -0.160489 218.756 0.321311 227.59L0.481911 229.357H37.5805L38.0623 228.072C38.7047 225.984 39.5077 223.735 40.4713 221.647C40.6319 221.005 41.2743 220.684 41.9167 220.684H150.964C150.964 221.487 150.964 222.29 150.804 223.093V225.181H154.337C154.497 225.181 154.497 225.181 154.337 225.341L150.804 226.626V228.072C150.804 229.196 150.804 230.32 150.804 231.445L30.8353 275.292C30.8353 273.044 30.8353 270.795 30.8353 268.707V265.816L8.19071 274.007L8.67251 275.774C11.2421 284.287 14.2935 292.639 17.8267 300.83L18.6297 302.597L32.9231 297.297L32.6019 295.69C32.2807 293.442 31.7989 290.872 31.6383 288.463L151.767 244.615C151.928 245.258 151.928 246.061 152.088 246.703L152.41 249.112L161.243 245.9C161.403 245.9 161.564 246.061 161.403 246.061L153.052 252.967L153.213 254.091C153.373 255.376 153.694 256.661 154.016 257.785L46.4135 348.211L47.6983 349.657C49.6255 352.066 51.5527 354.314 53.4799 356.402L54.7647 357.848L157.87 271.277C158.031 271.919 158.191 272.401 158.512 273.044L159.476 275.774L174.572 263.086C174.894 262.925 175.215 263.246 175.054 263.568L163.009 284.447L163.491 285.411C164.133 286.696 164.776 287.981 165.418 289.266L102.784 398.001L104.39 398.965C106.799 400.411 109.369 401.856 112.099 403.462L113.705 404.426L172.645 302.276C172.966 302.757 173.288 303.239 173.609 303.721L175.375 306.452L193.523 274.971C193.844 274.489 194.487 274.811 194.326 275.292L186.296 320.586L186.939 321.228C187.902 322.352 189.026 323.477 189.99 324.601L172.324 425.627L174.251 425.948C175.375 426.109 176.5 426.43 177.624 426.591C179.39 426.912 181.157 427.233 183.084 427.554L185.011 427.876L201.393 335.041C201.874 335.362 202.195 335.844 202.677 336.165L205.247 338.253L215.846 278.023C215.846 277.702 216.328 277.702 216.328 278.023L229.658 353.511L230.622 353.993C231.907 354.636 233.191 355.278 234.637 355.76L247.485 427.876L249.412 427.554C252.303 427.073 255.193 426.591 258.084 425.948L260.011 425.627L248.609 360.9C249.091 361.06 249.733 361.221 250.215 361.381L253.266 362.345L237.688 274.168C237.527 273.686 238.331 273.365 238.652 273.847L293.577 367.485H294.701C295.986 367.485 297.271 367.324 298.555 367.324L319.755 403.623L321.361 402.659C323.93 401.214 326.5 399.768 329.069 398.162L330.675 397.198L311.564 365.718C312.206 365.557 312.849 365.557 313.331 365.397L316.061 364.915L257.602 265.013C257.281 264.531 257.924 264.049 258.405 264.371L359.423 349.014L360.547 348.372C361.511 347.89 362.474 347.247 363.277 346.766L376.446 357.848L377.731 356.402C379.658 354.154 381.586 351.905 383.513 349.657L384.637 348.211L374.198 339.538C374.68 339.056 375.322 338.735 375.804 338.253L377.731 336.808L276.874 252.325C277.517 251.843 278.159 251.2 278.962 250.718C279.605 250.076 280.568 249.915 281.371 250.237L412.421 297.778L412.903 297.618C413.063 297.618 414.509 297.297 414.509 297.297L414.83 296.333C417.078 290.872 419.005 285.411 420.772 279.95L421.414 278.183L296.628 232.89C297.11 232.408 297.431 231.927 297.913 231.445L299.68 229.357L299.84 229.196C300.483 228.393 301.125 227.59 301.767 226.787C302.249 226.144 303.213 225.663 304.016 225.663L430.729 225.502V223.575C431.051 217.15 431.05 211.207 430.89 205.265Z" fill="white"/>
<path d="M1013.71 158.365L1079.87 166.557V295.369H1116.01V166.557L1181.86 158.365V129.937H1013.71V158.365Z" fill="white"/>
<path d="M1302.15 124.797C1253.64 124.797 1214.3 164.308 1214.3 212.653C1214.3 261.158 1253.8 300.509 1302.15 300.509C1350.65 300.509 1389.99 260.998 1389.99 212.653C1390.15 164.308 1350.65 124.797 1302.15 124.797ZM1302.15 265.977C1273.08 265.977 1249.47 242.045 1249.47 212.813C1249.47 183.421 1273.08 159.65 1302.15 159.65C1331.21 159.65 1354.82 183.582 1354.82 212.813C1354.98 242.045 1331.37 265.977 1302.15 265.977Z" fill="white"/>
<path d="M939.67 229.357C958.621 219.077 969.703 198.197 966.972 176.193C963.6 149.531 940.152 129.937 913.332 129.937H811.19V295.369H845.88V236.102H894.06C898.557 236.102 902.572 238.512 904.82 242.366L936.298 295.53H973.557L936.137 231.284L939.67 229.357ZM933.246 185.027C932.122 197.073 921.523 206.068 909.317 206.068H845.88V159.49H909.959C923.61 159.49 934.531 171.214 933.246 185.027Z" fill="white"/>
<path d="M671.147 129.937H638.546L568.363 295.369H604.498L617.507 263.728H709.049L722.218 295.369H758.514L694.755 145.516C690.74 136.2 681.426 129.937 671.147 129.937ZM630.355 232.408L660.227 159.49H665.847L696.04 232.408H630.355Z" fill="white"/>
<path d="M1606 129.937H1571.95V249.273H1570.67L1500.97 147.283C1493.42 136.361 1480.89 129.937 1467.56 129.937H1437.05V295.369H1471.26V165.914H1472.38L1561.51 295.369H1571.79H1605.84L1606 129.937Z" fill="white"/>
<path d="M820.505 368.609L798.182 427.555H812.314L816.651 415.509H840.419L844.756 427.555H859.049L836.565 368.609H820.505ZM820.987 402.981L828.374 382.101L835.762 402.981H820.987Z" fill="white"/>
<path d="M915.58 368.609H888.6V427.555H915.58C932.443 427.555 944.007 415.348 944.007 398.323C943.846 380.655 932.443 368.609 915.58 368.609ZM915.58 415.348H902.09V380.977H915.58C924.574 380.977 930.034 388.365 930.034 398.323C929.874 408.12 924.735 415.348 915.58 415.348Z" fill="white"/>
<path d="M996.363 412.778L983.193 368.77H967.615L988.011 427.554H1004.71L1025.11 368.77H1009.37L996.363 412.778Z" fill="white"/>
<path d="M1068.95 368.609H1055.46V427.555H1068.95V368.609Z" fill="white"/>
<path d="M1116.33 384.028C1116.33 381.779 1118.74 378.728 1123.56 378.567C1128.38 378.406 1131.59 380.334 1135.76 383.225L1144.92 374.552C1138.81 368.93 1131.59 366.842 1123.56 367.003C1110.07 367.485 1101.88 374.873 1102.2 384.991C1102.84 404.105 1133.19 400.892 1133.51 410.85C1133.68 414.063 1129.98 416.632 1125 416.954C1119.54 417.114 1114.24 414.544 1109.59 409.565L1099.95 418.399C1106.69 425.306 1115.21 429.321 1125 429C1137.85 428.518 1147.81 420.969 1147.49 409.405C1146.68 389.489 1116.49 392.54 1116.33 384.028Z" fill="white"/>
<path d="M1202.41 367.324C1183.78 367.324 1171.74 380.334 1171.74 398.162C1171.74 416.151 1184.26 429 1202.41 429C1221.04 429 1232.93 415.83 1232.93 398.162C1232.93 379.852 1220.56 367.324 1202.41 367.324ZM1202.41 416.633C1191.49 416.633 1186.03 408.602 1186.03 398.162C1186.03 387.883 1191.49 379.531 1202.41 379.531C1212.85 379.531 1218.79 387.24 1218.79 398.162C1218.79 408.602 1213.33 416.633 1202.41 416.633Z" fill="white"/>
<path d="M1311.14 388.846C1311.14 376.961 1305.2 368.77 1286.09 368.77H1259.43V427.715H1272.92V408.923H1287.05L1297.17 427.715H1312.1L1299.9 406.514C1307.61 403.462 1311.14 397.519 1311.14 388.846ZM1284.96 397.519H1272.92V380.494H1286.09C1292.83 380.494 1297.49 382.1 1297.49 389.007C1297.49 395.913 1292.51 397.519 1284.96 397.519Z" fill="white"/>
<path d="M1377.63 409.244C1376.99 389.489 1346.79 392.54 1346.47 384.028C1346.47 381.779 1348.88 378.728 1353.7 378.567C1358.52 378.406 1361.73 380.334 1365.9 383.225L1375.06 374.552C1368.96 368.93 1361.73 366.842 1353.7 367.003C1340.21 367.485 1332.02 374.873 1332.34 384.991C1332.98 404.105 1363.33 400.892 1363.66 410.85C1363.82 414.063 1360.12 416.632 1355.14 416.954C1349.68 417.114 1344.38 414.544 1339.73 409.565L1330.09 418.399C1336.84 425.306 1345.35 429.321 1355.14 429C1368.15 428.357 1378.11 420.808 1377.63 409.244Z" fill="white"/>
</g>
<defs>
<clipPath id="clip0_4397_836">
<rect width="1606" height="429" fill="white"/>
</clipPath>
</defs>
</svg>
