<svg width="2048" height="724" viewBox="0 0 2048 724" fill="none" xmlns="http://www.w3.org/2000/svg">
<g clip-path="url(#clip0_4397_944)">
<path d="M291 233C307.314 232.959 323.629 232.918 340.438 232.875C345.556 232.857 350.674 232.839 355.947 232.82C362.281 232.811 362.281 232.811 365.263 232.809C367.31 232.806 369.357 232.799 371.403 232.789C394.858 232.677 418.847 232.854 437.25 249.625C446.529 259.449 449.4 271.769 449.312 284.875C449.305 286.19 449.305 286.19 449.298 287.53C449.047 301.384 444.814 310.623 434.965 320.238C433.052 321.953 431.08 323.495 429 325C430.176 325.536 431.351 326.073 432.562 326.625C443.025 331.921 449.153 340.525 453.188 351.403C457.927 366.555 457.237 383.841 450.047 398.176C442.627 411.632 432.19 421.371 417.625 426.813C403.308 430.769 388.722 430.264 374.008 430.195C371.878 430.193 369.747 430.191 367.617 430.189C359.786 430.179 351.956 430.151 344.125 430.125C326.594 430.084 309.062 430.043 291 430C291 364.99 291 299.98 291 233ZM334 269C334 282.53 334 296.06 334 310C341.847 310.069 349.694 310.129 357.541 310.165C360.21 310.178 362.878 310.201 365.546 310.227C369.386 310.263 373.226 310.28 377.066 310.293C378.255 310.309 379.444 310.324 380.669 310.34C388.465 310.342 393.738 309.892 399.75 304.563C405.243 298.307 406.311 294.261 406.211 285.945C405.832 280.656 404.01 278.034 400.375 274.313C392.9 268.625 384.34 268.584 375.309 268.707C374.123 268.711 372.937 268.716 371.715 268.72C367.956 268.737 364.197 268.774 360.438 268.813C357.877 268.828 355.316 268.841 352.756 268.854C346.504 268.884 340.252 268.943 334 269ZM334 346C334 362.17 334 378.34 334 395C341.186 395.069 348.371 395.129 355.558 395.165C357.998 395.18 360.438 395.2 362.878 395.227C366.403 395.263 369.928 395.28 373.453 395.293C374.529 395.309 375.604 395.324 376.712 395.34C386.847 395.342 398.133 394.069 406 387C406.33 386.01 406.66 385.02 407 384C407.66 384 408.32 384 409 384C412.302 376.571 413.281 370.2 410.875 362.313C407.306 356.008 403.013 350.564 396 348C383.584 344.826 370.378 345.78 357.688 345.875C349.871 345.916 342.054 345.958 334 346Z" fill="white"/>
<path d="M1571 233C1685.96 233 1685.96 233 1717.37 262.312C1735.93 281.288 1744.67 305.332 1745.25 331.5C1744.94 347.132 1742.02 361.939 1735 376C1734.57 376.873 1734.14 377.745 1733.7 378.645C1730.18 385.437 1725.92 391.167 1721 397C1720.37 397.83 1719.73 398.66 1719.08 399.516C1709.78 410.633 1696.19 418.493 1683 424C1681.59 424.59 1681.59 424.59 1680.15 425.191C1647.89 437.788 1595.21 430 1571 430C1571 364.99 1571 299.98 1571 233ZM1602 263C1602 308.54 1602 354.08 1602 401C1645.99 402.826 1645.99 402.826 1685 389C1685 388.34 1685 387.68 1685 387C1686.09 386.638 1686.09 386.638 1687.2 386.27C1698.47 381.16 1705.89 367.533 1710.38 356.562C1710.93 355.047 1711.47 353.526 1712 352C1712.39 350.948 1712.78 349.896 1713.19 348.812C1718.24 331.328 1714.45 313.015 1706.04 297.316C1695.4 279.991 1679.43 269.237 1660 264C1640.86 261.265 1621.34 263 1602 263Z" fill="white"/>
<path d="M1094.25 247.312C1105.48 257.871 1108.62 268.795 1110 284C1100.1 284 1090.2 284 1080 284C1078.35 280.04 1076.7 276.08 1075 272C1067.09 261.169 1056.07 255.923 1042.88 253.841C1027.98 251.894 1012.66 253.287 1000.19 262.25C995.101 266.436 991.227 271.422 990 278C989.34 286.29 990.194 291.69 994.75 298.687C1007.44 311.731 1032.86 313.752 1049.76 317.504C1065.67 321.054 1081.25 324.896 1096 332C1096 332.66 1096 333.32 1096 334C1096.73 334.239 1097.46 334.479 1098.22 334.726C1106.45 338.497 1110.98 347.061 1114.12 355.14C1118.5 369.429 1116.95 385.634 1110.81 399.062C1102.85 413.883 1089.92 423.825 1074 429C1062.13 432.506 1050.8 433.236 1038.5 433.25C1037.78 433.251 1037.07 433.252 1036.33 433.254C1025.9 433.25 1016.12 432.726 1006 430C1004.55 429.692 1004.55 429.692 1003.07 429.379C988.968 426.163 975.741 417.485 967 406C966.34 405.154 965.68 404.308 965 403.437C959.983 394.814 958.909 387 958 377C967.57 377 977.14 377 987 377C988.65 380.96 990.3 384.92 992 389C997.63 397.686 1008.18 402.564 1018 405C1035.62 408.199 1058.48 409.433 1074 399C1079.19 394.896 1082.81 390.605 1084 384C1084.74 376.088 1085.1 368.512 1080 362C1077.72 359.881 1075.77 358.383 1073 357C1073 356.34 1073 355.68 1073 355C1072.38 354.818 1071.77 354.636 1071.13 354.449C1070.28 354.198 1069.44 353.946 1068.56 353.687C1067.74 353.444 1066.92 353.2 1066.07 352.949C1064.4 352.432 1062.73 351.905 1061.08 351.331C1055.51 349.4 1049.95 347.973 1044.2 346.73C1042.31 346.312 1040.43 345.893 1038.54 345.474C1035.63 344.834 1032.72 344.195 1029.81 343.56C1019.45 341.291 1009.17 338.894 998.996 335.851C998.185 335.609 997.375 335.366 996.539 335.117C983.204 331.014 971.317 324.837 964.5 312.125C958.126 297.811 957.9 279.779 963 265C969.25 250.157 980.68 239.726 995.438 233.687C1001.53 231.318 1007.51 229.755 1014 229C1014.83 228.89 1015.67 228.781 1016.52 228.668C1043.75 225.601 1072.81 228.986 1094.25 247.312Z" fill="white"/>
<path d="M1906 233C1951.54 233 1997.08 233 2044 233C2044 242.57 2044 252.14 2044 262C2008.69 262 1973.38 262 1937 262C1937 279.82 1937 297.64 1937 316C1952.84 316 1968.68 316 1985 316C1985 326.23 1985 336.46 1985 347C1969.16 347 1953.32 347 1937 347C1937 365.15 1937 383.3 1937 402C1972.31 402 2007.62 402 2044 402C2044 411.24 2044 420.48 2044 430C1998.46 430 1952.92 430 1906 430C1906 364.99 1906 299.98 1906 233Z" fill="white"/>
<path d="M1293 233C1314.45 233 1335.9 233 1358 233C1358 298.01 1358 363.02 1358 430C1347.77 430 1337.54 430 1327 430C1327 374.56 1327 319.12 1327 262C1315.78 262 1304.56 262 1293 262C1293 252.43 1293 242.86 1293 233Z" fill="white"/>
<path d="M616 323C681.34 323 746.68 323 814 323C814 331.58 814 340.16 814 349C748.66 349 683.32 349 616 349C616 340.42 616 331.84 616 323Z" fill="white"/>
<path d="M605 402C612.14 402.534 618.292 404.654 624.988 407.113C626.127 407.524 627.266 407.935 628.44 408.358C632.067 409.669 635.69 410.99 639.312 412.312C641.736 413.19 644.16 414.067 646.584 414.943C652.068 416.927 657.549 418.92 663.029 420.917C666.034 422.012 669.04 423.107 672.046 424.2C672.913 424.516 673.78 424.831 674.673 425.156C677.716 426.26 680.763 427.351 683.812 428.438C685.007 428.864 686.202 429.291 687.434 429.73C689.675 430.528 691.917 431.323 694.16 432.113C701.623 434.752 709.033 437.515 716.438 440.312C725.601 443.773 734.813 447.058 744.076 450.243C751.117 452.671 758.082 455.238 765 458C764.457 463.888 763.232 468.925 761.125 474.438C760.74 475.515 760.74 475.515 760.348 476.615C759.659 478.448 758.838 480.23 758 482C754.534 483.155 754.234 482.922 751.062 481.5C746.142 479.424 741.17 477.619 736.125 475.875C723.053 471.334 710.027 466.667 697 462C694.912 461.252 692.825 460.505 690.737 459.757C683.637 457.214 676.537 454.669 669.438 452.125C667.678 451.495 667.678 451.495 665.883 450.851C662.483 449.633 659.083 448.414 655.684 447.195C654.67 446.832 653.656 446.469 652.612 446.095C633.877 439.376 633.877 439.376 627.062 436.688C620.307 434.069 613.475 431.687 606.627 429.323C605.798 429.036 604.968 428.749 604.113 428.453C603.369 428.197 602.624 427.941 601.857 427.677C600 427 600 427 598 426C598.595 420.332 600.092 415.397 602.062 410.062C602.344 409.283 602.626 408.504 602.916 407.701C603.605 405.799 604.301 403.899 605 402Z" fill="white"/>
<path d="M569 471C574.325 471.361 577.065 474.309 580.812 477.75C582.131 478.931 583.451 480.109 584.773 481.285C585.459 481.895 586.144 482.505 586.851 483.133C591.136 486.855 595.605 490.359 600.072 493.86C601.75 495.197 603.38 496.593 605 498C605 498.66 605 499.32 605 500C605.708 500.226 606.415 500.451 607.145 500.684C610.641 502.296 612.898 504.417 615.688 507.062C619.069 510.42 619.069 510.42 623 513C623 513.66 623 514.32 623 515C623.804 515.268 624.609 515.536 625.438 515.812C626.283 516.204 627.129 516.596 628 517C628.33 517.99 628.66 518.98 629 520C630.917 521.167 630.917 521.167 633 522C633.66 522.33 634.32 522.66 635 523C635 523.66 635 524.32 635 525C635.527 525.218 636.054 525.436 636.598 525.66C639.902 527.503 642.609 529.952 645.438 532.438C646.692 533.526 647.948 534.615 649.203 535.703C650.153 536.53 650.153 536.53 651.123 537.373C653.96 539.832 656.821 542.263 659.688 544.688C660.225 545.143 660.763 545.598 661.316 546.066C664.663 548.891 668.039 551.675 671.438 554.438C676.381 558.461 681.227 562.59 686.054 566.752C689.673 569.871 693.322 572.951 697 576C696.435 580.068 694.295 582.361 691.688 585.438C690.518 586.828 690.518 586.828 689.324 588.246C688.557 589.155 687.79 590.064 687 591C685.661 592.662 684.326 594.328 683 596C679.625 595.453 677.918 594.945 675 593C675 592.34 675 591.68 675 591C674.473 590.782 673.946 590.564 673.402 590.34C670.098 588.497 667.391 586.048 664.562 583.562C663.308 582.474 662.052 581.385 660.797 580.297C659.847 579.47 659.847 579.47 658.877 578.627C656.04 576.168 653.179 573.737 650.312 571.312C649.775 570.857 649.237 570.402 648.684 569.934C645.337 567.109 641.961 564.325 638.562 561.562C633.656 557.573 628.863 553.461 624.082 549.323C620.003 545.81 615.825 542.483 611.477 539.305C610.989 538.874 610.502 538.444 610 538C610 537.34 610 536.68 610 536C609.455 535.763 608.909 535.526 608.348 535.281C605.397 533.671 603.013 531.658 600.438 529.5C597.671 527.188 595.001 525.001 592 523C592 522.34 592 521.68 592 521C591.446 520.754 590.891 520.508 590.32 520.254C582.585 516.074 576.01 509.181 569.566 503.266C565.908 500.036 562.041 497.086 558.152 494.141C556 492 556 492 554.934 489.543C555.03 485.87 556.585 484.648 559.125 482.062C559.951 481.2 560.778 480.338 561.629 479.449C562.411 478.641 563.194 477.833 564 477C565.707 475.029 567.352 473.02 569 471Z" fill="white"/>
<path d="M1511 584C1515.95 584 1520.9 584 1526 584C1529.54 592.28 1532.68 600.595 1535.56 609.125C1537.91 616.051 1540.31 622.911 1543.07 629.682C1544.8 634.009 1546.28 638.424 1547.8 642.83C1549.36 647.312 1551.08 651.66 1553 656C1553.35 654.928 1553.35 654.928 1553.71 653.834C1557.91 641.142 1562.46 628.572 1567 616C1567.23 615.366 1567.46 614.732 1567.69 614.078C1569.26 609.736 1570.85 605.398 1572.44 601.062C1572.85 599.926 1573.26 598.79 1573.69 597.619C1574.08 596.56 1574.47 595.501 1574.87 594.41C1575.38 593.02 1575.38 593.02 1575.9 591.602C1577 589 1577 589 1580 584C1584.62 584 1589.24 584 1594 584C1594 614.69 1594 645.38 1594 677C1589.71 677 1585.42 677 1581 677C1580.67 657.53 1580.34 638.06 1580 618C1571.89 639.873 1571.89 639.873 1563.97 661.816C1562.14 666.959 1560.22 672.012 1558 677C1556.38 677.054 1554.75 677.093 1553.12 677.125C1552.22 677.148 1551.32 677.171 1550.38 677.195C1548 677 1548 677 1546 675C1545.38 673.354 1544.83 671.682 1544.31 670C1542.56 664.531 1540.55 659.21 1538.44 653.875C1536.26 648.377 1534.27 642.925 1532.68 637.227C1531.68 633.938 1530.38 630.789 1529.06 627.617C1527.64 624.106 1526.33 620.548 1525 617C1524.67 636.8 1524.34 656.6 1524 677C1519.71 677 1515.42 677 1511 677C1511 646.31 1511 615.62 1511 584Z" fill="white"/>
<path d="M511.191 530.205C513 531 513 531 514.25 533.563C514.498 534.367 514.745 535.172 515 536C515.66 536 516.32 536 517 536C518.473 538.101 519.813 540.178 521.125 542.375C521.684 543.28 521.684 543.28 522.254 544.204C525 548.73 525 548.73 525 551C525.66 551 526.32 551 527 551C528.589 553.326 530.057 555.649 531.5 558.063C532.405 559.543 533.311 561.022 534.219 562.5C534.682 563.255 535.145 564.009 535.621 564.786C537.679 568.091 539.829 571.331 542 574.563C542.618 575.483 542.618 575.483 543.248 576.423C544.082 577.663 544.916 578.902 545.75 580.142C547.844 583.255 549.921 586.378 552 589.5C552.834 590.75 553.667 592 554.5 593.25C599 660 599 660 599 664C596.787 665.729 594.711 667.142 592.313 668.563C591.374 669.142 591.374 669.142 590.416 669.733C589.187 670.488 587.952 671.234 586.71 671.97C585.206 672.876 583.745 673.853 582.293 674.84C580 676 580 676 577.914 676.024C575.034 674.484 574.054 672.423 572.375 669.625C571.587 668.344 570.795 667.064 570 665.786C569.54 665.043 569.08 664.301 568.606 663.536C565.672 658.902 562.599 654.36 559.544 649.806C552.668 639.551 545.872 629.248 539.145 618.895C535.59 613.427 532.005 607.981 528.375 602.563C519 588.542 519 588.542 519 586C518.34 586 517.68 586 517 586C515.527 583.9 514.187 581.823 512.875 579.625C512.503 579.022 512.13 578.419 511.746 577.797C509 573.271 509 573.271 509 571C508.34 571 507.68 571 507 571C505.527 568.9 504.187 566.823 502.875 564.625C502.503 564.022 502.13 563.419 501.746 562.797C499 558.271 499 558.271 499 556C498.34 556 497.68 556 497 556C495.239 553.735 495.239 553.735 493.313 550.75C492.67 549.776 492.026 548.801 491.364 547.797C490 545 490 545 490.172 543.003C491.257 540.38 492.492 539.651 494.895 538.168C495.686 537.68 496.477 537.193 497.291 536.69C498.123 536.194 498.956 535.699 499.813 535.188C501.044 534.415 501.044 534.415 502.299 533.627C503.094 533.146 503.889 532.664 504.707 532.168C505.434 531.728 506.161 531.287 506.91 530.833C509 530 509 530 511.191 530.205Z" fill="white"/>
<path d="M435 569C439.26 582.378 443.062 595.835 446.508 609.444C448.68 618.012 450.967 626.529 453.5 635C456.7 645.704 459.511 656.491 462.248 667.32C463.802 673.449 465.408 679.538 467.263 685.583C468.645 690.117 469.917 694.683 471.188 699.25C471.46 700.204 471.733 701.158 472.014 702.141C473.323 706.868 474.374 711.042 474 716C470.564 717.006 467.126 718.004 463.688 719C462.711 719.286 461.735 719.572 460.729 719.867C459.791 720.138 458.853 720.409 457.887 720.688C456.591 721.065 456.591 721.065 455.268 721.449C453 722 453 722 450 722C446.818 712.423 444.116 702.778 441.625 693C439.471 684.559 437.231 676.163 434.75 667.812C431.537 656.973 428.498 646.088 425.5 635.188C425.263 634.324 425.025 633.461 424.781 632.572C421.481 620.556 418.258 608.524 415.193 596.446C413.791 590.935 412.278 585.491 410.551 580.072C410 578 410 578 410 575C413.414 573.991 416.832 572.995 420.25 572C421.702 571.571 421.702 571.571 423.184 571.133C424.585 570.727 424.585 570.727 426.016 570.312C426.874 570.061 427.733 569.81 428.618 569.551C431 569 431 569 435 569Z" fill="white"/>
<path d="M325 579C331.304 578.883 337.382 579.124 343.625 580C344.343 580.096 345.061 580.191 345.801 580.29C347.535 580.521 349.267 580.76 351 581C350.087 592.171 349.11 603.336 348.125 614.5C348.037 615.498 347.949 616.496 347.858 617.525C346.7 630.608 345.454 643.672 344.002 656.727C343.252 663.5 342.615 670.271 342.062 677.063C340.781 692.749 338.841 708.373 337 724C334.541 724.055 332.084 724.095 329.625 724.125C328.946 724.142 328.266 724.159 327.566 724.176C321.853 724.23 316.558 723.278 311 722C311.122 720.74 311.244 719.481 311.369 718.182C312.27 708.821 313.148 699.459 313.965 690.09C314.044 689.185 314.123 688.28 314.204 687.347C314.366 685.493 314.527 683.638 314.689 681.784C315.985 666.936 317.348 652.105 318.996 637.292C319.767 630.326 320.424 623.36 321 616.375C322.03 603.883 323.5 591.444 325 579Z" fill="white"/>
<path d="M250 556C255.564 557.389 260.355 559.493 265.438 562.125C266.169 562.498 266.901 562.87 267.654 563.254C269.439 564.164 271.22 565.081 273 566C272.421 569.404 271.575 572.241 270.066 575.344C269.67 576.167 269.274 576.99 268.865 577.837C268.435 578.716 268.006 579.595 267.562 580.5C266.646 582.398 265.729 584.297 264.812 586.195C264.343 587.162 263.874 588.13 263.391 589.126C261.259 593.532 259.162 597.954 257.062 602.375C253.59 609.67 250.11 616.961 246.625 624.25C245.94 625.682 245.94 625.682 245.242 627.143C242.867 632.108 240.486 637.07 238.094 642.027C237.104 644.081 236.115 646.134 235.125 648.188C234.635 649.201 234.146 650.215 233.641 651.259C230.847 657.067 228.12 662.9 225.457 668.77C224.864 670.071 224.271 671.372 223.677 672.673C222.532 675.186 221.4 677.705 220.276 680.227C219.761 681.359 219.246 682.49 218.715 683.656C218.036 685.169 218.036 685.169 217.344 686.713C216 689 216 689 213 690C210.732 689.196 210.732 689.196 208.113 687.91C207.175 687.456 206.238 687.001 205.271 686.533C204.295 686.048 203.319 685.563 202.312 685.062C201.324 684.581 200.336 684.1 199.318 683.604C196.874 682.411 194.435 681.21 192 680C192.577 674.787 194.288 670.768 196.562 666.125C196.922 665.376 197.281 664.627 197.651 663.855C200.27 658.422 202.988 653.039 205.715 647.659C208.99 641.138 212.022 634.508 215.062 627.875C218.641 620.07 222.271 612.323 226.16 604.668C232.691 591.744 238.888 578.642 244.465 565.277C246.054 561.885 247.848 559.054 250 556Z" fill="white"/>
<path d="M1717.31 583.625C1718.46 583.576 1719.62 583.527 1720.8 583.477C1724 584 1724 584 1725.97 586.157C1728.03 589.037 1729.86 591.954 1731.64 595.008C1731.98 595.574 1732.31 596.14 1732.65 596.723C1733.71 598.522 1734.76 600.323 1735.81 602.125C1737.19 604.483 1738.57 606.84 1739.96 609.195C1740.47 610.061 1740.47 610.061 1740.99 610.945C1743.7 615.548 1746.55 620.06 1749.44 624.557C1751.57 627.893 1753.61 631.282 1755.63 634.688C1758.68 639.836 1761.82 644.919 1765 650C1765.33 628.22 1765.66 606.44 1766 584C1770.29 584 1774.58 584 1779 584C1779 614.69 1779 645.38 1779 677C1774.71 677 1770.42 677 1766 677C1763.16 673.836 1761.81 671.707 1760 668C1758.85 666.115 1757.68 664.241 1756.5 662.375C1755 659.918 1753.5 657.46 1752 655C1750.9 653.193 1749.79 651.385 1748.69 649.578C1742.71 639.764 1736.74 629.941 1730.87 620.059C1728.99 616.988 1727 613.993 1725 611C1724.67 632.78 1724.34 654.56 1724 677C1719.38 677 1714.76 677 1710 677C1709.98 665.022 1709.96 653.044 1709.95 641.066C1709.94 635.505 1709.94 629.943 1709.92 624.382C1709.91 619.02 1709.91 613.658 1709.91 608.296C1709.9 606.245 1709.9 604.194 1709.89 602.144C1709.89 599.282 1709.89 596.421 1709.89 593.559C1709.88 592.702 1709.88 591.845 1709.88 590.963C1709.89 583.886 1710.32 583.827 1717.31 583.625Z" fill="white"/>
<path d="M1025.81 582.75C1029.5 582.77 1031.92 582.944 1034.63 585.595C1038.14 590.221 1040.89 595.321 1043.62 600.436C1045.58 604.084 1047.7 607.629 1049.81 611.188C1050.2 611.853 1050.59 612.518 1050.99 613.204C1056.56 622.782 1062.53 632.124 1068.44 641.499C1069.99 643.983 1071.5 646.489 1073 649C1073.01 648.2 1073.02 647.401 1073.03 646.577C1073.13 639.057 1073.23 631.538 1073.34 624.018C1073.4 620.152 1073.45 616.286 1073.5 612.419C1073.55 608.691 1073.6 604.963 1073.65 601.235C1073.67 599.809 1073.69 598.384 1073.71 596.958C1073.73 594.968 1073.76 592.978 1073.8 590.989C1073.81 589.854 1073.83 588.719 1073.84 587.55C1074 585 1074 585 1075 584C1079.29 584 1083.58 584 1088 584C1088 614.69 1088 645.38 1088 677C1083.38 677 1078.76 677 1074 677C1070.84 673.632 1069.44 671.692 1067.56 667.688C1066.58 665.833 1065.59 663.979 1064.61 662.125C1063.93 660.785 1063.93 660.785 1063.24 659.418C1061.77 656.552 1060.1 653.871 1058.31 651.188C1055.75 647.213 1053.3 643.186 1050.88 639.125C1045.01 629.357 1039 619.685 1033 610C1032.67 632.11 1032.34 654.22 1032 677C1027.71 677 1023.42 677 1019 677C1018.98 665.022 1018.96 653.044 1018.95 641.066C1018.94 635.505 1018.94 629.943 1018.92 624.382C1018.91 619.02 1018.91 613.658 1018.91 608.296C1018.9 606.245 1018.9 604.194 1018.89 602.144C1018.89 599.282 1018.89 596.421 1018.89 593.559C1018.88 592.702 1018.88 591.845 1018.88 590.963C1018.89 584.351 1019.2 583.723 1025.81 582.75Z" fill="white"/>
<path d="M182 508C186.819 510.307 190.006 513.676 193.75 517.438C194.447 518.119 195.145 518.8 195.863 519.502C196.522 520.16 197.181 520.818 197.859 521.496C198.462 522.096 199.065 522.696 199.687 523.314C201 525 201 525 201 528C199.426 529.648 199.426 529.648 197.312 531.375C194.041 534.117 190.981 536.938 188 540C164.667 563.333 141.333 586.667 118 610C117.154 610.908 116.309 611.815 115.438 612.75C113 615 113 615 111 616.125C107.595 615.912 106.187 613.454 104 611C103.175 610.175 102.35 609.35 101.5 608.5C100.262 607.262 100.262 607.262 99 606C98.0925 605.154 97.185 604.309 96.25 603.438C93.2365 600.173 93.2365 600.173 93 597C94.2669 595.118 94.2669 595.118 96.2585 593.14C97.3798 592.009 97.3798 592.009 98.5236 590.854C99.3594 590.036 100.195 589.219 101.056 588.376C101.924 587.507 102.792 586.639 103.686 585.744C106.072 583.361 108.469 580.99 110.87 578.623C113.376 576.148 115.868 573.659 118.362 571.172C123.087 566.462 127.825 561.765 132.567 557.073C137.965 551.731 143.349 546.375 148.731 541.017C159.805 529.996 170.897 518.992 182 508Z" fill="white"/>
<path d="M1952.94 590.25C1962.1 598.223 1967.2 607.97 1968.27 620.115C1969.19 637.926 1968.6 653.574 1957 668C1954.53 670.461 1952.02 672.273 1949 674C1948.32 674.411 1947.64 674.822 1946.94 675.246C1937.47 679.996 1923.92 679.648 1913.94 676.562C1902.51 671.44 1896.37 662.29 1892 651C1887.22 636.109 1888.78 616.472 1895.37 602.5C1900.65 592.978 1907.87 587.736 1918 584C1929.99 581.146 1942.9 582.874 1952.94 590.25ZM1910.28 605.039C1904.98 613.157 1903.82 620.879 1903.81 630.375C1903.8 631.2 1903.79 632.025 1903.78 632.875C1903.76 637.945 1904.35 642.149 1906 647C1906.39 648.299 1906.39 648.299 1906.79 649.625C1909.38 656.983 1913.22 661.176 1919.91 665.129C1925.5 667.69 1931.1 667.378 1937 666C1943.77 663.39 1947.99 658.488 1951 652C1956.14 636.664 1956.74 622.09 1949.68 607.219C1945.87 600.978 1940.9 597.301 1934 595C1924.01 593.737 1916.49 597.143 1910.28 605.039Z" fill="white"/>
<path d="M136 437C137.734 440.404 139.433 443.825 141.125 447.25C141.866 448.702 141.866 448.702 142.621 450.184C143.079 451.118 143.536 452.053 144.008 453.016C144.437 453.874 144.867 454.733 145.309 455.618C146 458 146 458 145.389 460.168C143.704 462.39 142.309 463.15 139.773 464.297C138.905 464.699 138.036 465.101 137.141 465.516C136.228 465.923 135.315 466.33 134.375 466.75C132.611 467.555 130.848 468.363 129.086 469.172C128.119 469.616 127.151 470.06 126.155 470.518C120.553 473.15 115.038 475.954 109.511 478.738C104.53 481.242 99.5415 483.731 94.5547 486.223C92.3008 487.35 90.0468 488.477 87.793 489.604C83.1732 491.913 78.5534 494.223 73.9336 496.533C72.8085 497.096 71.6834 497.659 70.5242 498.238C68.3187 499.341 66.1126 500.442 63.9059 501.543C59.3939 503.794 54.8856 506.049 50.4072 508.367C49.4265 508.871 49.4265 508.871 48.4261 509.385C46.7954 510.225 45.1692 511.074 43.5435 511.924C41 513 41 513 37 513C35.7051 510.606 34.414 508.21 33.125 505.812C32.7602 505.139 32.3954 504.465 32.0195 503.771C27 494.417 27 494.417 27 490C41.7153 482.132 56.5285 474.552 71.6519 467.496C81.966 462.662 92.1068 457.465 102.271 452.325C105.605 450.64 108.941 448.959 112.278 447.279C113.992 446.414 115.705 445.547 117.417 444.678C119.928 443.405 122.442 442.139 124.957 440.875C125.723 440.484 126.488 440.094 127.277 439.692C132.658 437 132.658 437 136 437Z" fill="white"/>
<path d="M112 351C112.133 352.218 112.266 353.436 112.402 354.691C112.581 356.315 112.759 357.939 112.937 359.562C113.024 360.362 113.111 361.162 113.201 361.986C113.718 366.673 114.305 371.337 115 376C109.014 378.46 102.813 378.808 96.4375 379.438C88.3165 380.253 80.2472 381.221 72.1718 382.398C61.1419 384.006 50.0927 385.428 39.03 386.79C35.7764 387.192 32.524 387.603 29.2714 388.014C27.1667 388.274 25.0619 388.534 22.957 388.793C21.5255 388.976 21.5255 388.976 20.0651 389.162C14.0129 389.895 8.09461 390.143 1.99996 390C1.65161 388.274 1.32246 386.544 0.999961 384.812C0.814336 383.85 0.628711 382.887 0.43746 381.895C0.0328205 378.293 -0.0432053 374.877 -0.0273833 371.257C-0.0234355 370.085 -0.0194878 368.914 -0.0154204 367.707C-0.0103447 366.814 -0.00526901 365.92 -3.95179e-05 365C15.2542 362.832 30.5152 360.77 45.8125 358.93C46.5157 358.845 47.219 358.76 47.9436 358.673C52.962 358.07 57.9809 357.472 63 356.875C68.0842 356.269 73.1682 355.662 78.2518 355.051C80.237 354.814 82.2226 354.579 84.2082 354.344C91.2606 353.498 98.2732 352.529 105.282 351.374C108 351 108 351 112 351Z" fill="white"/>
<path d="M1632.15 583.871C1633.24 583.868 1634.34 583.865 1635.47 583.861C1637.27 583.864 1637.27 583.864 1639.09 583.867C1640.31 583.867 1641.53 583.866 1642.78 583.865C1645.36 583.864 1647.94 583.866 1650.52 583.87C1654.48 583.875 1658.45 583.87 1662.41 583.864C1664.91 583.864 1667.41 583.865 1669.91 583.867C1671.1 583.865 1672.3 583.863 1673.53 583.861C1674.62 583.864 1675.72 583.868 1676.85 583.871C1678.31 583.872 1678.31 583.872 1679.8 583.873C1682 584 1682 584 1683 585C1683 588.63 1683 592.26 1683 596C1668.81 596 1654.62 596 1640 596C1640 604.91 1640 613.82 1640 623C1652.54 623 1665.08 623 1678 623C1678 626.63 1678 630.26 1678 634C1665.46 634 1652.92 634 1640 634C1640 644.23 1640 654.46 1640 665C1654.19 665 1668.38 665 1683 665C1683 668.96 1683 672.92 1683 677C1664.19 677 1645.38 677 1626 677C1625.96 654.08 1625.96 654.08 1625.95 644.346C1625.95 637.691 1625.94 631.037 1625.92 624.382C1625.91 619.02 1625.91 613.658 1625.91 608.296C1625.9 606.245 1625.9 604.195 1625.89 602.144C1625.89 599.282 1625.89 596.421 1625.89 593.559C1625.88 592.702 1625.88 591.846 1625.88 590.963C1625.89 583.876 1625.89 583.876 1632.15 583.871Z" fill="white"/>
<path d="M16 236C21.5695 236.615 26.9153 237.56 32.3633 238.855C33.145 239.038 33.9267 239.22 34.7321 239.408C37.2598 239.997 39.7861 240.592 42.3125 241.188C45.8251 242.009 49.3383 242.827 52.8516 243.645C53.7208 243.847 54.5901 244.05 55.4857 244.259C64.0834 246.261 72.6988 248.177 81.3235 250.059C88.2499 251.579 95.1274 253.254 102 255C103.557 255.39 105.114 255.779 106.672 256.168C108.031 256.508 109.391 256.848 110.75 257.188C111.813 257.453 111.813 257.453 112.898 257.725C114.599 258.15 116.299 258.575 118 259C118.24 264.636 117.383 269.486 116 274.938C115.809 275.717 115.618 276.496 115.422 277.299C114.955 279.201 114.479 281.101 114 283C110.1 284.019 107.372 283.895 103.457 283C102.367 282.755 101.278 282.511 100.155 282.259C98.9809 281.986 97.8071 281.712 96.5977 281.43C95.3695 281.152 94.1414 280.873 92.8761 280.587C89.5998 279.843 86.3257 279.091 83.0524 278.334C79.8055 277.585 76.5559 276.848 73.3066 276.109C68.2514 274.959 63.1976 273.803 58.145 272.641C50.736 270.937 43.3226 269.253 35.9075 267.576C17.9247 263.501 17.9247 263.501 11 261C11.6142 252.401 13.8091 244.305 16 236Z" fill="white"/>
<path d="M1213.21 583.879C1214.18 583.881 1215.16 583.883 1216.16 583.886C1217.26 583.886 1218.36 583.886 1219.5 583.886C1221.3 583.894 1221.3 583.894 1223.13 583.902C1224.35 583.903 1225.57 583.904 1226.82 583.906C1230.74 583.911 1234.65 583.924 1238.56 583.937C1241.21 583.942 1243.85 583.946 1246.5 583.95C1253 583.961 1259.5 583.979 1266 583.999C1266 587.959 1266 591.919 1266 595.999C1252.14 595.999 1238.28 595.999 1224 595.999C1224 604.909 1224 613.819 1224 622.999C1236.54 622.999 1249.08 622.999 1262 622.999C1262 626.629 1262 630.259 1262 633.999C1249.46 633.999 1236.92 633.999 1224 633.999C1224 644.229 1224 654.459 1224 664.999C1237.86 664.999 1251.72 664.999 1266 664.999C1266 668.959 1266 672.919 1266 676.999C1247.52 676.999 1229.04 676.999 1210 676.999C1209.96 654.079 1209.96 654.079 1209.95 644.345C1209.95 637.69 1209.94 631.036 1209.92 624.381C1209.91 619.019 1209.91 613.657 1209.91 608.295C1209.9 606.244 1209.9 604.194 1209.89 602.143C1209.89 599.281 1209.89 596.42 1209.89 593.558C1209.88 592.701 1209.88 591.845 1209.88 590.962C1209.89 584.06 1209.89 584.06 1213.21 583.879Z" fill="white"/>
<path d="M74 127C78.0198 127.453 81.0928 129.816 84.375 132C85.6353 132.824 86.8958 133.649 88.1562 134.473C88.7969 134.894 89.4376 135.316 90.0977 135.75C93.0117 137.664 95.9426 139.552 98.875 141.438C99.4364 141.8 99.9978 142.163 100.576 142.537C103.839 144.64 107.125 146.697 110.438 148.719C111.176 149.172 111.915 149.625 112.676 150.092C114.121 150.976 115.57 151.855 117.023 152.726C118.716 153.764 120.363 154.876 122 156C122 156.66 122 157.32 122 158C122.723 158.267 123.446 158.534 124.191 158.809C127.007 160.003 129.377 161.394 131.938 163.062C132.886 163.677 133.835 164.292 134.812 164.926C135.864 165.61 136.916 166.295 138 167C139.228 167.786 140.458 168.571 141.688 169.355C142.938 170.154 144.188 170.952 145.438 171.75C146.324 172.315 146.324 172.315 147.228 172.891C150.241 174.823 153.173 176.805 156 179C155.01 183.9 152.352 187.592 149.688 191.75C148.958 192.939 148.958 192.939 148.213 194.152C147.734 194.901 147.255 195.65 146.762 196.422C146.328 197.109 145.895 197.795 145.448 198.503C144.97 198.997 144.492 199.491 144 200C139.792 200 138.867 199.605 135.461 197.461C134.581 196.911 133.702 196.362 132.796 195.796C131.873 195.203 130.951 194.611 130 194C128.628 193.123 128.628 193.123 127.228 192.228C124.351 190.373 121.487 188.502 118.625 186.625C117.608 185.96 116.592 185.295 115.544 184.61C109.653 180.753 103.782 176.867 97.9336 172.945C94.2054 170.473 90.4466 168.05 86.6875 165.625C84.5168 164.22 82.3467 162.813 80.1768 161.407C78.7225 160.467 77.2661 159.53 75.8076 158.597C73.7203 157.261 71.6408 155.913 69.5625 154.562C68.9298 154.162 68.2971 153.761 67.6453 153.348C64.3512 151.191 62.5765 149.582 61 146C62.9773 143.02 64.9572 140.041 66.9375 137.062C67.5015 136.212 68.0654 135.362 68.6465 134.486C69.1847 133.677 69.7229 132.869 70.2773 132.035C70.7748 131.286 71.2723 130.537 71.7849 129.766C73 128 73 128 74 127Z" fill="white"/>
<path d="M1112 584C1116.62 584 1121.24 584 1126 584C1132.8 604.292 1139.5 624.613 1146.03 644.997C1147 648.004 1148 651.003 1149 654C1152.95 642.248 1156.89 630.494 1160.68 618.691C1160.9 618.006 1161.12 617.32 1161.35 616.614C1162.42 613.285 1163.49 609.954 1164.55 606.623C1171.22 585.777 1171.22 585.777 1173 584C1175.19 583.927 1177.38 583.916 1179.56 583.937C1181.36 583.951 1181.36 583.951 1183.19 583.965C1184.12 583.976 1185.05 583.988 1186 584C1187.14 587.425 1186.86 588.147 1185.73 591.453C1185.43 592.366 1185.12 593.279 1184.8 594.22C1184.46 595.22 1184.11 596.22 1183.75 597.25C1183.39 598.304 1183.03 599.358 1182.66 600.444C1179.49 609.731 1176.17 618.969 1172.86 628.208C1168.97 639.068 1165.35 649.993 1161.9 661.005C1160.18 666.48 1158.4 671.783 1156 677C1151.38 677 1146.76 677 1142 677C1134.1 654.744 1126.36 632.443 1118.99 610.005C1117.87 606.596 1116.73 603.196 1115.55 599.807C1115.31 599.129 1115.08 598.451 1114.84 597.753C1114.2 595.895 1113.55 594.04 1112.9 592.185C1112 589 1112 589 1112 584Z" fill="white"/>
<path d="M2042.14 590.452C2044.51 592.424 2045.99 594.061 2047 596.999C2046.07 600.854 2043.24 602.915 2040 604.999C2037.75 604.937 2037.75 604.937 2036 603.999C2035.51 602.514 2035.51 602.514 2035 600.999C2033.35 599.88 2033.35 599.88 2031 598.999C2030.41 598.739 2029.81 598.478 2029.2 598.21C2023.43 595.817 2018.75 594.889 2012.75 597.312C2008.72 599.787 2007.38 600.655 2006.06 605.312C2006 608.921 2006.31 610.492 2008.38 613.391C2012.08 617.062 2017.08 619.119 2021.69 621.437C2043.95 632.754 2043.95 632.754 2048 642.999C2048.64 646.204 2048.7 649.239 2048.62 652.499C2048.64 653.302 2048.66 654.105 2048.68 654.933C2048.63 661.103 2046.92 665.241 2043 669.999C2040.75 672.022 2040.75 672.022 2038.56 673.374C2037.48 674.066 2037.48 674.066 2036.38 674.772C2027.13 679.542 2015.28 679.605 2005.3 677.054C1998.29 674.256 1992.07 670.558 1988 663.999C1988 663.339 1988 662.679 1988 661.999C1989.75 660.272 1989.75 660.272 1992 658.374C1992.74 657.742 1993.49 657.111 1994.25 656.46C1994.83 655.978 1995.4 655.496 1996 654.999C1998.73 656.269 2000.48 657.417 2002.81 659.437C2008.93 664.568 2014.31 665.561 2022.19 665.355C2027 664.746 2029.51 662.44 2032.88 659.187C2034.55 655.921 2034.44 653.622 2034 649.999C2029.85 641.331 2021.37 637.054 2013.06 633.124C2004.57 629.087 1996.11 623.831 1992 614.999C1991.68 612.27 1991.52 609.844 1991.56 607.124C1991.57 606.41 1991.58 605.695 1991.59 604.959C1991.82 597.53 1993.52 594.421 1998.81 589.249C2012.25 579.762 2029.09 581.1 2042.14 590.452Z" fill="white"/>
<path d="M1339.94 588.937C1342.91 590.962 1345.12 592.9 1347 595.999C1347 597.319 1347 598.639 1347 599.999C1345.68 600.329 1344.36 600.659 1343 600.999C1343 601.659 1343 602.319 1343 602.999C1340 604.999 1340 604.999 1337 604.999C1336.28 604.257 1335.56 603.514 1334.81 602.749C1330.52 598.554 1325.98 595.819 1319.88 595.562C1315.89 596.011 1313.45 597.029 1310 598.999C1309.34 598.999 1308.68 598.999 1308 598.999C1306.73 602.796 1306.03 607.1 1307 610.999C1310.61 615.381 1314.83 617.862 1319.75 620.499C1320.81 621.084 1320.81 621.084 1321.9 621.682C1323.93 622.796 1325.96 623.9 1328 624.999C1344.24 633.771 1344.24 633.771 1347.76 642.984C1349.99 651.105 1349.06 658.231 1346 665.999C1342.12 672.467 1335.14 676.11 1328 677.999C1315.82 679.279 1305.39 678.38 1295.06 671.499C1290.31 667.62 1290.31 667.62 1289 664.999C1289 661.333 1290 660.005 1292.31 657.124C1295 654.999 1295 654.999 1296.94 654.874C1299.34 656.183 1301.25 657.885 1303.32 659.655C1309.23 664.387 1314.59 665.663 1322.15 665.386C1326.42 664.806 1328.63 663.707 1332 660.999C1334.56 657.259 1334.06 653.619 1333.68 649.28C1332.48 645.264 1330 642.645 1326.52 640.397C1325.6 639.942 1324.69 639.487 1323.75 639.019C1322.73 638.499 1321.72 637.98 1320.67 637.445C1319.6 636.906 1318.54 636.367 1317.44 635.812C1296.48 624.839 1296.48 624.839 1292.76 616.081C1290.76 607.964 1291.52 600.53 1295 592.999C1295.66 592.999 1296.32 592.999 1297 592.999C1297.33 592.009 1297.66 591.019 1298 589.999C1310.11 580.065 1327.16 580.781 1339.94 588.937Z" fill="white"/>
<path d="M167 47C168.328 48.3826 168.328 48.3826 169.68 50.3398C170.19 51.0645 170.699 51.7891 171.225 52.5356C171.769 53.3283 172.314 54.1209 172.875 54.9375C174.046 56.6017 175.219 58.2645 176.395 59.9258C176.993 60.7748 177.592 61.6238 178.209 62.4985C180.911 66.2721 183.727 69.9519 186.562 73.625C187.643 75.0298 188.724 76.4348 189.805 77.8398C190.334 78.528 190.864 79.2162 191.409 79.9253C199.487 90.4598 207.396 101.118 215 112C215.773 113.06 216.547 114.119 217.344 115.211C217.89 116.131 218.437 117.052 219 118C217.876 121.371 216.923 121.889 214.012 123.68C211.846 125.063 211.846 125.063 209.332 127.07C208.377 127.81 207.422 128.55 206.438 129.312C205.529 130.031 204.62 130.749 203.684 131.488C201 133 201 133 198.445 133.109C194.996 131.545 193.44 129.015 191.438 125.938C190.561 124.651 189.682 123.366 188.801 122.082C188.344 121.41 187.887 120.738 187.417 120.045C185.078 116.669 182.603 113.4 180.125 110.125C179.112 108.78 178.099 107.435 177.086 106.09C176.579 105.418 176.072 104.746 175.55 104.054C172.945 100.602 170.347 97.1456 167.75 93.6875C167.247 93.0177 166.744 92.3478 166.226 91.6577C162.757 87.0296 159.335 82.3699 155.961 77.6719C154.495 75.6738 153.006 73.7146 151.477 71.7656C151.054 71.2213 150.631 70.677 150.196 70.1162C149.001 68.5821 147.796 67.0564 146.59 65.5312C146.065 64.6959 145.541 63.8606 145 63C146.328 59.0164 148.316 58.0216 151.688 55.5625C152.723 54.8007 153.758 54.0388 154.824 53.2539C155.872 52.5101 156.92 51.7663 158 51C159.058 50.2459 160.117 49.4918 161.207 48.7148C164 47 164 47 167 47Z" fill="white"/>
<path d="M280 3C284.011 15.207 287.582 27.5168 291.015 39.8962C293.756 49.7633 296.652 59.5554 299.881 69.2766C301.275 73.5117 302.425 77.5567 303 82C300.711 82.7997 298.419 83.5897 296.125 84.375C295.493 84.5967 294.862 84.8184 294.211 85.0469C288.89 86.856 283.526 87.997 278 89C274.049 76.7261 270.178 64.4404 266.597 52.0532C265.98 49.9327 265.353 47.8157 264.723 45.6992C262.301 37.557 260.006 29.4005 257.895 21.1719C257.074 18.0351 257.074 18.0351 255.887 15.2656C255 13 255 13 255 10C255.906 9.74605 256.812 9.49211 257.746 9.23047C266.043 6.88944 266.043 6.88944 274.25 4.25C278 3 278 3 280 3Z" fill="white"/>
<path d="M1374.34 583.871C1375 583.869 1375.66 583.867 1376.35 583.866C1378.54 583.861 1380.74 583.864 1382.94 583.868C1384.46 583.867 1385.98 583.866 1387.5 583.865C1390.69 583.863 1393.88 583.865 1397.07 583.87C1401.17 583.876 1405.27 583.872 1409.37 583.866C1412.51 583.863 1415.65 583.864 1418.8 583.867C1420.31 583.867 1421.82 583.866 1423.33 583.864C1425.44 583.862 1427.55 583.865 1429.66 583.871C1430.86 583.872 1432.07 583.873 1433.3 583.873C1436 584 1436 584 1437 585C1437 588.63 1437 592.26 1437 596C1427.76 596 1418.52 596 1409 596C1409 622.73 1409 649.46 1409 677C1404.38 677 1399.76 677 1395 677C1395 650.27 1395 623.54 1395 596C1385.76 596 1376.52 596 1367 596C1367 583.876 1367 583.876 1374.34 583.871Z" fill="white"/>
<path d="M1806.7 583.879C1808.51 583.882 1808.51 583.882 1810.36 583.886C1811.35 583.885 1811.35 583.885 1812.37 583.885C1814.57 583.886 1816.77 583.894 1818.97 583.902C1820.5 583.903 1822.02 583.905 1823.54 583.906C1827.56 583.91 1831.57 583.919 1835.59 583.93C1839.69 583.941 1843.78 583.945 1847.88 583.95C1855.92 583.961 1863.96 583.978 1872 583.999C1872 587.959 1872 591.919 1872 595.999C1863.09 595.999 1854.18 595.999 1845 595.999C1845 622.729 1845 649.459 1845 676.999C1840.38 676.999 1835.76 676.999 1831 676.999C1831 650.269 1831 623.539 1831 595.999C1821.76 595.999 1812.52 595.999 1803 595.999C1803 584.044 1803 584.044 1806.7 583.879Z" fill="white"/>
<path d="M374 0C382.25 0 390.5 0 399 0C399.078 14.9543 399.031 29.8674 398.562 44.8125C398.523 46.1022 398.484 47.3919 398.444 48.7207C398.15 57.4976 397.634 66.2421 397 75C393.416 74.8609 389.833 74.7125 386.25 74.5625C385.234 74.5232 384.218 74.4839 383.172 74.4434C382.192 74.4015 381.212 74.3596 380.203 74.3164C379.302 74.2797 378.402 74.2431 377.474 74.2053C375.204 74.0169 373.184 73.6263 371 73C371.539 48.6338 372.566 24.3296 374 0Z" fill="white"/>
<path d="M486 27C493.919 29.4577 501.42 32.6682 509 36C508.479 41.8275 506.76 46.2493 504.25 51.5C499.325 62.0956 494.825 72.8511 490.343 83.6387C489.933 84.6223 489.933 84.6223 489.516 85.6257C488.768 87.4224 488.023 89.2199 487.278 91.0176C486.259 93.3964 485.193 95.7054 484 98C480.565 97.4023 477.558 96.5247 474.355 95.1523C473.514 94.7946 472.673 94.4369 471.807 94.0684C470.942 93.6952 470.078 93.322 469.188 92.9375C468.304 92.5604 467.42 92.1834 466.51 91.7949C464.338 90.8675 462.168 89.9358 460 89C460.577 83.5616 462.505 79.3125 464.812 74.4375C469.466 64.3879 473.69 54.1795 477.837 43.9138C480.237 38.0283 482.64 32.4024 486 27Z" fill="white"/>
<path d="M581 100C582.32 100.33 583.64 100.66 585 101C585 101.66 585 102.32 585 103C585.639 103.268 586.279 103.536 586.938 103.812C589 105 589 105 590 108C590.66 108 591.32 108 592 108C593.98 110.082 593.98 110.082 596.188 112.812C596.924 113.706 597.66 114.599 598.418 115.52C599.201 116.747 599.201 116.747 600 118C598.863 121.41 597.742 122.376 595.062 124.688C594.352 125.31 593.642 125.933 592.91 126.574C591 128 591 128 589 128C588.505 129.485 588.505 129.485 588 131C586.68 132.332 586.68 132.332 584.875 133.812C579.938 137.991 575.247 142.411 570.544 146.849C566.459 150.688 562.282 154.38 558 158C554.195 156.23 551.719 153.986 548.75 151C547.858 150.113 546.966 149.226 546.047 148.312C544 146 544 146 544 144C543.34 144 542.68 144 542 144C540 141 540 141 540 138C540.66 138 541.32 138 542 138C542 137.34 542 136.68 542 136C543.458 134.55 543.458 134.55 545.48 132.867C548.456 130.338 551.351 127.766 554.176 125.07C554.858 124.421 555.541 123.771 556.244 123.102C557.645 121.763 559.043 120.422 560.439 119.078C561.116 118.436 561.792 117.794 562.488 117.133C563.092 116.554 563.696 115.976 564.318 115.379C566 114 566 114 569 113C569.33 112.01 569.66 111.02 570 110C571.777 108.176 571.777 108.176 573.938 106.312C574.648 105.69 575.358 105.067 576.09 104.426C578 103 578 103 580 103C580.33 102.01 580.66 101.02 581 100Z" fill="white"/>
<path d="M648 206C649.113 207.778 649.113 207.778 649.957 210.078C650.418 211.325 650.418 211.325 650.889 212.597C651.346 213.91 651.346 213.91 651.813 215.25C652.137 216.109 652.461 216.969 652.795 217.855C655.511 225.403 655.511 225.403 654 230C651.192 231.441 651.192 231.441 647.563 232.562C646.269 232.98 644.976 233.399 643.684 233.82C642.468 234.209 641.253 234.598 640 235C638.367 235.625 636.741 236.269 635.125 236.937C629.971 239.042 624.757 240.974 619.532 242.894C616.858 243.885 614.248 244.872 611.711 246.179C610 247 610 247 607 247C605.628 243.59 604.281 240.171 602.938 236.75C602.548 235.781 602.158 234.813 601.756 233.816C601.392 232.881 601.028 231.947 600.652 230.984C600.312 230.125 599.972 229.266 599.621 228.381C598.93 225.732 598.837 224.477 600 222C601.676 220.954 601.676 220.954 603.883 220.175C604.71 219.873 605.537 219.571 606.389 219.259C607.292 218.947 608.195 218.634 609.125 218.312C611.033 217.624 612.941 216.934 614.848 216.242C615.85 215.882 616.851 215.522 617.883 215.151C621.072 213.973 624.222 212.723 627.371 211.445C628.406 211.027 629.44 210.609 630.506 210.178C632.518 209.361 634.527 208.537 636.534 207.706C637.452 207.337 638.37 206.969 639.317 206.589C640.126 206.258 640.934 205.927 641.768 205.585C644.349 204.908 645.581 204.87 648 206Z" fill="white"/>
<path d="M974.688 583.867C975.781 583.87 976.874 583.872 978 583.875C979.094 583.872 980.187 583.87 981.313 583.867C984 584 984 584 985 585C985.096 587.861 985.126 590.698 985.114 593.559C985.114 594.456 985.114 595.354 985.114 596.278C985.114 599.26 985.106 602.241 985.098 605.223C985.096 607.284 985.095 609.345 985.094 611.406C985.09 616.843 985.08 622.28 985.069 627.716C985.059 633.259 985.054 638.803 985.049 644.346C985.038 655.23 985.021 666.115 985 677C980.38 677 975.76 677 971 677C970.977 665.022 970.959 653.044 970.949 641.066C970.943 635.505 970.936 629.943 970.925 624.382C970.914 619.02 970.908 613.658 970.906 608.296C970.904 606.245 970.9 604.194 970.895 602.144C970.887 599.282 970.886 596.421 970.887 593.559C970.883 592.702 970.88 591.845 970.876 590.963C970.888 584.055 970.888 584.055 974.688 583.867Z" fill="white"/>
<path d="M1463 584C1467.29 584 1471.58 584 1476 584C1476 614.69 1476 645.38 1476 677C1471.71 677 1467.42 677 1463 677C1463 646.31 1463 615.62 1463 584Z" fill="white"/>
<path d="M1582 610C1582.33 610 1582.66 610 1583 610C1583 631.45 1583 652.9 1583 675C1582.34 675 1581.68 675 1581 675C1580.82 667.116 1580.66 659.232 1580.51 651.347C1580.43 647.686 1580.36 644.025 1580.28 640.364C1580.2 636.83 1580.13 633.297 1580.06 629.763C1580.02 627.759 1579.98 625.757 1579.93 623.754C1579.91 622.533 1579.89 621.312 1579.87 620.054C1579.84 618.979 1579.82 617.904 1579.8 616.797C1580 613.989 1580.55 612.379 1582 610Z" fill="white"/>
<path d="M1338 632C1339.98 632.99 1339.98 632.99 1342 634C1341.67 634.66 1341.34 635.32 1341 636C1340.01 635.34 1339.02 634.68 1338 634C1338 633.34 1338 632.68 1338 632Z" fill="white"/>
<path d="M2035 601C2035.99 601.33 2036.98 601.66 2038 602C2037.34 602.66 2036.68 603.32 2036 604C2035.67 603.01 2035.34 602.02 2035 601Z" fill="white"/>
<path d="M1919 595C1919.66 595 1920.32 595 1921 595C1920.67 595.99 1920.34 596.98 1920 598C1919.34 597.34 1918.68 596.68 1918 596C1918.33 595.67 1918.66 595.34 1919 595Z" fill="white"/>
</g>
<defs>
<clipPath id="clip0_4397_944">
<rect width="2048" height="724" fill="white"/>
</clipPath>
</defs>
</svg>
