<svg width="1705" height="677" viewBox="0 0 1705 677" fill="none" xmlns="http://www.w3.org/2000/svg">
<path fill-rule="evenodd" clip-rule="evenodd" d="M1584.94 287.258H1543.8L1540.4 302.362H1584.94C1625.69 302.362 1639.44 313.451 1639.44 346.297V362.207C1629.34 351.865 1611.47 346.612 1586.22 346.612C1545.93 346.612 1526.35 364.074 1526.35 399.979V402.593C1526.35 436.268 1545.64 453.333 1583.66 453.333H1593.89C1634.18 453.333 1654.62 436.268 1654.62 402.593V346.297C1654.62 304.37 1634.42 287.258 1584.94 287.258ZM1639.44 404.776C1639.44 428.868 1626.56 438.252 1593.47 438.252H1587.07C1555.16 438.252 1541.53 427.584 1541.53 402.593V399.979C1541.53 372.84 1554.52 361.261 1584.94 361.261H1587.51C1623.91 361.261 1639.44 372.455 1639.44 398.671V404.776ZM528.597 316.859L536.69 276.566H467.03V221.542L418.145 229.094V393.477C418.145 450.322 439.948 467.223 499.402 467.223H525.432L533.525 427.292H502.917C475.823 427.292 467.03 420.464 467.03 390.244V316.859H528.597ZM192.642 202.47V379.097C192.642 444.567 222.187 471.892 286.568 471.892C353.414 471.892 382.959 445.279 382.959 379.447V362.545C382.959 300.681 355.516 270.45 295.724 270.45C276.724 270.45 255.972 274.407 241.888 285.554V194.544L192.642 202.458V202.47ZM288.332 310.019C322.105 310.019 334.063 323.688 334.063 364.343V379.447C334.063 419.016 322.105 432.696 287.631 432.696C253.157 432.696 241.187 419.016 241.187 379.097V358.577C241.187 322.24 253.157 310.019 288.332 310.019ZM646.802 270.45C582.421 270.45 552.875 298.148 552.875 361.46V371.171C552.875 431.249 578.556 460.383 639.06 460.383C658.41 460.383 677.761 456.8 691.471 445.641V452.843C691.471 486.658 677.049 497.793 643.276 497.793H623.061C611.499 498.004 606.244 500.105 599.284 511.777H599.249C541.244 605.635 440.544 662.981 330.793 662.981C155.692 662.981 13.2313 517.31 13.2313 338.255C13.2313 159.2 155.692 13.54 330.793 13.54C453.787 13.54 565.675 86.3759 618.027 199.727H632.625C579.245 78.3452 460.981 0 330.782 0C148.393 0 0 151.741 0 338.267C0 524.78 148.393 676.521 330.793 676.521C438.057 676.521 537.052 623.926 598.77 536.651H646.09C708.357 536.651 740.367 512.547 740.367 451.034V358.238C740.367 297.075 709.771 270.45 646.802 270.45ZM691.833 377.287C691.833 411.102 680.213 421.526 646.802 421.526C609.152 421.526 601.772 408.219 601.772 369.023V362.907C601.772 324.038 608.451 310.031 646.802 310.031C684.441 310.031 691.833 323.688 691.833 363.257V377.287ZM1685.95 453.333H1701.13V224.869H1685.95V453.333ZM1344.01 302.362L1347.41 287.27H1279.52V244.14L1263.92 246.988V394.738C1263.92 436.828 1279.33 452.469 1320.79 452.469H1343.21L1346.05 437.389H1320.79C1289.54 437.389 1279.52 427.234 1279.52 395.601V302.362H1344.01ZM1484.54 387.758C1484.54 426.65 1472.64 439.116 1435.59 439.116C1399.62 439.116 1387.47 426.16 1387.47 387.758V287.258H1371.88V387.758C1371.88 435.579 1389.75 454.209 1435.59 454.209C1481.13 454.209 1499.71 434.961 1499.71 387.758V287.258H1484.53L1484.54 387.758ZM1141.26 376.856V362.884C1141.26 318.19 1156.19 302.362 1198.32 302.362H1233.92L1237.3 287.27H1198.32C1148.07 287.27 1125.65 310.591 1125.65 362.884V376.856C1125.65 429.148 1148.07 452.469 1198.32 452.469H1234.34L1237.74 437.389H1198.32C1157.25 437.389 1141.26 420.417 1141.26 376.856ZM1028.91 287.27H987.767L984.369 302.362H1028.91C1069.34 302.362 1082.98 313.451 1082.98 346.297V362.207C1072.88 351.865 1055.01 346.612 1029.76 346.612C989.472 346.612 969.9 364.074 969.9 399.979V402.593C969.9 436.268 989.32 453.333 1027.62 453.333H1037.87C1077.88 453.333 1098.16 436.268 1098.16 402.593V346.297C1098.16 304.37 1078.1 287.27 1028.91 287.27ZM1082.98 404.776C1082.98 429.171 1070.63 438.252 1037.43 438.252H1031.05C998.815 438.252 985.07 427.584 985.07 402.593V399.979C985.07 372.84 998.056 361.261 1028.48 361.261H1031.05C1067.45 361.261 1082.98 372.455 1082.98 398.671V404.776ZM876.136 284.655C828.023 284.655 805.601 308.957 805.601 361.145V503.081H820.782V430.198C831.76 444.789 852.243 453.333 876.989 453.333C924.881 453.333 946.24 429.755 946.24 376.856V360.701C946.24 308.105 924.624 284.655 876.136 284.655ZM930.638 376.856C930.638 421.619 916.099 438.252 876.989 438.252C839.969 438.252 821.203 419.798 821.203 383.392V361.145C821.203 317.525 837.12 299.736 876.136 299.736C915.352 299.736 930.638 316.824 930.638 360.701V376.856Z" fill="white"/>
</svg>
