<svg width="1926" height="642" viewBox="0 0 1926 642" fill="none" xmlns="http://www.w3.org/2000/svg">
<path fill-rule="evenodd" clip-rule="evenodd" d="M306.027 13.8574C155.824 65.0534 63.3549 101.363 34.0269 120.662C-4.76605 146.189 -11.5301 199.37 19.6379 233.779C24.1109 238.717 24.9519 239.254 26.3729 238.075C27.8319 236.864 27.4389 236.056 22.5069 230.114C10.9469 216.188 5.02695 200.213 5.02695 182.947C5.02695 158.158 16.5809 137.423 38.0269 123.723C61.8229 108.522 132.349 79.7764 233.027 44.2444C263.363 33.5384 343.772 5.94738 344.638 5.94738C344.852 5.94738 345.027 9.77238 345.027 14.4474C345.027 22.2804 345.184 22.9474 347.027 22.9474C348.911 22.9474 349.027 22.2804 349.027 11.4474C349.027 2.88538 348.708 -0.0386158 347.777 0.000384239C347.09 0.0293842 328.302 6.26538 306.027 13.8574ZM359.527 26.5994C195.456 84.5644 97.0809 123.899 68.9199 142.796C53.8339 152.919 43.4179 166.925 40.9179 180.447C33.8359 218.767 80.2919 268.598 138.527 285.145C145.288 287.066 148.85 287.411 161.527 287.374C177.261 287.327 187.074 285.991 205.527 281.38C220.256 277.7 245.425 269.014 263.572 261.349C283 253.144 319.143 234.993 328.027 228.982C341.405 219.93 352.625 206.483 360.087 190.56C371.728 165.718 375.253 136.419 373.199 81.5614C372.538 63.8984 372.004 43.4854 372.012 36.1974C372.023 26.2244 371.718 22.9624 370.777 23.0064C370.09 23.0394 365.027 24.6554 359.527 26.5994ZM1906.24 35.5334C1891.88 40.2454 1867.27 43.9344 1850.13 43.9444L1843.73 43.9474L1846.44 46.4544C1850.22 49.9614 1852.9 56.5684 1854.02 65.1364C1855.39 75.7024 1855.34 406.501 1853.96 416.625C1852.76 425.496 1850.04 432.008 1846.3 434.943L1843.76 436.947H1884.47H1925.18L1922.13 433.893C1920.45 432.213 1918.27 428.5 1917.3 425.643C1915.63 420.75 1915.51 409.138 1915.26 226.697C1915.12 120.135 1914.67 32.9914 1914.26 33.0464C1913.86 33.1004 1910.25 34.2194 1906.24 35.5334ZM592.527 165.53C568.25 167.963 555.591 170.426 540.685 175.614C508.487 186.822 485.437 207.049 472.491 235.457C456.897 269.675 455.258 323.687 468.645 362.147C476.532 384.806 486.808 399.674 503.328 412.327C529.232 432.168 559.645 441 607.527 442.587C626.85 443.228 652.559 441.892 670.527 439.314C691.482 436.308 719.342 428.05 733.221 420.731C742.496 415.84 742.198 417.133 738.927 395.947C737.355 385.772 736.06 374.589 736.048 371.097L736.027 364.746L730.401 369.888C723.973 375.763 709.357 384.657 698.161 389.507C678.554 398 660.22 401.192 631.027 401.194C587.106 401.198 559.877 393.029 541.527 374.343C531.618 364.253 525.773 352.809 521.776 335.672C519.919 327.711 519.624 323.432 519.621 304.447C519.619 285.4 519.919 281.061 521.857 272.122C524.666 259.164 528.018 250.743 534.001 241.608C549.23 218.356 573.197 207.504 612.081 206.253C640.069 205.352 667.726 208.687 688.527 215.471C706.591 221.362 727.072 231.522 736.335 239.186C738.98 241.374 741.285 243.003 741.459 242.806C741.633 242.608 739.151 231.422 735.944 217.947C732.286 202.579 730.097 191.18 730.07 187.364L730.027 181.282L721.277 178.561C708.709 174.654 680.889 169.263 664.027 167.467C650.284 166.003 601.104 164.671 592.527 165.53ZM906.027 165.547C904.102 165.756 897.577 166.421 891.527 167.023C878.87 168.284 858.125 171.911 843.265 175.462C828.555 178.977 805.027 186.847 805.027 188.252C805.027 188.909 806.377 199.274 808.027 211.285C809.677 223.295 811.027 235.064 811.027 237.437V241.752L817.777 237.311C836.852 224.759 867.729 213.108 894.527 208.351C909.762 205.646 934.606 204.448 949.192 205.715C974.184 207.885 988.714 213.386 1000.21 225.034C1013.29 238.274 1021.03 262.314 1021.03 289.682V296.969L1013.28 293.074C989.523 281.134 960.439 275.13 922.027 274.237C880.746 273.278 853.357 277.75 830.527 289.179C809.291 299.81 794.48 318.127 789.476 339.947C786.982 350.823 787.204 370.889 789.937 381.447C796.673 407.475 813.26 425.406 838.719 434.181C857.16 440.538 884.337 443.641 911.944 442.544C955.755 440.802 991.28 431.094 1014.31 414.571L1021.98 409.065L1021.35 423.006L1020.72 436.947H1056.96H1093.2L1090.56 433.804C1086.08 428.479 1083.01 421.236 1082.03 413.669C1081.51 409.697 1081.07 376.51 1081.06 339.921C1081.04 300.304 1080.61 269.967 1079.99 264.921C1074.03 216.21 1050.84 187.049 1007.03 173.147C987.882 167.074 976.019 165.683 941.027 165.411C923.702 165.276 907.952 165.337 906.027 165.547ZM1206.72 167.054C1198.29 170.388 1178.1 173.916 1160.35 175.158L1143.18 176.36L1145.66 178.661C1149.54 182.258 1151.93 188.902 1153.01 199.083C1154.31 211.477 1154.32 401.37 1153.01 413.757C1151.92 424.143 1149.04 432.001 1145.25 434.984C1142.76 436.944 1142.83 436.947 1183.29 436.947H1223.83L1221 433.916C1219.44 432.25 1217.35 428.537 1216.35 425.666C1214.65 420.804 1214.53 415.482 1214.53 347.947C1214.53 275.692 1214.53 275.417 1216.81 266.447C1222.69 243.348 1236.41 225.812 1256.53 215.702C1281.89 202.954 1312.81 201.706 1335.62 212.511C1349.41 219.045 1360.53 234.35 1364.98 252.947C1368.7 268.487 1369.17 280.386 1368.81 351.447C1368.43 427.288 1368.48 426.692 1361.53 433.644L1358.23 436.947H1399.2H1440.18L1437.16 434.405C1435.5 433.008 1433.11 429.295 1431.85 426.155L1429.57 420.447L1428.98 342.447C1428.42 268.613 1428.28 263.832 1426.27 252.927C1418.49 210.792 1399.76 185.655 1366.59 172.844C1352.15 167.267 1343.54 165.832 1321.03 165.253C1303.15 164.793 1298.94 164.996 1288.14 166.838C1260.93 171.478 1239.42 181.88 1221.55 199.041L1213.5 206.771L1213.88 185.859C1214.3 162.475 1214.82 163.849 1206.72 167.054ZM1594.52 166.415C1569.14 169.039 1541.84 174.725 1519.28 182.086C1506.88 186.132 1504.03 187.408 1504.03 188.917C1504.03 189.938 1505.15 198.951 1506.53 208.947C1507.9 218.943 1509.03 230.457 1509.03 234.534C1509.03 238.611 1509.19 241.947 1509.4 241.947C1509.6 241.947 1512.85 239.877 1516.62 237.347C1526.17 230.942 1545.53 221.705 1558.07 217.571C1580.62 210.137 1594.3 207.445 1618.19 205.744C1637.45 204.372 1656.26 205.532 1669.53 208.909C1694.4 215.24 1708.88 230.131 1715.48 256.169C1718.08 266.422 1720.03 281.289 1720.03 290.922V296.976L1713.82 293.843C1698.73 286.223 1677.41 279.904 1655.03 276.415C1631.85 272.802 1587 273.396 1564.53 277.615C1524.01 285.221 1496.91 306.627 1489.09 337.191C1483.5 359.073 1486.67 384.861 1497.16 402.69C1502.3 411.427 1515.16 423.785 1523.8 428.29C1544.02 438.832 1575.13 443.971 1610.24 442.571C1657.78 440.674 1692.85 430.403 1718.18 410.956L1720.84 408.917L1720.29 422.932L1719.73 436.947H1755.38C1774.98 436.947 1791.03 436.723 1791.03 436.449C1791.03 436.176 1789.41 433.696 1787.43 430.94C1780.4 421.158 1780.69 424.697 1779.97 340.447C1779.27 259.258 1779.21 258.238 1773.92 240.447C1763.46 205.271 1740.68 183.268 1703.53 172.463C1683.87 166.747 1675.19 165.783 1640.03 165.412C1617.61 165.176 1603.49 165.487 1594.52 166.415ZM31.6859 281.067C30.8449 304.278 30.9869 372.521 31.9669 416.447C32.6659 447.763 32.903 451 34.9749 457.447C41.3379 477.249 52.5869 490.754 72.7669 502.817C84.1689 509.633 122.313 528.652 142.027 537.352C224.859 573.905 348.822 618.235 370.932 619.209C376.053 619.434 376.377 619.303 377.091 616.715C378.66 611.026 380.311 565.07 379.687 544.447C376.728 446.709 349.534 401.211 282.314 381.532C268.076 377.364 254.609 374.37 225.527 368.909C174.142 359.259 149.383 351.998 121.527 338.411C90.9859 323.514 61.9979 300.046 40.0509 272.447C36.5519 268.047 33.3859 264.091 33.0169 263.656C32.6479 263.221 32.0489 271.056 31.6859 281.067ZM0.0269458 375.989C0.0269458 454.98 0.235946 468.052 1.60495 474.739C5.92995 495.874 16.8259 511.365 36.3089 524.076C47.5509 531.41 86.7299 550.893 112.527 561.976C160.395 582.541 213.869 602.883 268.027 621.127C311.303 635.706 335.824 642.355 344.119 641.762L348.527 641.447L348.816 632.697C349.088 624.464 348.985 623.947 347.066 623.947C345.21 623.947 345.027 624.57 345.027 630.884V637.821L341.277 637.289C331.403 635.888 303.225 627.753 271.027 617.008C179.852 586.583 84.4489 547.09 43.1479 522.675C23.2809 510.931 11.5029 495.933 7.13095 476.81C5.40095 469.243 5.16195 462.579 4.61795 406.788C4.28695 372.876 4.31495 335.215 4.67895 323.097L5.34195 301.065L10.0719 307.256C12.6739 310.661 16.4319 315.002 18.4239 316.902C21.6539 319.984 22.2089 320.194 23.5559 318.847C24.9029 317.499 24.5649 316.802 20.4249 312.392C16.0049 307.682 2.02695 287.441 2.02695 285.75C2.02695 285.308 1.57695 284.947 1.02695 284.947C0.367946 284.947 0.0269458 315.961 0.0269458 375.989ZM946.953 314.962C979.038 317.152 998.151 323.061 1011.25 334.838C1024.87 347.082 1024.21 365.757 1009.71 378.448C990.984 394.834 949.956 403.9 907.36 401.063C865.546 398.278 848.533 387.265 847.208 362.126C845.917 337.651 859.653 322.833 888.68 317.388C904.86 314.353 925.47 313.495 946.953 314.962ZM1645.27 314.958C1676.81 316.97 1696.22 322.84 1709.78 334.466C1721.58 344.58 1723.25 360.096 1713.9 372.811C1710.64 377.236 1701.53 384.188 1694.03 387.973C1670.55 399.812 1624.82 404.809 1589.48 399.396C1558.11 394.59 1545.08 381.683 1546.21 356.553C1547.52 327.593 1569.7 315.49 1624.03 314.095C1627.05 314.018 1636.61 314.406 1645.27 314.958Z" fill="white"/>
</svg>
