<svg width="2661" height="900" viewBox="0 0 2661 900" fill="none" xmlns="http://www.w3.org/2000/svg">
<path d="M372.3 675C359.2 688.1 351.1 692.2 330.9 692.2H264.3C246.1 692.2 239.1 685.1 239.1 667V379.4H438.8V285.6H433.8L239.1 347.1V72.5996C239.1 54.3996 246.2 47.3996 264.3 47.3996H332.9C352.1 47.3996 361.2 50.3996 372.2 61.4996L527.6 214.9H532.6L516.5 28.1996C515.5 21.0996 511.5 17.0996 504.4 17.0996H0V22.0996L47.4 69.4996C59.5 81.5996 60.5 88.6996 60.5 103.8V637.5C60.5 652.6 57.5 659.7 46.4 670.8L0 718.2V723.2H527.7C534.8 723.2 539.8 717.1 540.8 710.1L556.9 496.2H551.9L372.3 674.8V675Z" fill="white"/>
<path d="M1644.6 69.6002L1692 22.2002V17.2002H1392.3V22.2002L1439.7 69.6002C1451.8 81.7002 1452.8 88.8002 1452.8 103.9V637.6C1452.8 652.7 1449.8 659.8 1438.7 670.9L1392.3 718.3V723.3H1692V718.3L1645.6 670.9C1634.5 659.8 1631.5 652.7 1631.5 637.6V103.9C1631.5 88.8002 1632.5 81.7002 1644.6 69.6002Z" fill="white"/>
<path d="M969.6 765.8L947.4 744.6C941.4 738.5 944.4 734.5 950.4 734.5H974.6C975.3 734.5 976 734.5 976.6 734.5C977.2 734.5 977.9 734.5 978.6 734.5C1186.6 732.5 1353.9 575.7 1353.9 364.2C1353.9 152.7 1193.5 1 977.6 0C977.3 0 976.9 0 976.6 0C976.3 0 975.9 0 975.6 0C759.7 1 599.3 153 599.3 364.2C599.3 575.4 708.3 669.9 859.7 716.8C880.2 723.3 885.9 726.5 900.4 740.7L1025.1 865.7C1053.3 893.9 1062.8 900 1101.1 900H1209.8C1212.8 900 1215.7 898.8 1217.9 896.6L1333.1 778.9V773.9H987.7C978.6 773.9 976.6 772.9 969.5 765.8H969.6ZM790.2 364.2C790.2 141.4 851.7 30.4 976.6 30.2C1101.5 30.3 1163 141.3 1163 364.2C1163 587.1 1101.5 703.1 976.6 703.2C851.7 703.1 790.2 592.1 790.2 364.2Z" fill="white"/>
<path d="M1972.5 563.5C1985.2 574.4 1991.6 590 1991.6 610.2V723.6H1959.6L1956.5 698.7C1949.9 707.3 1942.1 714 1933.2 718.6C1924.2 723.3 1913.3 725.6 1900.3 725.6C1881 725.6 1865.6 721.1 1854 712C1842.4 702.9 1836.6 690.4 1836.6 674.5C1836.6 658.6 1843 642.8 1855.8 633.1C1868.6 623.5 1887.2 618.6 1911.5 618.6H1955.1V608C1955.1 598.2 1951.7 590.6 1944.9 585C1938.1 579.4 1928.7 576.7 1916.6 576.7C1904.5 576.7 1897.1 579 1890.2 583.5C1883.3 588 1879.1 594.3 1877.8 602.2H1841.7C1843.5 584.7 1851.2 571.2 1864.9 561.5C1878.5 551.9 1896.3 547 1918.4 547C1940.5 547 1959.8 552.4 1972.5 563.3V563.5ZM1942 684.8C1950.5 676.6 1954.9 665.7 1955.1 652.1V646H1909.5C1898.1 646 1889.4 648.2 1883.3 652.6C1877.2 657 1874.1 663.6 1874.1 672.2C1874.1 680.8 1877 685.7 1882.8 690.3C1888.6 694.8 1896.5 697.1 1906.5 697.1C1921.7 697.1 1933.6 693 1942.1 684.8H1942Z" fill="white"/>
<path d="M2055 666C2055.7 675.1 2059.9 682.5 2067.8 688.3C2075.6 694.1 2085.8 697 2098.3 697C2110.8 697 2118.4 694.9 2125.4 690.7C2132.3 686.5 2135.8 680.9 2135.8 673.8C2135.8 666.7 2134.2 663.5 2131 660.5C2127.8 657.6 2123.6 655.5 2118.2 654.2C2112.9 653 2104.6 651.6 2093.5 650.3C2078.3 648.5 2065.7 646 2055.9 643C2046 639.9 2038.1 635.1 2032.1 628.4C2026.1 621.7 2023.1 612.7 2023.1 601.3C2023.1 589.9 2026.1 581.2 2032.1 572.9C2038.1 564.6 2046.4 558.2 2057 553.7C2067.6 549.2 2079.5 546.9 2092.9 546.9C2114.9 546.9 2132.8 551.8 2146.5 561.5C2160.2 571.3 2167.7 585 2168.8 602.7H2133C2132.1 594.8 2128.1 588.2 2121.1 583.1C2114.1 578 2105.2 575.4 2094.5 575.4C2083.8 575.4 2075.2 577.4 2068.6 581.5C2062 585.6 2058.7 591.2 2058.7 598.2C2058.7 605.2 2060.3 607.3 2063.6 609.9C2066.9 612.5 2071 614.3 2076 615.4C2081 616.4 2089.1 617.6 2100.2 619C2115.2 620.6 2127.8 623 2138 626.3C2148.2 629.6 2156.4 634.8 2162.5 642C2168.6 649.2 2171.7 658.9 2171.7 671.1C2171.7 683.3 2168.5 691.6 2162.2 699.9C2155.8 708.2 2147.1 714.5 2136 719C2124.9 723.4 2112.4 725.6 2098.5 725.6C2075.1 725.6 2056.2 720.3 2041.8 709.8C2027.4 699.2 2019.9 684.7 2019.5 666H2054.9H2055Z" fill="white"/>
<path d="M2229.3 666C2230 675.1 2234.2 682.5 2242.1 688.3C2249.9 694.1 2260.1 697 2272.6 697C2285.1 697 2292.7 694.9 2299.7 690.7C2306.6 686.5 2310.1 680.9 2310.1 673.8C2310.1 666.7 2308.5 663.5 2305.3 660.5C2302.1 657.6 2297.9 655.5 2292.5 654.2C2287.2 653 2278.9 651.6 2267.8 650.3C2252.6 648.5 2240 646 2230.2 643C2220.3 639.9 2212.4 635.1 2206.4 628.4C2200.4 621.7 2197.4 612.7 2197.4 601.3C2197.4 589.9 2200.4 581.2 2206.4 572.9C2212.4 564.6 2220.7 558.2 2231.3 553.7C2241.9 549.2 2253.8 546.9 2267.2 546.9C2289.2 546.9 2307.1 551.8 2320.8 561.5C2334.5 571.3 2342 585 2343.1 602.7H2307.3C2306.4 594.8 2302.4 588.2 2295.4 583.1C2288.4 578 2279.5 575.4 2268.8 575.4C2258.1 575.4 2249.5 577.4 2242.9 581.5C2236.3 585.6 2233 591.2 2233 598.2C2233 605.2 2234.6 607.3 2237.9 609.9C2241.2 612.5 2245.3 614.3 2250.3 615.4C2255.3 616.4 2263.4 617.6 2274.5 619C2289.5 620.6 2302.1 623 2312.3 626.3C2322.5 629.6 2330.7 634.8 2336.8 642C2342.9 649.2 2346 658.9 2346 671.1C2346 683.3 2342.8 691.6 2336.5 699.9C2330.1 708.2 2321.4 714.5 2310.3 719C2299.2 723.4 2286.7 725.6 2272.8 725.6C2249.4 725.6 2230.5 720.3 2216.1 709.8C2201.7 699.2 2194.2 684.7 2193.8 666H2229.2H2229.3Z" fill="white"/>
<path d="M2377.9 589.6C2385 576.1 2395 565.6 2407.9 558.3C2420.7 550.9 2435.4 547.2 2452 547.2C2468.6 547.2 2483.6 550.6 2496.4 557.4C2509.2 564.2 2519.3 573.9 2526.7 586.3C2534.1 598.8 2537.9 613.4 2538.1 630.2C2538.1 634.7 2537.8 639.4 2537.1 644.2H2405.6V646.2C2406.5 661.4 2411.3 673.4 2419.9 682.3C2428.5 691.2 2440 695.6 2454.3 695.6C2468.6 695.6 2475.2 692.9 2482.9 687.6C2490.6 682.3 2495.7 674.7 2498.2 664.9H2535C2531.8 682.6 2523.3 697.1 2509.3 708.5C2495.3 719.9 2477.9 725.5 2457 725.5C2436.1 725.5 2423 721.8 2409.5 714.4C2396 707 2385.5 696.6 2378.2 683.2C2370.8 669.8 2367.1 654.3 2367.1 636.5C2367.1 618.7 2370.7 602.8 2377.8 589.3L2377.9 589.6ZM2500.7 617.3C2499.1 604.6 2494.1 594.7 2485.5 587.5C2477 580.3 2466.3 576.8 2453.3 576.8C2440.3 576.8 2430.9 580.5 2422.1 587.9C2413.4 595.3 2408.3 605.1 2406.9 617.4H2500.6L2500.7 617.3Z" fill="white"/>
<path d="M2577.7 581.6H2547.4V549.2H2577.7V500.5H2614.8V549.2H2656.7V581.6H2614.8V672.5C2614.8 679.3 2616.2 684.1 2618.9 687C2621.6 689.8 2626.3 691.3 2632.9 691.3H2660.8V723.7H2625.4C2608.8 723.7 2596.7 719.8 2589.1 712.1C2581.5 704.4 2577.7 692.5 2577.7 676.3V581.6Z" fill="white"/>
</svg>
