<svg width="2042" height="463" viewBox="0 0 2042 463" fill="none" xmlns="http://www.w3.org/2000/svg">
<g clip-path="url(#clip0_4397_842)">
<path fill-rule="evenodd" clip-rule="evenodd" d="M0 47.522V95.044H148.559C230.268 95.044 302.716 94.6475 309.555 94.1614C321.371 93.3237 321.992 93.1241 321.992 90.156C321.992 87.3061 322.675 86.9978 329.804 86.6258C337.162 86.2416 337.641 86.0053 338.04 82.5525C338.431 79.1581 338.984 78.8566 345.512 78.4792C352.074 78.1004 352.591 77.8139 352.99 74.338C353.324 71.4378 354.138 70.6041 356.637 70.6041C359.135 70.6041 359.949 69.7704 360.283 66.8702C360.617 63.9605 361.52 63.0427 364.366 62.7141C367.19 62.3882 368.116 61.4636 368.442 58.6408C368.77 55.7963 369.689 54.8947 372.6 54.5607C375.535 54.2226 376.337 53.4215 376.337 50.8268C376.337 48.0597 377.001 47.522 380.412 47.522C384.036 47.522 384.488 47.0699 384.488 43.4487C384.488 39.8275 384.941 39.3754 388.564 39.3754C392.188 39.3754 392.64 38.9232 392.64 35.3021C392.64 31.8927 393.178 31.2287 395.947 31.2287C398.543 31.2287 399.345 30.4277 399.683 27.4949C400.017 24.5852 400.919 23.6673 403.766 23.3387C406.59 23.0129 407.516 22.0882 407.842 19.2654C408.17 16.4209 409.089 15.5193 412 15.1853C414.902 14.8513 415.736 14.038 415.736 11.5411C415.736 9.04411 416.571 8.23081 419.473 7.8968C422.407 7.56007 423.301 6.66666 423.638 3.73387L424.069 0H212.034H0V47.522ZM603.95 8.48607C603.481 13.1541 603.28 78.3773 603.501 153.428L603.905 289.884L635.832 290.293C653.392 290.518 670.97 290.321 674.893 289.856L682.025 289.01V246.338V203.666H729.577H777.128V168.364V133.062H729.548H681.97L682.336 105.567L682.705 78.0718L745.541 77.7188L808.377 77.3658V38.6829V0H706.589H604.8L603.95 8.48607ZM1059.72 11.4514V22.9015L1055.98 23.3319L1052.25 23.761L1051.86 39.0359C1051.49 54.0189 1051.42 54.3109 1048.31 54.3109C1045.57 54.3109 1045.03 55.1649 1044.28 60.6109C1043.81 64.0746 1043.42 69.5736 1043.42 72.8308C1043.42 78.2402 1043.12 78.7507 1040.02 78.7507C1036.98 78.7507 1036.62 79.3061 1036.62 83.9917C1036.62 86.8756 1036.24 92.0691 1035.76 95.5328C1035.01 101.007 1034.47 101.833 1031.68 101.833C1028.59 101.833 1028.47 102.202 1028.46 112.356C1028.43 128.699 1027.4 133.062 1023.54 133.062C1020.39 133.062 1020.32 133.332 1020.32 145.282C1020.32 157.231 1020.25 157.501 1017.1 157.501C1013.28 157.501 1012.21 161.873 1012.18 177.529C1012.17 186.964 1012.04 187.372 1008.96 187.372C1006.11 187.372 1005.66 188.156 1004.9 194.501C1004.43 198.421 1004.03 203.921 1004.03 206.721C1004.02 211.243 1003.64 211.812 1000.62 211.812C997.327 211.812 997.224 212.096 997.224 221.127C997.224 226.251 996.836 233.277 996.36 236.741C995.609 242.216 995.075 243.041 992.284 243.041C989.162 243.041 989.072 243.359 989.072 254.493V265.943L985.336 266.373C981.612 266.801 981.599 266.841 981.207 278.683L980.815 290.563H1020.27H1059.72V279.022V267.481H1110.67H1161.62V279.022V290.563H1201.02H1240.42V278.343V266.123H1236.34H1232.26V251.277V236.433L1228.53 236.002C1224.8 235.575 1224.79 235.534 1224.4 223.693C1224.02 212.221 1223.9 211.812 1220.8 211.812C1217.67 211.812 1217.56 211.431 1216.61 196.198C1215.66 180.931 1215.56 180.584 1212.4 180.584C1209.49 180.584 1209.17 179.993 1209.17 174.664C1209.17 171.406 1208.78 165.907 1208.3 162.444C1207.55 156.969 1207.02 156.144 1204.23 156.144C1201.1 156.144 1201.02 155.831 1201.02 144.603C1201.02 133.367 1200.93 133.062 1197.8 133.062C1193.94 133.062 1192.9 128.699 1192.88 112.356C1192.86 102.202 1192.75 101.833 1189.65 101.833C1186.86 101.833 1186.33 101.007 1185.58 95.5328C1185.1 92.0691 1184.71 86.5701 1184.71 83.3128C1184.71 77.9035 1184.42 77.393 1181.32 77.393C1178.05 77.393 1177.92 77.063 1177.92 68.7575C1177.92 64.0067 1177.53 57.2857 1177.06 53.8221C1176.3 48.3475 1175.77 47.522 1172.98 47.522C1169.84 47.522 1169.77 47.2437 1169.77 35.3021V23.0821H1165.69H1161.62V11.5411V0H1110.67H1059.72V11.4514ZM1444.21 145.282V290.563H1483.61H1523.01V219.959V149.355H1526.26C1529.16 149.355 1529.58 150.119 1530.43 156.823C1531.26 163.47 1531.7 164.29 1534.52 164.29C1537.38 164.29 1537.78 165.082 1538.63 172.437C1539.49 179.871 1539.87 180.584 1542.84 180.584C1545.56 180.584 1546.1 181.261 1546.1 184.657C1546.1 188.278 1546.55 188.73 1550.18 188.73C1554.2 188.73 1554.26 188.816 1554.26 196.108C1554.26 203.147 1554.43 203.505 1557.99 203.916C1561.53 204.322 1561.76 204.761 1562.14 212.152C1562.53 219.8 1562.63 219.959 1566.55 219.959C1570.1 219.959 1570.56 220.427 1570.56 224.032C1570.56 227.42 1571.1 228.106 1573.81 228.106C1576.71 228.106 1577.14 228.87 1577.98 235.573C1578.82 242.319 1579.23 243.041 1582.2 243.041C1584.96 243.041 1585.5 243.706 1585.5 247.114V251.188H1597.73H1609.96V247.114C1609.96 243.727 1610.5 243.041 1613.21 243.041C1616.11 243.041 1616.54 242.277 1617.38 235.573C1618.22 228.828 1618.63 228.106 1621.6 228.106C1624.35 228.106 1624.9 227.435 1624.9 224.122C1624.9 220.787 1625.52 220.069 1628.64 219.709C1632.17 219.303 1632.4 218.863 1632.78 211.473C1633.18 203.825 1633.27 203.666 1637.2 203.666C1641.15 203.666 1641.21 203.562 1641.21 196.198C1641.21 189.138 1641.4 188.73 1644.6 188.73C1647.47 188.73 1648 188.096 1648 184.657C1648 181.052 1648.46 180.584 1652.01 180.584C1655.94 180.584 1656.03 180.425 1656.42 172.776C1656.8 165.386 1657.04 164.946 1660.57 164.54C1664.13 164.13 1664.3 163.772 1664.3 156.733C1664.3 149.876 1664.54 149.355 1667.52 149.355C1670.19 149.355 1670.89 150.232 1671.59 154.446C1672.05 157.248 1672.43 189.018 1672.44 225.051L1672.46 290.563H1711.18H1749.9V145.282V0H1711.18H1672.46V4.07331C1672.46 7.69449 1672.01 8.14663 1668.38 8.14663C1664.36 8.14663 1664.3 8.23217 1664.3 15.5248C1664.3 22.5634 1664.13 22.9219 1660.57 23.3319C1657.04 23.7379 1656.8 24.1778 1656.42 31.5682C1656.03 39.2165 1655.94 39.3754 1652.01 39.3754C1648.46 39.3754 1648 39.8438 1648 43.4487C1648 46.8363 1647.46 47.522 1644.75 47.522C1641.85 47.522 1641.43 48.2864 1640.58 54.9897C1639.75 61.6197 1639.31 62.4575 1636.51 62.4575C1633.72 62.4575 1633.26 63.2952 1632.43 69.9252C1631.59 76.6706 1631.18 77.393 1628.21 77.393C1625.34 77.393 1624.9 78.0189 1624.9 82.1452C1624.9 86.2714 1624.47 86.8974 1621.6 86.8974C1618.63 86.8974 1618.22 87.6197 1617.38 94.3651C1616.55 100.949 1616.07 101.833 1613.36 101.833C1610.64 101.833 1610.16 102.717 1609.34 109.301C1608.49 116.046 1608.09 116.768 1605.11 116.768C1602.35 116.768 1601.81 117.434 1601.81 120.842C1601.81 124.463 1601.36 124.915 1597.73 124.915C1594.1 124.915 1593.66 124.463 1593.66 120.842C1593.66 117.434 1593.11 116.768 1590.36 116.768C1587.38 116.768 1586.97 116.046 1586.13 109.301C1585.3 102.671 1584.84 101.833 1582.05 101.833C1579.26 101.833 1578.81 100.995 1577.98 94.3651C1577.15 87.7256 1576.69 86.8974 1573.89 86.8974C1571.32 86.8974 1570.66 86.0732 1570.3 82.4846C1569.95 78.8295 1569.26 77.9985 1566.21 77.6482C1562.82 77.2572 1562.52 76.7046 1562.14 70.1805C1561.76 63.6224 1561.47 63.1065 1557.99 62.7073C1554.43 62.2973 1554.26 61.9388 1554.26 54.9001C1554.26 47.6075 1554.2 47.522 1550.18 47.522C1546.55 47.522 1546.1 47.0699 1546.1 43.4487C1546.1 40.0529 1545.56 39.3754 1542.84 39.3754C1539.87 39.3754 1539.49 38.6625 1538.63 31.2287C1537.78 23.8737 1537.38 23.0821 1534.52 23.0821C1531.7 23.0821 1531.26 22.262 1530.43 15.6144C1529.58 8.91105 1529.16 8.14663 1526.26 8.14663C1523.55 8.14663 1523.01 7.46095 1523.01 4.07331V0H1483.61H1444.21V145.282ZM1963.2 145.282V290.563H2001.92H2040.64V145.282V0H2001.92H1963.2V145.282ZM446.985 43.4487C446.985 47.0699 446.532 47.522 442.909 47.522C439.497 47.522 438.833 48.0597 438.833 50.8268C438.833 53.4215 438.031 54.2226 435.097 54.5607C432.162 54.8974 431.268 55.7908 430.931 58.7236C430.593 61.6564 429.791 62.4575 427.195 62.4575C424.426 62.4575 423.888 63.1214 423.888 66.5308C423.888 70.152 423.436 70.6041 419.812 70.6041C416.189 70.6041 415.736 71.0562 415.736 74.6774C415.736 78.2986 415.284 78.7507 411.661 78.7507C408.037 78.7507 407.585 79.2029 407.585 82.8241C407.585 86.4452 407.132 86.8974 403.509 86.8974C400.068 86.8974 399.433 87.4255 399.433 90.2918C399.433 93.0073 398.754 93.6862 396.037 93.6862C393.169 93.6862 392.64 94.3203 392.64 97.7595C392.64 101.381 392.188 101.833 388.564 101.833C384.941 101.833 384.488 102.285 384.488 105.906C384.488 109.527 384.036 109.979 380.412 109.979C376.384 109.979 376.337 110.065 376.337 117.358C376.337 124.396 376.165 124.755 372.6 125.165C368.876 125.592 368.863 125.633 368.472 137.474C368.088 149.085 368.003 149.355 364.735 149.355H361.392V306.177V463H408.264H455.136V251.188V39.3754H451.061C447.437 39.3754 446.985 39.8275 446.985 43.4487ZM1107.27 99.6061C1107.27 102.863 1106.88 108.362 1106.41 111.826C1105.66 117.301 1105.12 118.126 1102.33 118.126C1099.27 118.126 1099.12 118.552 1099.12 127.44C1099.12 132.565 1098.73 139.591 1098.26 143.055C1097.51 148.529 1096.97 149.355 1094.18 149.355C1091.04 149.355 1090.97 149.633 1090.97 161.575C1090.97 173.525 1090.9 173.795 1087.75 173.795C1085.09 173.795 1084.39 174.672 1083.69 178.886C1083.23 181.687 1082.84 186.88 1082.83 190.427L1082.82 196.877H1110.67H1138.52L1138.51 190.427C1138.5 186.88 1138.11 181.687 1137.65 178.886C1136.96 174.699 1136.24 173.795 1133.64 173.795C1130.58 173.795 1130.46 173.374 1130.08 161.235C1129.72 149.603 1129.48 148.646 1126.8 148.263C1123.36 147.774 1122.25 142.854 1122.23 127.97C1122.22 118.531 1122.08 118.126 1119.01 118.126C1116.21 118.126 1115.68 117.301 1114.93 111.826C1114.45 108.362 1114.07 102.863 1114.07 99.6061C1114.07 94.1967 1113.77 93.6862 1110.67 93.6862C1107.57 93.6862 1107.27 94.1967 1107.27 99.6061ZM0 192.125V243.041H74.0446H148.089V239.85C148.089 236.797 148.627 236.62 160.526 235.777C167.365 235.291 176.23 234.894 180.226 234.894C187.018 234.894 187.489 234.68 187.489 231.586C187.489 228.846 188.247 228.205 191.905 227.852C195.584 227.497 196.392 226.803 196.749 223.693C197.16 220.13 197.518 219.959 204.561 219.959C211.858 219.959 211.944 219.911 211.944 215.886C211.944 212.476 212.482 211.812 215.251 211.812C217.847 211.812 218.649 211.011 218.987 208.078C219.321 205.169 220.223 204.251 223.07 203.922C225.894 203.596 226.82 202.672 227.146 199.849C227.474 197.004 228.393 196.103 231.304 195.769C234.239 195.431 235.041 194.63 235.041 192.035C235.041 189.268 235.705 188.73 239.116 188.73C242.74 188.73 243.192 188.278 243.192 184.657C243.192 181.036 243.645 180.584 247.268 180.584C250.892 180.584 251.344 180.131 251.344 176.51C251.344 173.101 251.882 172.437 254.651 172.437C257.247 172.437 258.049 171.636 258.387 168.703C258.724 165.77 259.618 164.877 262.553 164.54C265.487 164.202 266.289 163.401 266.289 160.806C266.289 158.039 266.953 157.501 270.365 157.501C273.988 157.501 274.44 157.049 274.44 153.428C274.44 149.807 274.893 149.355 278.516 149.355C282.14 149.355 282.592 148.903 282.592 145.282V141.208H141.296H0V192.125ZM305.689 184.657C305.689 188.278 305.236 188.73 301.613 188.73C298.201 188.73 297.537 189.268 297.537 192.035C297.537 194.63 296.735 195.431 293.801 195.769C290.866 196.106 289.972 196.999 289.635 199.932C289.297 202.865 288.495 203.666 285.899 203.666C283.13 203.666 282.592 204.33 282.592 207.739C282.592 211.36 282.14 211.812 278.516 211.812C274.893 211.812 274.44 212.264 274.44 215.886C274.44 219.507 273.988 219.959 270.365 219.959C266.741 219.959 266.289 220.411 266.289 224.032C266.289 227.653 265.836 228.106 262.213 228.106C258.772 228.106 258.137 228.634 258.137 231.5C258.137 234.216 257.458 234.894 254.74 234.894C251.872 234.894 251.344 235.529 251.344 238.968C251.344 242.589 250.892 243.041 247.268 243.041C243.645 243.041 243.192 243.493 243.192 247.114C243.192 250.736 242.74 251.188 239.116 251.188C235.088 251.188 235.041 251.273 235.041 258.566C235.041 265.605 234.869 265.963 231.304 266.373C227.768 266.779 227.546 267.219 227.161 274.609C226.79 281.728 226.479 282.416 223.635 282.416C220.579 282.416 220.499 282.786 219.627 300.961C218.484 324.763 218.464 448.412 219.601 456.7L220.465 463H267.153H313.84V321.792V180.584H309.764C306.141 180.584 305.689 181.036 305.689 184.657ZM0 353.021V423.625H3.30687C5.90319 423.625 6.70477 422.824 7.04307 419.891C7.37729 416.981 8.27941 416.063 11.1257 415.735C13.9503 415.409 14.8755 414.484 15.2016 411.661C15.5303 408.817 16.4488 407.915 19.3603 407.581C22.2949 407.243 23.0965 406.442 23.0965 403.847C23.0965 401.08 23.7608 400.543 27.1723 400.543C30.7957 400.543 31.2482 400.09 31.2482 396.469C31.2482 393.06 31.7862 392.396 34.555 392.396C37.1514 392.396 37.9529 391.595 38.2912 388.662C38.6255 385.752 39.5276 384.834 42.3739 384.506C45.1984 384.18 46.1237 383.255 46.4497 380.433C46.7785 377.588 47.6969 376.686 50.6084 376.352C53.5431 376.014 54.3446 375.213 54.3446 372.619C54.3446 369.851 55.009 369.314 58.4205 369.314C62.0439 369.314 62.4963 368.862 62.4963 365.24C62.4963 361.619 62.9488 361.167 66.5722 361.167C70.1956 361.167 70.648 360.715 70.648 357.094C70.648 353.684 71.186 353.021 73.9549 353.021C76.5512 353.021 77.3528 352.219 77.6911 349.287C78.0253 346.377 78.9274 345.459 81.7737 345.131C84.5983 344.805 85.5235 343.88 85.8496 341.057C86.1784 338.213 87.0968 337.311 90.0083 336.977C92.9429 336.639 93.7445 335.838 93.7445 333.243C93.7445 330.476 94.4089 329.938 97.8204 329.938C101.444 329.938 101.896 329.486 101.896 325.865C101.896 322.456 102.434 321.792 105.203 321.792C107.799 321.792 108.601 320.991 108.939 318.058C109.273 315.148 110.176 314.23 113.022 313.902C115.846 313.576 116.772 312.651 117.098 309.828C117.427 306.984 118.345 306.082 121.256 305.748C124.191 305.41 124.993 304.609 124.993 302.014C124.993 299.247 125.657 298.71 129.069 298.71C132.692 298.71 133.144 298.258 133.144 294.636C133.144 291.197 133.673 290.563 136.541 290.563C139.409 290.563 139.937 289.929 139.937 286.49V282.416H69.9687H0V353.021ZM164.393 325.865C164.393 329.486 163.94 329.938 160.317 329.938C156.905 329.938 156.241 330.476 156.241 333.243C156.241 335.838 155.439 336.639 152.505 336.977C149.57 337.314 148.676 338.207 148.339 341.14C148.001 344.073 147.199 344.874 144.603 344.874C141.834 344.874 141.296 345.538 141.296 348.947C141.296 352.568 140.844 353.021 137.22 353.021C133.597 353.021 133.144 353.473 133.144 357.094C133.144 360.715 132.692 361.167 129.069 361.167C125.445 361.167 124.993 361.619 124.993 365.24C124.993 368.862 124.54 369.314 120.917 369.314C117.505 369.314 116.841 369.851 116.841 372.619C116.841 375.213 116.039 376.014 113.105 376.352C110.17 376.689 109.276 377.583 108.939 380.515C108.601 383.448 107.799 384.249 105.203 384.249C102.434 384.249 101.896 384.913 101.896 388.323C101.896 391.944 101.444 392.396 97.8204 392.396C94.1969 392.396 93.7445 392.848 93.7445 396.469C93.7445 400.09 93.2921 400.543 89.6687 400.543C86.2572 400.543 85.5928 401.08 85.5928 403.847C85.5928 406.442 84.7912 407.243 81.8566 407.581C78.922 407.918 78.028 408.811 77.6911 411.744C77.3528 414.677 76.5512 415.478 73.9549 415.478C71.186 415.478 70.648 416.142 70.648 419.551C70.648 423.173 70.1956 423.625 66.5722 423.625C62.9488 423.625 62.4963 424.077 62.4963 427.698C62.4963 431.319 62.0439 431.771 58.4205 431.771C54.7971 431.771 54.3446 432.223 54.3446 435.845C54.3446 439.466 53.8922 439.918 50.2688 439.918C46.8573 439.918 46.1929 440.456 46.1929 443.223C46.1929 445.817 45.3914 446.618 42.4567 446.957C38.9203 447.363 38.6988 447.802 38.313 455.193L37.9054 463H104.368H170.83L171.672 457.908C172.135 455.109 172.521 423.337 172.529 387.304L172.544 321.792H168.468C164.845 321.792 164.393 322.244 164.393 325.865ZM620.548 368.893C613.315 369.407 612.736 369.695 612.736 372.776C612.736 375.542 612.071 376.103 608.793 376.103C604.986 376.103 604.819 376.381 603.905 384.249C603.042 391.683 602.673 392.396 599.696 392.396H596.432V412.084V431.771H599.696C602.673 431.771 603.042 432.484 603.905 439.918C604.768 447.352 605.137 448.065 608.114 448.065C610.667 448.065 611.377 448.786 611.377 451.373C611.377 454.113 612.135 454.754 615.793 455.107C619.472 455.462 620.28 456.155 620.638 459.266C621.048 462.829 621.406 463 628.45 463C635.338 463 635.832 462.781 635.832 459.739C635.832 456.764 636.546 456.394 643.984 455.532C651.422 454.67 652.136 454.301 652.136 451.326C652.136 448.753 652.852 448.065 655.532 448.065C658.778 448.065 658.929 447.702 658.929 439.918V431.771H651.546C644.503 431.771 644.144 431.942 643.734 435.505C643.397 438.438 642.503 439.331 639.568 439.668C636.634 440.006 635.832 440.807 635.832 443.402C635.832 446.169 635.168 446.707 631.756 446.707C628.315 446.707 627.681 446.179 627.681 443.312C627.681 440.446 627.046 439.918 623.605 439.918H619.529V412.031V384.143L631.417 384.536L643.305 384.928L643.712 392.735L644.12 400.543H651.524H658.929V388.323V376.103H654.853C651.412 376.103 650.777 375.574 650.777 372.708C650.777 369.674 650.221 369.314 645.533 369.314C642.647 369.314 637.604 369.094 634.324 368.825C631.043 368.558 624.845 368.587 620.548 368.893ZM862.721 372.708C862.721 375.424 862.042 376.103 859.325 376.103C856.222 376.103 855.928 376.613 855.928 382.023C855.928 385.28 855.54 390.779 855.064 394.242C854.313 399.717 853.779 400.543 850.988 400.543C847.863 400.543 847.776 400.855 847.776 412.084C847.776 423.319 847.691 423.625 844.558 423.625C841.894 423.625 841.194 424.502 840.497 428.716C840.034 431.517 839.648 437.016 839.64 440.936C839.626 447.63 839.418 448.065 836.228 448.065C833.56 448.065 832.832 448.756 832.832 451.285C832.832 453.979 833.698 454.644 838.125 455.352C841.035 455.817 846.232 455.812 849.673 455.341L855.928 454.484V447.201V439.918H870.805H885.683L886.606 448.065L887.527 456.211H894.824H902.121V443.991C902.121 432.05 902.048 431.771 898.909 431.771C896.119 431.771 895.585 430.946 894.833 425.471C894.358 422.008 893.969 416.509 893.969 413.251C893.969 407.868 893.666 407.331 890.627 407.331C887.38 407.331 887.275 407.016 886.891 396.13C886.501 385.03 886.463 384.924 882.761 384.499C879.196 384.089 879.025 383.731 879.025 376.692V369.314H870.873C863.084 369.314 862.721 369.465 862.721 372.708ZM1083.14 412.423L1083.5 455.532H1090.97H1098.44L1098.82 440.428L1099.21 425.323L1104.26 424.49C1107.04 424.031 1114.05 423.648 1119.84 423.64C1130.08 423.625 1130.37 423.535 1130.37 420.32C1130.37 417.725 1131.17 416.924 1134.1 416.586L1137.84 416.157V396.469V376.782L1134.1 376.352C1131.17 376.014 1130.37 375.213 1130.37 372.619V369.314H1106.57H1082.78L1083.14 412.423ZM1311.06 412.83V456.347L1318.88 455.94L1326.69 455.532L1327.05 412.423L1327.41 369.314H1319.24H1311.06V412.83ZM1506.71 376.782V384.249H1518.23H1529.76L1530.11 419.891L1530.48 455.532L1538.29 455.94L1546.1 456.347V420.298V384.249H1557.48H1568.85L1569.69 379.158C1571.46 368.429 1574.26 369.314 1538.63 369.314H1506.71V376.782ZM1774.35 376.692C1774.35 383.731 1774.18 384.089 1770.62 384.499C1766.89 384.927 1766.88 384.968 1766.49 396.809C1766.11 408.233 1765.97 408.689 1762.93 408.689C1759.16 408.689 1758.09 413.137 1758.06 428.716C1758.05 438.154 1757.91 438.56 1754.84 438.56C1751.96 438.56 1751.54 439.33 1750.74 446.12C1750.25 450.279 1750.21 454.251 1750.63 454.946C1751.07 455.642 1754.71 456.211 1758.73 456.211C1765.97 456.211 1766.04 456.177 1766.46 451.798C1766.81 448.122 1767.51 447.314 1770.62 446.957C1773.55 446.618 1774.35 445.817 1774.35 443.223C1774.35 439.98 1774.57 439.918 1785.9 439.918H1797.45V447.201V454.484L1803.7 455.341C1807.15 455.812 1812.34 455.817 1815.25 455.352C1819.68 454.644 1820.55 453.979 1820.55 451.285C1820.55 448.756 1819.81 448.065 1817.15 448.065C1813.78 448.065 1813.75 447.974 1813.75 435.845V423.625H1809.68H1805.6V411.405C1805.6 399.455 1805.53 399.185 1802.38 399.185C1798.56 399.185 1797.49 394.813 1797.46 379.158L1797.45 369.314H1785.9H1774.35V376.692ZM1994.45 412.795V456.275L2017.88 455.904L2041.32 455.532V451.459V447.386L2029.43 446.993C2017.82 446.61 2017.54 446.525 2017.54 443.259C2017.54 440.452 2016.89 439.918 2013.47 439.918H2009.39V404.616V369.314H2001.92H1994.45V412.795ZM1099.12 396.469V408.689H1110.67H1122.22V396.469V384.249H1110.67H1099.12V396.469ZM863.585 406.843C863.11 410.306 862.721 415.5 862.721 418.384V423.625H870.873H879.025V416.157C879.025 408.765 878.984 408.689 874.949 408.689C871.325 408.689 870.873 408.237 870.873 404.616C870.873 401.239 870.324 400.543 867.661 400.543C864.87 400.543 864.337 401.368 863.585 406.843ZM1781.88 408.01C1781.04 414.756 1780.63 415.478 1777.65 415.478C1774.9 415.478 1774.35 416.143 1774.35 419.551C1774.35 423.584 1774.43 423.625 1781.82 423.625H1789.3V412.084C1789.3 400.828 1789.22 400.543 1786.05 400.543C1783.14 400.543 1782.72 401.307 1781.88 408.01Z" fill="white"/>
</g>
<defs>
<clipPath id="clip0_4397_842">
<rect width="2042" height="463" fill="white"/>
</clipPath>
</defs>
</svg>
