<svg width="2196" height="728" viewBox="0 0 2196 728" fill="none" xmlns="http://www.w3.org/2000/svg">
<path fill-rule="evenodd" clip-rule="evenodd" d="M235.126 2.10501C235.126 4.26141 219.182 6.19827 201.258 6.21851C195.343 6.22473 193.083 6.82261 193.083 8.38113C193.083 9.92408 189.779 10.8427 181.405 11.6274C172.891 12.4246 169.726 13.3183 169.726 14.9235C169.726 16.4555 167.83 17.1266 163.498 17.1266C158.308 17.1266 157.269 17.6451 157.269 20.2405C157.269 22.7114 156.225 23.3591 152.209 23.3762C144.812 23.4074 140.141 24.9752 140.141 27.429C140.141 28.6886 138.525 29.5823 136.248 29.5823C133.394 29.5823 132.356 30.4121 132.356 32.6962C132.356 35.2169 131.317 35.8101 126.906 35.8101C122.494 35.8101 121.456 36.4033 121.456 38.924C121.456 41.2081 120.417 42.038 117.563 42.038C115.194 42.038 113.67 42.9254 113.67 44.3034C113.67 45.6579 111.482 46.9782 108.22 47.5901C104.276 48.3297 102.77 49.4258 102.77 51.5526C102.77 53.4552 101.671 54.4937 99.6559 54.4937C97.9431 54.4937 96.5417 55.4668 96.5417 56.6563C96.5417 57.8941 94.2138 59.2549 91.0917 59.8403C87.6505 60.4864 85.6418 61.7507 85.6418 63.2734C85.6418 64.5999 84.3058 66.0339 82.6708 66.4605C81.0374 66.8871 79.351 68.5733 78.9244 70.2065C78.4977 71.8413 77.1134 73.1772 75.8475 73.1772C74.5831 73.1772 73.1817 74.5785 72.7332 76.2911C72.2864 78.0038 70.8351 79.4051 69.5084 79.4051C67.9856 79.4051 66.7212 81.4135 66.075 84.8544C65.4895 87.9761 64.1286 90.3038 62.8907 90.3038C61.701 90.3038 60.7278 91.7051 60.7278 93.4177C60.7278 95.4931 59.6892 96.5316 57.6136 96.5316C55.5379 96.5316 54.4993 97.5701 54.4993 99.6456C54.4993 101.66 53.4607 102.759 51.5579 102.759C49.4309 102.759 48.3347 104.265 47.595 108.209C46.9831 111.471 45.6627 113.658 44.308 113.658C42.9299 113.658 42.0423 115.182 42.0423 117.551C42.0423 120.405 41.2124 121.443 38.9281 121.443C36.4274 121.443 35.8138 122.482 35.8138 126.71C35.8138 130.67 35.04 132.181 32.6996 132.793C30.3141 133.416 29.5854 134.917 29.5854 139.202C29.5854 142.912 28.8644 144.797 27.4443 144.797C25.3313 144.797 23.3569 151.198 23.3569 158.044C23.3569 160.252 22.1968 161.865 20.2426 162.376C17.5971 163.067 17.1284 164.499 17.1284 171.898C17.1284 178.232 16.5476 180.608 14.9967 180.608C12.6563 180.608 10.945 188.287 10.917 198.902C10.9045 203.738 10.2708 205.519 8.56418 205.519C6.54926 205.519 6.22849 210.968 6.22849 245.222C6.22849 279.475 6.54926 284.924 8.56418 284.924C10.1758 284.924 10.8999 286.542 10.8999 290.145C10.8999 302.482 12.9304 314.506 15.0138 314.506C16.3046 314.506 17.1284 316.25 17.1284 318.983C17.1284 326.714 18.9907 333.19 21.2158 333.19C22.6359 333.19 23.3569 335.075 23.3569 338.786C23.3569 343.07 24.0856 344.571 26.4711 345.194C28.9111 345.832 29.5854 347.318 29.5854 352.056C29.5854 357.063 30.1194 358.101 32.6996 358.101C35.2206 358.101 35.8138 359.14 35.8138 363.551C35.8138 367.962 36.4071 369 38.9281 369C41.5238 369 42.0423 370.038 42.0423 375.228C42.0423 380.417 42.5609 381.456 45.1566 381.456C47.2322 381.456 48.2708 382.494 48.2708 384.57C48.2708 386.282 49.2908 387.684 50.5364 387.684C51.8911 387.684 53.2116 389.871 53.8235 393.133C54.4464 396.451 55.7497 398.582 57.1542 398.582C58.4233 398.582 59.8294 399.984 60.2763 401.696C60.7247 403.409 62.1261 404.81 63.3905 404.81C64.6564 404.81 66.0579 406.211 66.5048 407.924C66.9532 409.637 68.2892 411.038 69.4742 411.038C70.6576 411.038 71.6277 412.505 71.6277 414.298C71.6277 416.248 72.8781 417.884 74.7419 418.371C76.4548 418.82 77.8562 420.156 77.8562 421.34C77.8562 422.524 79.2576 423.494 80.9704 423.494C83.0461 423.494 84.0847 424.532 84.0847 426.608C84.0847 428.683 85.1233 429.722 87.1989 429.722C89.2746 429.722 90.3132 430.76 90.3132 432.835C90.3132 434.958 91.3518 435.949 93.5738 435.949C95.5233 435.949 97.1598 437.2 97.6472 439.063C98.2592 441.403 99.7711 442.177 103.731 442.177C107.96 442.177 108.999 442.791 108.999 445.291C108.999 447.367 110.037 448.405 112.113 448.405C114.189 448.405 115.227 449.444 115.227 451.519C115.227 454.019 116.266 454.633 120.495 454.633C124.455 454.633 125.967 455.407 126.579 457.747C127.195 460.107 128.702 460.861 132.807 460.861C136.912 460.861 138.417 461.614 139.036 463.975C139.658 466.36 141.16 467.089 145.445 467.089C149.227 467.089 151.041 467.802 151.041 469.287C151.041 470.638 153.441 471.892 157.269 472.538C161.098 473.184 163.498 474.437 163.498 475.789C163.498 477.173 165.158 477.987 167.975 477.987C175.707 477.987 182.183 479.849 182.183 482.074C182.183 483.667 184.726 484.215 192.11 484.215C204.97 484.215 211.769 485.629 211.769 488.302C211.769 490.058 218.351 490.443 248.361 490.443C278.372 490.443 284.954 490.058 284.954 488.302C284.954 485.629 291.752 484.215 304.612 484.215C311.996 484.215 314.539 483.667 314.539 482.074C314.539 479.849 321.015 477.987 328.748 477.987C331.509 477.987 333.224 477.167 333.224 475.847C333.224 473.712 339.64 471.759 346.655 471.759C348.751 471.759 350.353 470.835 350.353 469.623C350.353 468.334 352.824 467.092 356.581 466.491C360.611 465.846 362.81 464.677 362.81 463.178C362.81 461.863 364.222 460.861 366.07 460.861C368.02 460.861 369.656 459.611 370.144 457.747C370.756 455.407 372.268 454.633 376.228 454.633C380.457 454.633 381.495 454.019 381.495 451.519C381.495 448.983 382.534 448.405 387.092 448.405C391.377 448.405 392.878 447.676 393.501 445.291C393.952 443.568 395.625 442.177 397.249 442.177C399.142 442.177 400.181 441.075 400.181 439.063C400.181 436.988 401.219 435.949 403.295 435.949C405.371 435.949 406.409 434.911 406.409 432.835C406.409 430.76 407.448 429.722 409.524 429.722C411.253 429.722 412.638 428.683 412.638 427.386C412.638 426.102 413.754 425.051 415.12 425.051C416.484 425.051 417.968 423.649 418.415 421.937C418.863 420.224 420.265 418.823 421.529 418.823C422.795 418.823 424.196 417.422 424.643 415.709C425.092 413.996 426.428 412.595 427.613 412.595C428.796 412.595 429.766 411.194 429.766 409.481C429.766 407.406 430.805 406.367 432.88 406.367C434.956 406.367 435.995 405.329 435.995 403.253C435.995 401.178 437.033 400.139 439.109 400.139C441.185 400.139 442.223 399.101 442.223 397.025C442.223 394.95 443.262 393.911 445.337 393.911C447.933 393.911 448.452 392.873 448.452 387.684C448.452 382.494 448.97 381.456 451.566 381.456C453.642 381.456 454.68 380.417 454.68 378.342C454.68 376.623 455.719 375.228 456.997 375.228C458.497 375.228 459.666 373.029 460.311 369C460.891 365.363 462.167 362.772 463.372 362.772C464.509 362.772 465.899 360.32 466.461 357.323C467.023 354.326 468.395 351.873 469.509 351.873C470.659 351.873 471.989 349.18 472.587 345.646C473.177 342.15 474.519 339.418 475.644 339.418C477.662 339.418 479.594 332.847 479.594 325.989C479.594 323.741 480.51 322.291 481.93 322.291C483.545 322.291 484.265 320.669 484.265 317.036C484.265 308.855 486.022 302.051 488.133 302.051C490.622 302.051 492.764 245.762 491.179 222.08L490.069 205.519L373.109 205.541C308.779 205.552 254.571 205.985 252.643 206.5L249.14 207.439V246.182V284.924H331.071H413.001L412.062 288.427C411.546 290.355 411.113 293.156 411.102 294.655C411.09 296.154 410.03 297.38 408.745 297.38C407.152 297.38 406.403 298.99 406.387 302.44C406.356 309.835 404.788 314.506 402.334 314.506C400.86 314.506 400.181 316.47 400.181 320.734C400.181 325.802 399.633 326.962 397.239 326.962C395.112 326.962 394.016 328.468 393.277 332.411C392.665 335.673 391.344 337.861 389.989 337.861C388.611 337.861 387.724 339.385 387.724 341.753C387.724 344.607 386.894 345.646 384.61 345.646C382.534 345.646 381.495 346.684 381.495 348.759C381.495 350.835 380.457 351.873 378.381 351.873C376.305 351.873 375.267 352.912 375.267 354.987C375.267 356.717 374.228 358.101 372.931 358.101C371.646 358.101 370.595 359.218 370.595 360.583C370.595 361.947 369.194 363.431 367.481 363.878C365.768 364.326 364.367 365.662 364.367 366.847C364.367 368.03 362.966 369 361.253 369C359.177 369 358.138 370.038 358.138 372.114C358.138 374.189 357.1 375.228 355.024 375.228C352.949 375.228 351.91 376.266 351.91 378.342C351.91 380.464 350.871 381.456 348.649 381.456C346.7 381.456 345.063 382.706 344.576 384.57C343.964 386.91 342.452 387.684 338.492 387.684C334.263 387.684 333.224 388.297 333.224 390.797C333.224 393.298 332.186 393.911 327.957 393.911C323.997 393.911 322.485 394.685 321.873 397.025C321.227 399.499 319.749 400.139 314.685 400.139C310.296 400.139 308.31 400.81 308.31 402.293C308.31 404.829 303.596 406.316 295.464 406.345C291.595 406.359 289.625 407.08 289.625 408.481C289.625 411.226 276.673 412.595 250.697 412.595C224.721 412.595 211.769 411.226 211.769 408.481C211.769 407.023 209.656 406.367 204.956 406.367C195.044 406.367 188.412 404.729 188.412 402.28C188.412 400.821 186.43 400.139 182.183 400.139C176.994 400.139 175.955 399.621 175.955 397.025C175.955 394.43 174.916 393.911 169.726 393.911C164.537 393.911 163.498 393.393 163.498 390.797C163.498 388.722 162.459 387.684 160.384 387.684C158.308 387.684 157.269 386.645 157.269 384.57C157.269 381.974 156.231 381.456 151.041 381.456C145.851 381.456 144.812 380.937 144.812 378.342C144.812 376.266 143.774 375.228 141.698 375.228C139.623 375.228 138.584 374.189 138.584 372.114C138.584 370.038 137.545 369 135.47 369C133.394 369 132.356 367.962 132.356 365.886C132.356 363.811 131.317 362.772 129.241 362.772C127.166 362.772 126.127 361.734 126.127 359.658C126.127 357.928 125.088 356.544 123.791 356.544C122.507 356.544 121.456 355.428 121.456 354.062C121.456 352.699 120.12 351.232 118.488 350.805C116.597 350.312 115.159 348.104 114.525 344.724C113.933 341.576 112.608 339.418 111.264 339.418C110.019 339.418 108.999 338.016 108.999 336.304C108.999 334.228 107.96 333.19 105.884 333.19C103.289 333.19 102.77 332.151 102.77 326.962C102.77 321.773 102.252 320.734 99.6559 320.734C97.0602 320.734 96.5417 319.696 96.5417 314.506C96.5417 309.317 96.0231 308.278 93.4274 308.278C90.69 308.278 90.3132 307.24 90.3132 299.715C90.3132 293.487 89.7292 291.152 88.1721 291.152C84.7387 291.152 84.0831 283.65 84.1065 244.638C84.1283 206.148 84.6188 200.848 88.1597 200.848C89.6747 200.848 90.3132 198.77 90.3132 193.842C90.3132 187.874 90.7741 186.835 93.4274 186.835C95.8986 186.835 96.5463 185.791 96.5635 181.775C96.5946 174.38 98.1626 169.709 100.617 169.709C101.8 169.709 102.77 168.389 102.77 166.777C102.77 165.153 104.161 163.481 105.884 163.029C108.27 162.407 108.999 160.906 108.999 156.621C108.999 152.064 109.576 151.025 112.113 151.025C114.189 151.025 115.227 149.987 115.227 147.911C115.227 146.182 116.266 144.797 117.563 144.797C118.847 144.797 119.899 143.681 119.899 142.316C119.899 140.952 121.235 139.485 122.866 139.059C124.732 138.571 126.192 136.374 126.798 133.148C127.418 129.843 128.857 127.727 130.837 127.21C132.528 126.768 133.913 125.289 133.913 123.925C133.913 122.559 135.029 121.443 136.395 121.443C137.759 121.443 139.243 120.042 139.69 118.329C140.302 115.989 141.813 115.215 145.773 115.215C150.002 115.215 151.041 114.602 151.041 112.101C151.041 110.026 152.08 108.987 154.155 108.987C156.231 108.987 157.269 107.949 157.269 105.873C157.269 103.278 158.308 102.759 163.498 102.759C168.688 102.759 169.726 102.241 169.726 99.6456C169.726 97.0501 170.765 96.5316 175.955 96.5316C181.145 96.5316 182.183 96.0132 182.183 93.4177C182.183 90.6806 183.222 90.3038 190.748 90.3038C198.273 90.3038 199.312 89.927 199.312 87.1899C199.312 84.3531 200.35 84.076 210.99 84.076C219.807 84.076 222.669 83.5559 222.669 81.9554C222.669 78.9769 242.388 77.3966 262.624 78.7511C274.655 79.5576 278.725 80.3673 278.725 81.9523C278.725 83.4734 281.045 84.0822 286.9 84.0977C297.258 84.1242 302.082 85.4118 302.082 88.1505C302.082 89.6327 304.067 90.3038 308.457 90.3038C313.521 90.3038 314.998 90.9437 315.645 93.4177C316.283 95.8575 317.768 96.5316 322.507 96.5316C326.759 96.5316 328.553 97.2043 328.553 98.797C328.553 100.152 330.741 101.472 334.003 102.084C337.947 102.823 339.453 103.919 339.453 106.046C339.453 108.369 340.597 108.987 344.903 108.987C349.314 108.987 350.353 109.581 350.353 112.101C350.353 114.385 351.391 115.215 354.246 115.215C357.1 115.215 358.138 116.045 358.138 118.329C358.138 120.042 359.109 121.443 360.292 121.443C361.477 121.443 362.813 122.844 363.261 124.557C363.708 126.27 365.192 127.671 366.556 127.671C367.922 127.671 369.038 128.722 369.038 130.006C369.038 132.029 375.18 132.342 414.973 132.342H460.909V126.746C460.909 122.461 460.18 120.96 457.794 120.338C455.454 119.726 454.68 118.214 454.68 114.255C454.68 110.026 454.067 108.987 451.566 108.987C449.554 108.987 448.452 107.949 448.452 106.056C448.452 104.432 447.061 102.759 445.337 102.308C443.103 101.724 442.223 100.184 442.223 96.8586C442.223 93.5329 441.343 91.9947 439.109 91.4092C437.245 90.9219 435.995 89.2855 435.995 87.3362C435.995 85.1144 435.003 84.076 432.88 84.076C430.805 84.076 429.766 83.0375 429.766 80.962C429.766 78.8866 428.728 77.8481 426.652 77.8481C424.576 77.8481 423.538 76.8096 423.538 74.7342C423.538 72.6587 422.499 71.6203 420.423 71.6203C418.693 71.6203 417.309 70.5818 417.309 69.2848C417.309 68.0003 416.193 66.9494 414.827 66.9494C413.463 66.9494 411.996 65.6135 411.57 63.9787C411.143 62.3454 409.457 60.6592 407.823 60.2326C406.188 59.806 404.852 58.3721 404.852 57.0455C404.852 55.5228 402.843 54.2586 399.402 53.6124C396.28 53.027 393.952 51.6662 393.952 50.4284C393.952 49.2389 392.551 48.2658 390.838 48.2658C388.762 48.2658 387.724 47.2273 387.724 45.1519C387.724 42.5564 386.685 42.038 381.495 42.038C376.305 42.038 375.267 41.5195 375.267 38.924C375.267 36.8486 374.228 35.8101 372.153 35.8101C370.44 35.8101 369.038 34.7903 369.038 33.5447C369.038 32.2011 366.88 30.8761 363.732 30.2845C360.351 29.6508 358.143 28.2121 357.65 26.322C357.045 24.013 355.459 23.3544 350.499 23.3544C346.11 23.3544 344.124 22.6834 344.124 21.2012C344.124 18.7474 339.453 17.1795 332.057 17.1484C328.819 17.1344 326.996 16.3574 326.996 14.992C326.996 13.5393 324.014 12.5211 317.653 11.8018C311.42 11.0965 308.31 10.0517 308.31 8.66294C308.31 7.06705 302.848 6.3166 284.954 5.44937C266.622 4.5619 261.597 3.85348 261.597 2.15951C261.597 0.487331 258.607 0 248.361 0C238.279 0 235.126 0.501344 235.126 2.10501ZM685.134 245.222V490.443H721.727H758.319V387.684V284.924H873.546H988.773V387.684V490.443H1027.7H1066.63V247.557C1066.63 5.70939 1066.62 4.67089 1063.52 4.67089C1061.79 4.67089 1060.4 3.63239 1060.4 2.33544C1060.4 0.326962 1055.38 0 1024.59 0H988.773V102.759V205.519H873.546H758.319L758.297 106.263C758.287 51.6725 757.854 5.42913 757.338 3.50316L756.399 0H720.766H685.134V245.222ZM1297.08 2.33544C1297.08 3.61994 1296.03 4.67089 1294.75 4.67089C1292.68 4.67089 1292.41 32.6962 1292.41 247.557V490.443H1331.34H1370.27V245.222V0H1333.68C1302.19 0 1297.08 0.325405 1297.08 2.33544ZM1600.72 245.222V490.443H1637.32H1673.91V311.392C1673.91 148.6 1674.13 132.342 1676.38 132.342C1677.75 132.342 1679.23 133.743 1679.68 135.456C1680.14 137.179 1681.8 138.57 1683.44 138.57C1685.32 138.57 1686.36 139.672 1686.36 141.684C1686.36 143.413 1687.41 144.797 1688.7 144.797C1689.99 144.797 1691.04 146.182 1691.04 147.911C1691.04 149.926 1692.08 151.025 1693.98 151.025C1696.08 151.025 1697.2 152.517 1697.9 156.303C1698.56 159.738 1699.97 161.862 1701.98 162.385C1703.8 162.863 1705.05 164.512 1705.05 166.449C1705.05 168.309 1706.05 169.709 1707.39 169.709C1708.66 169.709 1709.72 170.825 1709.72 172.191C1709.72 173.555 1711.12 175.038 1712.84 175.485C1714.56 175.937 1715.95 177.609 1715.95 179.233C1715.95 181.126 1717.06 182.165 1719.06 182.165C1721.59 182.165 1722.18 183.203 1722.18 187.614C1722.18 192.025 1722.77 193.063 1725.29 193.063C1727.36 193.063 1728.41 194.102 1728.41 196.177C1728.41 198.253 1729.45 199.291 1731.52 199.291C1733.59 199.291 1734.64 200.33 1734.64 202.405C1734.64 204.216 1735.68 205.519 1737.11 205.519C1738.48 205.519 1739.96 206.92 1740.41 208.633C1740.86 210.346 1742.14 211.747 1743.25 211.747C1744.38 211.747 1745.72 214.456 1746.31 217.975C1747.11 222.702 1748.09 224.203 1750.35 224.203C1752.28 224.203 1753.32 225.288 1753.32 227.316C1753.32 229.046 1754.36 230.43 1755.66 230.43C1756.95 230.43 1757.99 231.815 1757.99 233.544C1757.99 235.559 1759.04 236.658 1760.94 236.658C1763.07 236.658 1764.16 238.164 1764.89 242.108C1765.51 245.369 1766.84 247.557 1768.19 247.557C1769.44 247.557 1770.45 248.958 1770.45 250.671C1770.45 252.746 1771.49 253.785 1773.56 253.785C1775.63 253.785 1776.68 254.823 1776.68 256.899C1776.68 258.974 1777.72 260.013 1779.79 260.013C1782.08 260.013 1782.91 261.051 1782.91 263.905C1782.91 266.273 1783.79 267.797 1785.16 267.797C1786.52 267.797 1787.84 269.985 1788.47 273.247C1789.2 277.191 1790.29 278.696 1792.42 278.696C1794.32 278.696 1795.36 279.795 1795.36 281.81C1795.36 283.886 1796.41 284.924 1798.48 284.924C1800.55 284.924 1801.59 285.963 1801.59 288.038C1801.59 289.751 1802.6 291.152 1803.85 291.152C1805.2 291.152 1806.53 293.31 1807.12 296.458C1807.76 299.838 1809.19 302.046 1811.07 302.54C1812.71 302.966 1814.05 304.433 1814.05 305.797C1814.05 307.162 1815.11 308.278 1816.38 308.278C1817.68 308.278 1818.72 309.663 1818.72 311.392C1818.72 313.468 1819.76 314.506 1821.83 314.506C1823.91 314.506 1824.95 315.545 1824.95 317.62C1824.95 319.696 1825.99 320.734 1828.06 320.734C1830.6 320.734 1831.18 321.773 1831.18 326.33C1831.18 330.615 1831.91 332.116 1834.29 332.738C1836.02 333.19 1837.41 334.862 1837.41 336.486C1837.41 338.379 1838.51 339.418 1840.52 339.418C1842.59 339.418 1843.63 340.456 1843.63 342.532C1843.63 344.607 1844.68 345.646 1846.75 345.646C1848.82 345.646 1849.86 346.684 1849.86 348.759C1849.86 350.472 1850.88 351.873 1852.12 351.873C1853.48 351.873 1854.8 354.031 1855.39 357.18C1856.03 360.56 1857.46 362.767 1859.35 363.261C1860.98 363.688 1862.32 365.154 1862.32 366.518C1862.32 367.884 1863.38 369 1864.66 369C1865.95 369 1866.99 370.384 1866.99 372.114C1866.99 374.143 1868.03 375.228 1869.97 375.228C1872.22 375.228 1873.2 376.729 1874 381.456C1874.64 385.284 1875.9 387.684 1877.25 387.684C1878.47 387.684 1879.45 389.085 1879.45 390.797C1879.45 392.873 1880.49 393.911 1882.56 393.911C1884.63 393.911 1885.68 394.95 1885.68 397.025C1885.68 399.101 1886.72 400.139 1888.79 400.139C1890.86 400.139 1891.91 401.178 1891.91 403.253C1891.91 405.329 1892.95 406.367 1895.02 406.367C1897.54 406.367 1898.13 407.406 1898.13 411.816C1898.13 415.765 1898.82 417.266 1900.61 417.266C1901.98 417.266 1903.46 418.667 1903.91 420.38C1904.36 422.092 1905.76 423.494 1907.02 423.494C1908.29 423.494 1909.69 424.895 1910.14 426.608C1910.59 428.32 1911.87 429.722 1912.97 429.722C1914.11 429.722 1915.45 432.431 1916.04 435.949C1916.83 440.676 1917.82 442.177 1920.07 442.177C1922 442.177 1923.05 443.262 1923.05 445.291C1923.05 447.004 1924.01 448.405 1925.2 448.405C1926.38 448.405 1927.72 449.806 1928.17 451.519C1928.62 453.232 1930.1 454.633 1931.47 454.633C1932.9 454.633 1933.95 455.936 1933.95 457.747C1933.95 459.762 1934.99 460.861 1936.89 460.861C1939.02 460.861 1940.11 462.366 1940.85 466.31C1941.47 469.572 1942.79 471.759 1944.15 471.759C1945.39 471.759 1946.4 473.161 1946.4 474.873C1946.4 476.949 1947.45 477.987 1949.52 477.987C1951.59 477.987 1952.63 479.026 1952.63 481.101C1952.63 482.912 1953.68 484.215 1955.11 484.215C1956.48 484.215 1957.96 485.616 1958.41 487.329C1959.2 490.359 1960.53 490.443 2007.32 490.443C2054.36 490.443 2055.4 490.376 2055.4 487.329C2055.4 485.254 2054.36 484.215 2052.29 484.215C2050.22 484.215 2049.17 483.177 2049.17 481.101C2049.17 479.389 2048.21 477.987 2047.03 477.987C2045.84 477.987 2044.5 476.586 2044.05 474.873C2043.6 473.161 2042.15 471.759 2040.83 471.759C2039.3 471.759 2038.04 469.751 2037.39 466.31C2036.81 463.188 2035.44 460.861 2034.21 460.861C2033.03 460.861 2032.05 459.46 2032.05 457.747C2032.05 455.671 2031 454.633 2028.93 454.633C2026.86 454.633 2025.82 453.594 2025.82 451.519C2025.82 449.49 2024.77 448.405 2022.84 448.405C2020.59 448.405 2019.6 446.904 2018.81 442.177C2018.17 438.349 2016.91 435.949 2015.56 435.949C2014.34 435.949 2013.36 434.548 2013.36 432.835C2013.36 430.76 2012.32 429.722 2010.25 429.722C2008.18 429.722 2007.13 428.683 2007.13 426.608C2007.13 424.532 2006.09 423.494 2004.02 423.494C2001.95 423.494 2000.9 422.455 2000.9 420.38C2000.9 418.667 1999.89 417.266 1998.65 417.266C1997.29 417.266 1995.97 415.078 1995.35 411.816C1994.72 408.499 1993.43 406.367 1992.03 406.367C1990.75 406.367 1989.35 404.966 1988.9 403.253C1988.45 401.54 1987.11 400.139 1985.92 400.139C1984.74 400.139 1983.78 398.738 1983.78 397.025C1983.78 395.011 1982.73 393.911 1980.83 393.911C1978.7 393.911 1977.61 392.406 1976.88 388.462C1976.25 385.2 1974.93 383.013 1973.58 383.013C1972.32 383.013 1971.32 381.568 1971.32 379.752C1971.32 377.803 1970.07 376.167 1968.2 375.679C1966.48 375.228 1965.09 373.556 1965.09 371.932C1965.09 370.038 1963.98 369 1961.98 369C1959.9 369 1958.86 367.962 1958.86 365.886C1958.86 363.811 1957.82 362.772 1955.75 362.772C1953.22 362.772 1952.63 361.734 1952.63 357.323C1952.63 352.912 1952.04 351.873 1949.52 351.873C1947.45 351.873 1946.4 350.835 1946.4 348.759C1946.4 346.684 1945.36 345.646 1943.29 345.646C1941.22 345.646 1940.18 344.607 1940.18 342.532C1940.18 340.802 1939.13 339.418 1937.84 339.418C1936.5 339.418 1935.5 338.018 1935.5 336.157C1935.5 334.221 1934.26 332.572 1932.44 332.094C1930.43 331.571 1929.01 329.447 1928.36 326.012C1927.66 322.226 1926.54 320.734 1924.43 320.734C1922.53 320.734 1921.49 319.635 1921.49 317.62C1921.49 315.89 1920.45 314.506 1919.15 314.506C1917.86 314.506 1916.82 313.122 1916.82 311.392C1916.82 309.378 1915.78 308.278 1913.88 308.278C1911.74 308.278 1910.65 306.773 1909.92 302.829C1909.3 299.567 1907.97 297.38 1906.62 297.38C1905.37 297.38 1904.36 295.978 1904.36 294.266C1904.36 292.19 1903.32 291.152 1901.25 291.152C1899.18 291.152 1898.13 290.113 1898.13 288.038C1898.13 285.963 1897.09 284.924 1895.02 284.924C1893.01 284.924 1891.91 283.886 1891.91 281.992C1891.91 280.368 1890.52 278.696 1888.79 278.245C1886.41 277.622 1885.68 276.121 1885.68 271.836C1885.68 267.279 1885.1 266.241 1882.56 266.241C1880.49 266.241 1879.45 265.202 1879.45 263.127C1879.45 261.051 1878.41 260.013 1876.33 260.013C1874.26 260.013 1873.22 258.974 1873.22 256.899C1873.22 255.169 1872.18 253.785 1870.88 253.785C1869.59 253.785 1868.55 252.401 1868.55 250.671C1868.55 248.656 1867.51 247.557 1865.61 247.557C1863.47 247.557 1862.38 246.051 1861.65 242.108C1861.03 238.846 1859.7 236.658 1858.35 236.658C1857.1 236.658 1856.09 235.257 1856.09 233.544C1856.09 231.469 1855.05 230.43 1852.98 230.43C1850.86 230.43 1849.86 229.392 1849.86 227.17C1849.86 225.221 1848.62 223.584 1846.75 223.097C1844.41 222.485 1843.63 220.973 1843.63 217.014C1843.63 212.785 1843.03 211.747 1840.52 211.747C1838.45 211.747 1837.41 210.708 1837.41 208.633C1837.41 206.557 1836.36 205.519 1834.29 205.519C1832.22 205.519 1831.18 204.48 1831.18 202.405C1831.18 200.692 1830.17 199.291 1828.92 199.291C1827.56 199.291 1826.24 197.133 1825.65 193.985C1825.01 190.605 1823.58 188.397 1821.69 187.904C1820.06 187.477 1818.72 186.093 1818.72 184.827C1818.72 183.563 1817.32 182.161 1815.61 181.713C1813.89 181.266 1812.49 179.782 1812.49 178.419C1812.49 177.053 1811.43 175.937 1810.16 175.937C1808.86 175.937 1807.82 174.553 1807.82 172.823C1807.82 170.794 1806.78 169.709 1804.85 169.709C1802.59 169.709 1801.61 168.208 1800.81 163.481C1800.18 159.652 1798.91 157.253 1797.56 157.253C1796.34 157.253 1795.36 155.852 1795.36 154.139C1795.36 152.064 1794.32 151.025 1792.25 151.025C1790.18 151.025 1789.14 149.987 1789.14 147.911C1789.14 145.836 1788.09 144.797 1786.02 144.797C1783.95 144.797 1782.91 143.759 1782.91 141.684C1782.91 139.608 1781.86 138.57 1779.79 138.57C1777.27 138.57 1776.68 137.531 1776.68 133.12C1776.68 128.709 1776.09 127.671 1773.56 127.671C1771.56 127.671 1770.45 126.632 1770.45 124.739C1770.45 123.115 1769.06 121.443 1767.34 120.992C1765.47 120.504 1764.22 118.868 1764.22 116.919C1764.22 115.103 1763.22 113.658 1761.96 113.658C1760.61 113.658 1759.29 111.471 1758.66 108.209C1757.93 104.265 1756.84 102.759 1754.71 102.759C1752.81 102.759 1751.76 101.66 1751.76 99.6456C1751.76 97.9158 1750.72 96.5316 1749.43 96.5316C1748.14 96.5316 1747.09 95.1475 1747.09 93.4177C1747.09 91.3423 1746.05 90.3038 1743.98 90.3038C1741.91 90.3038 1740.86 89.2653 1740.86 87.1899C1740.86 85.1752 1739.82 84.076 1737.92 84.076C1735.79 84.076 1734.7 82.5704 1733.97 78.6266C1733.34 75.3647 1732.02 73.1772 1730.67 73.1772C1729.4 73.1772 1728.41 71.7324 1728.41 69.9169C1728.41 67.9676 1727.16 66.3313 1725.29 65.8439C1723.56 65.3924 1722.18 63.7202 1722.18 62.0963C1722.18 60.2031 1721.07 59.1646 1719.06 59.1646C1716.99 59.1646 1715.95 58.1261 1715.95 56.0506C1715.95 54.338 1714.94 52.9367 1713.69 52.9367C1712.34 52.9367 1711.01 50.7492 1710.39 47.4873C1709.66 43.5436 1708.57 42.038 1706.44 42.038C1704.54 42.038 1703.49 40.9388 1703.49 38.924C1703.49 36.8486 1702.45 35.8101 1700.38 35.8101C1698.31 35.8101 1697.26 34.7716 1697.26 32.6962C1697.26 30.9835 1696.28 29.5823 1695.1 29.5823C1693.87 29.5823 1692.5 27.2546 1691.92 24.1329C1691.3 20.8711 1689.98 18.6835 1688.62 18.6835C1687.38 18.6835 1686.36 17.2823 1686.36 15.5696C1686.36 13.4942 1685.32 12.4557 1683.25 12.4557C1681.13 12.4557 1680.14 11.4172 1680.14 9.19541C1680.14 7.2461 1678.89 5.60974 1677.02 5.12241C1675.31 4.674 1673.91 3.33813 1673.91 2.15328C1673.91 0.381455 1667.43 0 1637.32 0H1600.72V245.222ZM1686.36 571.989C1686.36 574.5 1679.68 576.076 1669.05 576.076C1663.63 576.076 1661.45 576.693 1661.45 578.217C1661.45 580.442 1654.97 582.304 1647.25 582.304C1644.43 582.304 1642.77 583.118 1642.77 584.502C1642.77 585.854 1640.37 587.107 1636.54 587.753C1632.71 588.399 1630.31 589.653 1630.31 591.004C1630.31 592.281 1628.75 593.203 1626.6 593.203C1619.6 593.203 1613.18 595.155 1613.18 597.29C1613.18 598.467 1611.78 599.43 1610.07 599.43C1607.99 599.43 1606.95 600.469 1606.95 602.544C1606.95 604.62 1605.91 605.658 1603.84 605.658C1600.8 605.658 1600.72 606.697 1600.72 648.475C1600.72 690.253 1600.8 691.291 1603.84 691.291C1605.91 691.291 1606.95 690.253 1606.95 688.177C1606.95 686.102 1607.99 685.063 1610.07 685.063C1612.14 685.063 1613.18 684.025 1613.18 681.949C1613.18 679.429 1614.22 678.835 1618.63 678.835C1623.04 678.835 1624.08 678.242 1624.08 675.721C1624.08 673.437 1625.12 672.608 1627.97 672.608C1630.39 672.608 1631.87 671.725 1631.87 670.291C1631.87 668.791 1634.06 667.622 1638.09 666.978C1641.82 666.381 1644.32 665.131 1644.32 663.864C1644.32 662.596 1646.83 661.346 1650.55 660.75C1653.98 660.202 1656.78 658.875 1656.78 657.799C1656.78 655.528 1661.64 653.975 1668.85 653.946C1672.16 653.932 1673.91 653.164 1673.91 651.721C1673.91 650.116 1677.07 649.222 1685.59 648.425C1693.4 647.692 1697.26 646.678 1697.26 645.355C1697.26 642.602 1740.15 640.78 1770.43 642.247C1788.78 643.134 1793.81 643.843 1793.81 645.537C1793.81 646.851 1795.49 647.702 1798.09 647.713C1806.56 647.748 1814.05 649.661 1814.05 651.793C1814.05 652.998 1815.65 653.924 1817.76 653.924C1824.76 653.924 1831.18 655.876 1831.18 658.011C1831.18 659.471 1833.16 660.152 1837.41 660.152C1842.59 660.152 1843.63 660.67 1843.63 663.266C1843.63 665.802 1844.68 666.38 1849.22 666.38C1853.52 666.38 1855.02 667.108 1855.64 669.494C1856.09 671.217 1857.76 672.608 1859.39 672.608C1861.28 672.608 1862.32 673.71 1862.32 675.721C1862.32 678.242 1863.36 678.835 1867.77 678.835C1872.18 678.835 1873.22 679.429 1873.22 681.949C1873.22 684.545 1874.26 685.063 1879.45 685.063C1884.63 685.063 1885.68 685.582 1885.68 688.177C1885.68 690.773 1886.72 691.291 1891.91 691.291C1897.09 691.291 1898.13 691.81 1898.13 694.405C1898.13 696.48 1899.18 697.519 1901.25 697.519C1902.96 697.519 1904.36 698.48 1904.36 699.654C1904.36 701.106 1907.34 702.125 1913.7 702.844C1920.34 703.596 1923.05 704.555 1923.05 706.16C1923.05 707.499 1924.56 708.418 1926.75 708.418C1933.76 708.418 1940.18 710.37 1940.18 712.505C1940.18 713.982 1942.23 714.65 1946.79 714.663C1957.41 714.691 1965.09 716.402 1965.09 718.742C1965.09 720.349 1967.86 720.875 1976.38 720.883C1997.15 720.9 2013.36 722.703 2013.36 724.996C2013.36 726.578 2016.26 727.101 2025.04 727.101C2033.82 727.101 2036.72 726.58 2036.72 724.992C2036.72 722.486 2050.39 720.901 2072.14 720.884C2083.32 720.877 2086.55 720.394 2086.55 718.733C2086.55 716.284 2093.18 714.646 2103.08 714.646C2107.83 714.646 2109.9 713.995 2109.9 712.505C2109.9 710.28 2116.38 708.418 2124.1 708.418C2126.92 708.418 2128.59 707.603 2128.59 706.219C2128.59 704.868 2130.99 703.615 2134.82 702.968C2138.41 702.36 2141.04 701.047 2141.04 699.854C2141.04 698.662 2143.68 697.349 2147.27 696.74C2151.1 696.094 2153.5 694.841 2153.5 693.49C2153.5 692.015 2155.29 691.291 2158.95 691.291C2163.36 691.291 2164.4 690.698 2164.4 688.177C2164.4 685.582 2165.45 685.063 2170.63 685.063C2175.82 685.063 2176.86 684.545 2176.86 681.949C2176.86 679.874 2177.9 678.835 2179.97 678.835C2182.04 678.835 2183.09 677.797 2183.09 675.721C2183.09 673.126 2184.13 672.608 2189.32 672.608C2194.5 672.608 2195.54 672.089 2195.54 669.494C2195.54 667.418 2194.5 666.38 2192.43 666.38C2189.91 666.38 2189.32 665.341 2189.32 660.93C2189.32 656.52 2188.72 655.481 2186.2 655.481C2184.19 655.481 2183.09 654.443 2183.09 652.549C2183.09 650.925 2181.7 649.253 2179.97 648.802C2178.1 648.314 2176.86 646.678 2176.86 644.729C2176.86 642.507 2175.86 641.468 2173.74 641.468C2171.67 641.468 2170.63 640.43 2170.63 638.354C2170.63 636.642 2169.62 635.24 2168.37 635.24C2167.02 635.24 2165.69 633.083 2165.1 629.934C2164.46 626.554 2163.03 624.346 2161.15 623.853C2159.51 623.426 2158.17 621.96 2158.17 620.596C2158.17 619.23 2157.21 618.114 2156.02 618.114C2154.84 618.114 2153.5 616.713 2153.05 615C2152.6 613.287 2151.12 611.886 2149.75 611.886C2148.32 611.886 2147.27 613.189 2147.27 615C2147.27 617.595 2146.23 618.114 2141.04 618.114C2135.86 618.114 2134.82 618.632 2134.82 621.228C2134.82 623.728 2133.77 624.342 2129.55 624.342C2125.58 624.342 2124.07 625.116 2123.47 627.456C2122.84 629.816 2121.35 630.57 2117.24 630.57C2113.13 630.57 2111.63 631.323 2111.01 633.684C2110.35 636.158 2108.89 636.797 2103.81 636.797C2099.45 636.797 2097.45 637.47 2097.45 638.938C2097.45 641.387 2090.81 643.025 2080.91 643.025C2076.21 643.025 2074.09 643.681 2074.09 645.14C2074.09 647.609 2061.55 649.253 2042.71 649.253C2032.89 649.253 2030.49 649.711 2030.49 651.589C2030.49 653.22 2028.84 653.924 2025.04 653.924C2021.24 653.924 2019.59 653.22 2019.59 651.589C2019.59 649.728 2017.3 649.252 2008.3 649.244C1987.53 649.227 1971.32 647.424 1971.32 645.13C1971.32 643.85 1969.56 643.025 1966.83 643.025C1959.11 643.025 1952.63 641.163 1952.63 638.938C1952.63 637.565 1950.81 636.79 1947.57 636.776C1940.36 636.746 1935.5 635.194 1935.5 632.922C1935.5 631.846 1932.7 630.52 1929.28 629.972C1925.24 629.327 1923.05 628.158 1923.05 626.659C1923.05 625.225 1921.57 624.342 1919.15 624.342C1916.31 624.342 1915.26 623.512 1915.26 621.228C1915.26 618.707 1914.22 618.114 1909.81 618.114C1905.41 618.114 1904.36 617.521 1904.36 615C1904.36 612.405 1903.32 611.886 1898.13 611.886C1892.95 611.886 1891.91 611.368 1891.91 608.772C1891.91 606.697 1890.86 605.658 1888.79 605.658C1887.08 605.658 1885.68 604.62 1885.68 603.341C1885.68 601.842 1883.48 600.673 1879.45 600.028C1875.73 599.432 1873.22 598.182 1873.22 596.914C1873.22 595.647 1870.71 594.397 1866.99 593.8C1863.24 593.199 1860.76 591.957 1860.76 590.668C1860.76 589.456 1859.16 588.532 1857.06 588.532C1850.05 588.532 1843.63 586.579 1843.63 584.445C1843.63 583.124 1841.92 582.304 1839.15 582.304C1831.43 582.304 1824.95 580.442 1824.95 578.217C1824.95 576.675 1822.66 576.07 1816.77 576.054C1806.42 576.028 1801.59 574.74 1801.59 572.001C1801.59 570.206 1792 569.848 1743.98 569.848C1696.13 569.848 1686.36 570.211 1686.36 571.989ZM115.227 615C115.227 617.595 114.189 618.114 108.999 618.114H102.77V632.768V647.422L108.999 648.475C112.828 649.121 115.227 650.374 115.227 651.726C115.227 653.11 116.887 653.924 119.704 653.924C127.437 653.924 133.913 655.786 133.913 658.011C133.913 659.188 135.314 660.152 137.027 660.152C140.4 660.152 141.068 664.469 139.168 673.97L138.195 678.835H123.597C110.037 678.835 108.999 678.614 108.999 675.721C108.999 673.126 107.96 672.608 102.77 672.608C97.5803 672.608 96.5417 673.126 96.5417 675.721C96.5417 678.222 97.5803 678.835 101.809 678.835C105.769 678.835 107.281 679.609 107.893 681.949C108.648 684.838 110.017 685.063 126.759 685.063C143.774 685.063 144.812 684.884 144.812 681.949C144.812 679.874 145.851 678.835 147.927 678.835C150.761 678.835 151.041 677.797 151.041 667.331V655.828L145.591 654.805C142.594 654.243 140.141 652.851 140.141 651.713C140.141 649.551 133.584 647.696 125.932 647.696C123.116 647.696 121.456 646.882 121.456 645.498C121.456 644.146 119.056 642.893 115.227 642.247L108.999 641.194V632.768V624.342H124.57C137.373 624.342 140.141 624.757 140.141 626.677C140.141 627.962 141.192 629.013 142.477 629.013C144.109 629.013 144.812 627.369 144.812 623.563C144.812 618.41 144.528 618.114 139.545 618.114C135.585 618.114 134.073 617.34 133.461 615C132.77 612.355 131.337 611.886 123.938 611.886C116.266 611.886 115.227 612.257 115.227 615ZM197.365 612.959C195.866 613.351 194.64 614.671 194.64 615.892C194.64 617.223 193.08 618.114 190.748 618.114C188.325 618.114 186.855 618.997 186.855 620.449C186.855 621.734 185.883 622.785 184.695 622.785C182.046 622.785 180.868 629.878 181.838 639.975C182.543 647.318 182.694 647.509 188.6 648.506C192.283 649.129 194.64 650.385 194.64 651.726C194.64 653.284 196.624 653.924 201.453 653.924C211.366 653.924 217.997 655.562 217.997 658.011C217.997 659.188 219.399 660.152 221.112 660.152C223.707 660.152 224.226 661.19 224.226 666.38C224.226 671.569 223.707 672.608 221.112 672.608C219.036 672.608 217.997 673.646 217.997 675.721C217.997 678.575 216.959 678.835 205.54 678.835C194.122 678.835 193.083 678.575 193.083 675.721C193.083 673.126 192.045 672.608 186.855 672.608C181.665 672.608 180.626 673.126 180.626 675.721C180.626 677.797 181.665 678.835 183.741 678.835C185.816 678.835 186.855 679.874 186.855 681.949C186.855 684.89 187.893 685.063 205.54 685.063C223.187 685.063 224.226 684.89 224.226 681.949C224.226 679.874 225.264 678.835 227.34 678.835C230.18 678.835 230.454 677.797 230.454 667.012C230.454 656.499 230.109 655.1 227.34 654.376C225.627 653.927 224.226 652.678 224.226 651.601C224.226 649.535 217.533 647.696 210.017 647.696C207.076 647.696 205.54 646.896 205.54 645.361C205.54 643.718 203.88 643.025 199.944 643.025C195.659 643.025 194.158 642.297 193.535 639.911C193.086 638.199 191.75 636.797 190.565 636.797C189.306 636.797 188.412 635.181 188.412 632.905C188.412 630.482 189.295 629.013 190.748 629.013C192.032 629.013 193.083 627.962 193.083 626.677C193.083 624.757 195.852 624.342 208.655 624.342C223.187 624.342 224.226 624.135 224.226 621.228C224.226 619.152 223.187 618.114 221.112 618.114C219.399 618.114 217.997 617.15 217.997 615.973C217.997 612.705 205.388 610.863 197.365 612.959ZM605.721 615C605.721 617.075 604.682 618.114 602.607 618.114C600.011 618.114 599.493 619.152 599.493 624.342C599.493 628.667 598.822 630.57 597.294 630.57C595.942 630.57 594.689 632.969 594.043 636.797C593.396 640.626 592.143 643.025 590.791 643.025C589.306 643.025 588.593 644.839 588.593 648.621C588.593 652.906 587.864 654.407 585.479 655.029C583.118 655.648 582.364 657.153 582.364 661.257C582.364 665.361 581.611 666.869 579.25 667.485C577.296 667.996 576.136 669.609 576.136 671.817C576.136 673.75 575.698 677.521 575.163 680.198C574.27 684.658 574.529 685.063 578.277 685.063C582.008 685.063 582.364 684.52 582.364 678.835C582.364 673.646 582.883 672.608 585.479 672.608C587.554 672.608 588.593 671.569 588.593 669.494C588.593 666.56 589.631 666.38 606.5 666.38C623.368 666.38 624.407 666.56 624.407 669.494C624.407 671.569 625.445 672.608 627.521 672.608C630.117 672.608 630.635 673.646 630.635 678.835V685.063H636.864C642.053 685.063 643.092 684.545 643.092 681.949C643.092 679.874 642.053 678.835 639.978 678.835C637.507 678.835 636.859 677.791 636.842 673.775C636.811 666.38 635.243 661.709 632.789 661.709C631.314 661.709 630.635 659.746 630.635 655.481C630.635 650.292 630.117 649.253 627.521 649.253C624.941 649.253 624.407 648.215 624.407 643.207C624.407 638.47 623.732 636.984 621.292 636.346C618.932 635.729 618.178 634.222 618.178 630.118C618.178 626.014 617.424 624.508 615.064 623.89C612.678 623.267 611.95 621.767 611.95 617.482C611.95 612.925 611.372 611.886 608.835 611.886C606.76 611.886 605.721 612.925 605.721 615ZM794.133 618.114C794.133 623.303 793.615 624.342 791.019 624.342C788.423 624.342 787.905 625.38 787.905 630.57C787.905 635.759 787.386 636.797 784.79 636.797C782.195 636.797 781.676 637.836 781.676 643.025C781.676 647.29 780.997 649.253 779.523 649.253C777.069 649.253 775.5 653.924 775.469 661.32C775.455 664.63 774.688 666.38 773.249 666.38C771.897 666.38 770.644 668.779 769.998 672.608C769.351 676.436 768.098 678.835 766.746 678.835C765.536 678.835 764.548 680.237 764.548 681.949C764.548 684.47 765.586 685.063 769.998 685.063C775.318 685.063 775.448 684.915 775.448 678.835C775.448 673.646 775.966 672.608 778.562 672.608C780.637 672.608 781.676 671.569 781.676 669.494C781.676 666.553 782.715 666.38 800.362 666.38C818.008 666.38 819.047 666.553 819.047 669.494C819.047 671.223 820.086 672.608 821.383 672.608C823.007 672.608 823.718 674.241 823.718 677.965C823.718 684.336 825.335 685.639 831.541 684.277C836.717 683.14 837.918 678.835 833.061 678.835C830.465 678.835 829.947 677.797 829.947 672.608C829.947 668.282 829.276 666.38 827.748 666.38C826.397 666.38 825.143 663.98 824.497 660.152C823.851 656.323 822.597 653.924 821.246 653.924C819.76 653.924 819.047 652.11 819.047 648.328C819.047 644.044 818.318 642.543 815.933 641.92C813.572 641.302 812.819 639.796 812.819 635.692C812.819 631.588 812.065 630.081 809.704 629.464C807.364 628.852 806.59 627.34 806.59 623.381C806.59 619.152 805.977 618.114 803.476 618.114C801.4 618.114 800.362 617.075 800.362 615C800.362 612.925 799.323 611.886 797.247 611.886C794.652 611.886 794.133 612.925 794.133 618.114ZM888.728 612.959C887.23 613.351 886.003 614.671 886.003 615.892C886.003 617.446 884.132 618.114 879.775 618.114C874.585 618.114 873.546 618.632 873.546 621.228C873.546 623.303 872.508 624.342 870.432 624.342C867.896 624.342 867.318 625.38 867.318 629.938C867.318 634.222 866.589 635.723 864.204 636.346C861.368 637.087 861.089 638.47 861.089 651.771C861.089 665.341 861.31 666.38 864.204 666.38C866.279 666.38 867.318 667.418 867.318 669.494C867.318 671.223 868.357 672.608 869.654 672.608C870.951 672.608 871.989 673.992 871.989 675.721C871.989 677.797 873.028 678.835 875.104 678.835C877.179 678.835 878.218 679.874 878.218 681.949C878.218 684.88 879.249 685.062 895.735 685.042C915.179 685.018 920.26 684.179 920.26 680.989C920.26 679.729 921.876 678.835 924.153 678.835C928.03 678.835 928.046 678.778 928.046 664.139V649.445L921.428 648.464C917.789 647.925 910.962 647.706 906.26 647.98C899.594 648.366 897.596 649.076 897.193 651.199C896.746 653.552 897.965 653.924 906.132 653.924H915.589V666.38V678.835H900.017C885.485 678.835 884.446 678.628 884.446 675.721C884.446 673.646 883.408 672.608 881.332 672.608C879.256 672.608 878.218 671.569 878.218 669.494C878.218 667.781 877.229 666.38 876.019 666.38C872.878 666.38 871.517 656.13 872.816 642.262C873.757 632.239 874.331 630.57 876.843 630.57C878.736 630.57 879.775 629.467 879.775 627.456C879.775 624.522 880.813 624.342 897.682 624.342C914.762 624.342 915.589 624.491 915.589 627.569C915.589 629.804 916.428 630.638 918.314 630.282C920.218 629.92 921.183 628.012 921.521 623.94L922.006 618.114H915.682C910.399 618.114 909.36 617.603 909.36 615C909.36 612.225 908.382 611.906 900.407 612.067C895.482 612.166 890.226 612.568 888.728 612.959ZM35.8138 615.779C35.8138 617.075 34.4296 618.114 32.6996 618.114C30.624 618.114 29.5854 619.152 29.5854 621.228C29.5854 622.94 28.6215 624.342 27.4443 624.342C25.3313 624.342 23.3569 630.742 23.3569 637.588C23.3569 639.796 22.1968 641.409 20.2426 641.92C17.8571 642.543 17.1284 644.044 17.1284 648.328C17.1284 652.11 16.4152 653.924 14.9297 653.924C13.5781 653.924 12.3246 656.323 11.6784 660.152C11.0322 663.98 9.77873 666.38 8.42715 666.38C6.89961 666.38 6.22849 668.282 6.22849 672.608C6.22849 677.797 5.70997 678.835 3.11425 678.835C1.0386 678.835 0 679.874 0 681.949C0 684.455 1.0386 685.063 5.3129 685.063C10.2988 685.063 10.6912 684.679 11.6784 678.835C12.3246 675.007 13.5781 672.608 14.9297 672.608C16.1396 672.608 17.1284 671.206 17.1284 669.494C17.1284 666.553 18.167 666.38 35.8138 666.38C53.4607 666.38 54.4993 666.553 54.4993 669.494C54.4993 671.569 55.5379 672.608 57.6136 672.608C60.2093 672.608 60.7278 673.646 60.7278 678.835C60.7278 684.915 60.8571 685.063 66.1778 685.063C70.5891 685.063 71.6277 684.47 71.6277 681.949C71.6277 680.22 70.5891 678.835 69.292 678.835C67.6056 678.835 66.9563 677.106 66.9563 672.608C66.9563 667.418 66.4378 666.38 63.8421 666.38C61.3709 666.38 60.7232 665.335 60.706 661.32C60.6764 654.114 59.124 649.253 56.8521 649.253C55.7762 649.253 54.4495 646.455 53.9014 643.025C53.2567 638.996 52.0873 636.797 50.5878 636.797C48.9233 636.797 48.2708 635.046 48.2708 630.57C48.2708 625.38 47.7523 624.342 45.1566 624.342C42.6356 624.342 42.0423 623.303 42.0423 618.892C42.0423 614.482 41.4491 613.443 38.9281 613.443C37.1981 613.443 35.8138 614.482 35.8138 615.779ZM267.825 615.779C267.825 617.075 266.441 618.114 264.711 618.114C261.693 618.114 261.597 619.152 261.597 651.589V685.063H288.068C313.5 685.063 314.539 684.942 314.539 681.949C314.539 678.99 313.5 678.835 293.518 678.835H272.497V666.38V653.924H291.296C308.362 653.924 310.048 653.673 309.573 651.199C309.117 648.819 306.738 648.419 290.774 648.036L272.497 647.598V635.969V624.342H293.518H314.539V618.892V613.443H291.182C271.458 613.443 267.825 613.806 267.825 615.779ZM345.681 615.779C345.681 617.075 344.297 618.114 342.567 618.114C340.854 618.114 339.453 619.078 339.453 620.255C339.453 622.766 346.13 624.342 356.776 624.342H364.367V654.703V685.063H369.817H375.267V654.703V624.342L383.442 624.32C387.937 624.309 393.192 623.876 395.12 623.361C399.46 622.198 399.762 618.114 395.509 618.114C393.779 618.114 392.395 617.075 392.395 615.779C392.395 613.806 388.762 613.443 369.038 613.443C349.314 613.443 345.681 613.806 345.681 615.779ZM534.093 615.779C534.093 617.063 532.754 618.114 531.116 618.114C528.855 618.114 527.885 619.615 527.086 624.342C526.44 628.17 525.187 630.57 523.835 630.57C522.625 630.57 521.636 631.971 521.636 633.684C521.636 635.759 520.598 636.797 518.522 636.797C516.023 636.797 515.408 637.836 515.408 642.052C515.408 646.692 514.838 647.421 510.542 648.28C503.308 649.727 502.951 649.589 502.951 645.361C502.951 642.507 502.121 641.468 499.837 641.468C497.316 641.468 496.722 640.43 496.722 636.019C496.722 631.608 496.129 630.57 493.608 630.57C491.533 630.57 490.494 629.531 490.494 627.456C490.494 625.726 489.455 624.342 488.158 624.342C486.861 624.342 485.823 622.958 485.823 621.228C485.823 618.632 484.784 618.114 479.594 618.114H473.366V651.589V685.063H478.816H484.265V660.93C484.265 637.836 484.399 636.797 487.38 636.797C489.901 636.797 490.494 637.836 490.494 642.247C490.494 646.658 491.087 647.696 493.608 647.696C495.731 647.696 496.722 648.735 496.722 650.956C496.722 652.906 497.973 654.542 499.837 655.029C502.177 655.641 502.951 657.153 502.951 661.113C502.951 665.341 503.564 666.38 506.065 666.38C508.141 666.38 509.179 665.341 509.179 663.266C509.179 661.19 510.218 660.152 512.294 660.152C514.369 660.152 515.408 659.113 515.408 657.038C515.408 655.325 516.428 653.924 517.674 653.924C519.017 653.924 520.342 651.766 520.934 648.618C521.568 645.238 523.007 643.03 524.897 642.536C526.624 642.085 527.865 640.397 527.865 638.501C527.865 636.707 528.824 635.24 529.997 635.24C532.96 635.24 534.056 643.508 534.076 665.99C534.092 684.02 534.263 685.063 537.208 685.063C540.222 685.063 540.322 684.033 540.3 652.756C540.289 634.987 539.856 618.874 539.341 616.946C538.296 613.049 534.093 612.113 534.093 615.779ZM728.158 616.946C727.642 618.874 727.209 630.783 727.198 643.415C727.178 665.335 727.035 666.38 724.062 666.38C721.987 666.38 720.948 665.341 720.948 663.266C720.948 661.19 719.91 660.152 717.834 660.152C715.758 660.152 714.72 659.113 714.72 657.038C714.72 655.308 713.681 653.924 712.384 653.924C711.099 653.924 710.048 652.808 710.048 651.442C710.048 650.078 708.712 648.612 707.081 648.185C705.19 647.692 703.751 645.484 703.118 642.104C702.526 638.955 701.201 636.797 699.857 636.797C698.611 636.797 697.591 635.396 697.591 633.684C697.591 631.608 696.553 630.57 694.477 630.57C692.401 630.57 691.363 629.531 691.363 627.456C691.363 625.38 690.324 624.342 688.249 624.342C686.173 624.342 685.134 623.303 685.134 621.228C685.134 618.632 684.096 618.114 678.906 618.114H672.677V651.589C672.677 684.025 672.774 685.063 675.792 685.063C678.777 685.063 678.906 684.025 678.906 659.97V634.878L682.409 635.817C684.337 636.332 687.14 636.765 688.638 636.776C690.318 636.79 691.363 637.992 691.363 639.911C691.363 641.624 692.383 643.025 693.628 643.025C694.983 643.025 696.304 645.213 696.916 648.475C697.655 652.418 698.751 653.924 700.878 653.924C702.781 653.924 703.82 655.023 703.82 657.038C703.82 658.768 704.859 660.152 706.156 660.152C707.453 660.152 708.491 661.536 708.491 663.266C708.491 665.341 709.53 666.38 711.606 666.38C713.681 666.38 714.72 667.418 714.72 669.494C714.72 671.538 715.758 672.608 717.741 672.608C720.106 672.608 720.864 673.872 721.244 678.446C721.7 683.967 722.044 684.311 727.566 684.767L733.405 685.252V649.347C733.405 619.816 733.022 613.443 731.252 613.443C730.067 613.443 728.675 615.019 728.158 616.946ZM965.417 615.779C965.417 617.236 963.942 618.114 961.493 618.114H957.569L957.989 651.199L958.41 684.285L985.27 684.711C1011.34 685.124 1012.13 685.043 1012.13 681.987C1012.13 678.979 1011.17 678.835 991.109 678.835H970.088V666.38V653.924H987.995C1004.86 653.924 1005.9 653.743 1005.9 650.81C1005.9 647.877 1004.86 647.696 987.995 647.696H970.088V636.019V624.342H991.109C1011.09 624.342 1012.13 624.188 1012.13 621.228C1012.13 619.152 1011.09 618.114 1009.02 618.114C1007.29 618.114 1005.9 617.075 1005.9 615.779C1005.9 613.823 1002.61 613.443 985.659 613.443C968.704 613.443 965.417 613.823 965.417 615.779ZM1104 615.779C1104 617.063 1102.68 618.114 1101.06 618.114C1098.93 618.114 1097.84 619.62 1097.1 623.563C1096.48 626.825 1095.16 629.013 1093.81 629.013C1092.43 629.013 1091.54 630.537 1091.54 632.905C1091.54 635.759 1090.71 636.797 1088.43 636.797C1085.93 636.797 1085.32 637.836 1085.32 642.052C1085.32 646.692 1084.75 647.421 1080.45 648.28C1073.35 649.7 1072.86 649.563 1072.86 646.139C1072.86 644.427 1071.87 643.025 1070.66 643.025C1069.31 643.025 1068.05 640.626 1067.41 636.797C1066.61 632.071 1065.64 630.57 1063.38 630.57C1061.44 630.57 1060.4 629.484 1060.4 627.456C1060.4 625.726 1059.36 624.342 1058.07 624.342C1056.77 624.342 1055.73 622.958 1055.73 621.228C1055.73 618.632 1054.69 618.114 1049.5 618.114H1043.27V651.589C1043.27 687.041 1043.06 686.12 1050.67 684.082C1054.1 683.162 1054.17 682.686 1054.17 659.97C1054.17 638.291 1054.36 636.797 1057.11 636.797C1059.24 636.797 1060.34 638.303 1061.08 642.247C1061.69 645.509 1063.01 647.696 1064.36 647.696C1065.63 647.696 1066.63 649.141 1066.63 650.956C1066.63 652.853 1067.87 654.541 1069.6 654.992C1071.49 655.486 1072.93 657.693 1073.56 661.074C1074.64 666.808 1079.09 668.572 1079.09 663.266C1079.09 661.19 1080.13 660.152 1082.2 660.152C1084.28 660.152 1085.32 659.113 1085.32 657.038C1085.32 655.325 1086.34 653.924 1087.58 653.924C1088.92 653.924 1090.25 651.766 1090.84 648.618C1091.48 645.238 1092.91 643.03 1094.8 642.536C1096.57 642.074 1097.77 640.396 1097.77 638.386C1097.77 636.011 1098.58 635.167 1100.5 635.535C1102.93 636.003 1103.27 638.663 1103.65 660.561C1104.06 683.776 1104.24 685.063 1107.15 685.063C1110.12 685.063 1110.23 683.894 1110.21 652.756C1110.2 634.987 1109.76 618.874 1109.25 616.946C1108.2 613.049 1104 612.113 1104 615.779ZM1152.27 615.779C1152.27 617.075 1150.89 618.114 1149.16 618.114C1146.14 618.114 1146.04 619.152 1146.04 651.589V685.063H1173.29C1199.5 685.063 1200.54 684.945 1200.54 681.949C1200.54 678.99 1199.5 678.835 1179.66 678.835H1158.77L1157.72 672.608C1157.14 669.182 1157.14 663.577 1157.72 660.152L1158.77 653.924H1176.54C1193.28 653.924 1194.31 653.742 1194.31 650.81C1194.31 647.878 1193.28 647.696 1176.6 647.696H1158.89L1157.92 642.831C1157.38 640.154 1156.94 634.9 1156.94 631.154V624.342H1173.88C1183.19 624.342 1193 623.904 1195.68 623.369C1201.02 622.301 1202.41 618.114 1197.43 618.114C1195.7 618.114 1194.31 617.075 1194.31 615.779C1194.31 613.818 1190.94 613.443 1173.29 613.443C1155.65 613.443 1152.27 613.818 1152.27 615.779ZM1231.11 616.946C1230.59 618.874 1230.16 635.037 1230.15 652.865L1230.13 685.28L1233.63 684.783C1237.09 684.291 1237.14 683.947 1237.56 657.427C1237.92 634.976 1238.36 630.57 1240.29 630.57C1241.55 630.57 1242.58 631.971 1242.58 633.684C1242.58 635.759 1243.62 636.797 1245.7 636.797C1247.77 636.797 1248.81 637.836 1248.81 639.911C1248.81 641.987 1249.85 643.025 1251.93 643.025C1254.45 643.025 1255.04 644.064 1255.04 648.475C1255.04 652.886 1255.63 653.924 1258.16 653.924C1260.23 653.924 1261.27 654.963 1261.27 657.038C1261.27 659.113 1262.31 660.152 1264.38 660.152C1266.4 660.152 1267.5 661.19 1267.5 663.084C1267.5 664.708 1268.89 666.38 1270.61 666.831C1273 667.454 1273.73 668.955 1273.73 673.24C1273.73 677.797 1274.3 678.835 1276.84 678.835C1278.92 678.835 1279.96 679.874 1279.96 681.949C1279.96 684.47 1280.99 685.063 1285.41 685.063H1290.86V651.589C1290.86 619.152 1290.76 618.114 1287.74 618.114C1284.76 618.114 1284.63 619.152 1284.63 642.247C1284.63 662.66 1284.27 666.38 1282.29 666.38C1281.01 666.38 1279.96 665.329 1279.96 664.044C1279.96 662.747 1278.57 661.709 1276.84 661.709C1274.72 661.709 1273.73 660.67 1273.73 658.449C1273.73 656.499 1272.48 654.863 1270.61 654.376C1268.89 653.924 1267.5 652.252 1267.5 650.628C1267.5 648.735 1266.4 647.696 1264.38 647.696C1262.31 647.696 1261.27 646.658 1261.27 644.582C1261.27 642.87 1260.25 641.468 1259 641.468C1257.65 641.468 1256.33 639.281 1255.72 636.019C1254.98 632.075 1253.88 630.57 1251.75 630.57C1249.85 630.57 1248.81 629.47 1248.81 627.456C1248.81 625.38 1247.77 624.342 1245.7 624.342C1243.62 624.342 1242.58 623.303 1242.58 621.228C1242.58 619.152 1241.55 618.114 1239.47 618.114C1237.74 618.114 1236.36 617.075 1236.36 615.779C1236.36 612.113 1232.15 613.049 1231.11 616.946ZM1322 618.892V624.342H1333.68H1345.35V654.812V685.28L1348.86 684.783C1352.34 684.288 1352.36 684.064 1352.79 654.313L1353.21 624.342H1364.85H1376.5V618.892V613.443H1349.25H1322V618.892ZM30.5663 634.073C30.0509 636 29.618 639.771 29.6071 642.454C29.5916 646.013 28.7429 647.553 26.4711 648.148C24.0856 648.771 23.3569 650.271 23.3569 654.556V660.152H35.8138H48.2708V651.589C48.2708 644.064 47.894 643.025 45.1566 643.025C42.5609 643.025 42.0423 641.987 42.0423 636.797C42.0423 630.76 41.882 630.57 36.7746 630.57C32.6264 630.57 31.306 631.315 30.5663 634.073ZM605.721 632.723C605.721 633.908 604.32 635.244 602.607 635.692C600.221 636.315 599.493 637.816 599.493 642.1C599.493 646.036 598.8 647.696 597.157 647.696C595.471 647.696 594.821 649.426 594.821 653.924V660.152H609.614C621.725 660.152 624.407 659.728 624.407 657.816C624.407 656.52 623.022 655.481 621.292 655.481C618.712 655.481 618.178 654.443 618.178 649.435C618.178 644.698 617.504 643.212 615.064 642.574C612.678 641.951 611.95 640.45 611.95 636.165C611.95 631.608 611.372 630.57 608.835 630.57C607.122 630.57 605.721 631.54 605.721 632.723ZM794.133 636.797C794.133 641.987 793.615 643.025 791.019 643.025C788.423 643.025 787.905 644.064 787.905 649.253C787.905 653.751 787.255 655.481 785.569 655.481C784.284 655.481 783.233 656.532 783.233 657.816C783.233 659.728 785.915 660.152 798.026 660.152H812.819V654.556C812.819 650.271 812.09 648.771 809.704 648.148C807.264 647.509 806.59 646.024 806.59 641.286C806.59 636.279 806.056 635.24 803.476 635.24C801.746 635.24 800.362 634.202 800.362 632.905C800.362 631.608 798.977 630.57 797.247 630.57C794.652 630.57 794.133 631.608 794.133 636.797Z" fill="white"/>
</svg>
