<svg width="2484" height="714" viewBox="0 0 2484 714" fill="none" xmlns="http://www.w3.org/2000/svg">
<g clip-path="url(#clip0_4397_845)">
<mask id="mask0_4397_845" style="mask-type:luminance" maskUnits="userSpaceOnUse" x="0" y="0" width="2484" height="714">
<path d="M2484 0H0V714H2484V0Z" fill="white"/>
</mask>
<g mask="url(#mask0_4397_845)">
<path fill-rule="evenodd" clip-rule="evenodd" d="M75.209 3.13158C75.209 4.85395 73.874 6.26316 72.2403 6.26316C70.6087 6.26316 68.6532 9.08158 67.897 12.5263C67.1407 15.9711 65.6658 18.7895 64.6212 18.7895C63.5787 18.7895 62.1309 22.4889 61.4081 27.0109C60.6852 31.5329 58.7925 35.7313 57.2047 36.3409C55.6169 36.9505 54.3175 40.2951 54.3175 43.7774C54.3175 47.2576 53.3878 50.1053 52.2534 50.1053C51.1169 50.1053 49.5877 53.8632 48.8523 58.4561C48.1169 63.0491 46.7527 66.807 45.8209 66.807C44.8892 66.807 43.4936 71.0346 42.7185 76.2018C41.9435 81.3689 40.5333 85.5965 39.5848 85.5965C38.6363 85.5965 37.2262 89.8241 36.4511 94.9912C35.676 100.158 34.2408 104.386 33.2609 104.386C32.2811 104.386 30.8563 109.083 30.0959 114.825C29.3333 120.566 27.9817 125.263 27.0938 125.263C26.2059 125.263 24.8249 130.9 24.0248 137.789C23.2247 144.679 21.8312 150.316 20.9287 150.316C20.0263 150.316 18.896 156.487 18.4155 164.028C17.935 171.571 16.5583 178.383 15.3549 179.164C14.1537 179.947 12.5722 188.509 11.8431 198.187C11.1139 207.868 9.70376 216.323 8.70933 216.977C7.71489 217.632 6.29636 230.378 5.5568 245.301C4.80679 260.449 3.28171 272.746 2.10552 273.138C-0.620821 274.047 -0.806755 433.605 1.91541 434.594C2.97043 434.976 4.51013 447.503 5.33744 462.43C6.16683 477.357 7.67102 490.105 8.68008 490.76C9.69123 491.414 11.1139 499.869 11.8431 509.55C12.5722 519.228 13.9426 527.659 14.8869 528.283C15.8312 528.905 17.2331 536.187 18.0019 544.463C18.7728 552.738 20.114 559.509 20.9851 559.509C21.8563 559.509 23.2247 565.146 24.0248 572.035C24.8249 578.925 26.2184 584.561 27.123 584.561C28.0276 584.561 29.4127 589.728 30.2024 596.044C30.9921 602.359 32.3856 607.526 33.3006 607.526C34.2157 607.526 35.488 611.42 36.1273 616.178C36.7644 620.936 38.1537 625.399 39.2129 626.094C40.27 626.79 41.7178 631.042 42.4302 635.541C43.1405 640.043 44.6531 644.297 45.7896 644.999C46.924 645.7 48.4888 650.239 49.2638 655.085C50.0389 659.93 51.4177 663.895 52.3286 663.895C53.2395 663.895 54.6058 666.713 55.3621 670.158C56.1183 673.603 57.6037 676.421 58.6608 676.421C59.72 676.421 60.5849 679.239 60.5849 682.684C60.5849 686.86 61.6295 688.947 63.7187 688.947C65.8078 688.947 66.8524 691.035 66.8524 695.211C66.8524 699.386 67.897 701.474 69.9861 701.474C71.7097 701.474 73.1199 702.883 73.1199 704.605C73.1199 707.25 77.9938 707.737 104.457 707.737C130.92 707.737 135.794 707.25 135.794 704.605C135.794 702.883 134.384 701.474 132.661 701.474C130.34 701.474 129.527 699.037 129.527 692.079C129.527 685.121 128.714 682.684 126.393 682.684C123.955 682.684 123.259 679.901 123.259 670.158C123.259 660.414 122.564 657.632 120.126 657.632C117.715 657.632 116.992 654.947 116.992 646.001C116.992 638.445 115.893 633.272 113.858 631.237C111.769 629.149 110.725 623.93 110.725 615.579C110.725 607.228 109.68 602.008 107.591 599.921C105.374 597.706 104.457 592.303 104.457 581.455C104.457 571.064 103.617 565.841 101.852 565.252C100.112 564.672 98.9961 558.206 98.4905 545.767C98.0727 535.494 96.7189 526.514 95.4696 525.734C94.1283 524.894 92.8372 513.834 92.3045 498.593C91.7488 482.743 90.4995 472.296 89.0517 471.38C85.6715 469.238 85.707 244.731 89.0872 242.622C90.6102 241.672 91.7467 231.447 92.2209 214.436C92.6973 197.415 93.8338 187.202 95.3568 186.252C96.7774 185.369 98.0497 176.892 98.4905 165.374C98.925 154.021 100.212 145.368 101.595 144.497C102.892 143.679 104.344 136.027 104.819 127.495C105.351 117.916 106.647 111.66 108.203 111.142C109.845 110.595 110.725 105.307 110.725 95.9641C110.725 86.0036 111.602 81.1183 113.597 79.9596C115.381 78.9221 116.827 73.1975 117.414 64.8383C117.953 57.1889 119.418 51.0364 120.811 50.5729C122.19 50.1136 123.259 45.7315 123.259 40.5372C123.259 33.7313 124.08 31.3158 126.393 31.3158C128.9 31.3158 129.527 28.1842 129.527 15.6579V0H102.368C79.6192 0 75.209 0.509403 75.209 3.13158ZM2352.38 3.13158C2352.38 4.85395 2351.44 6.26316 2350.29 6.26316C2349.15 6.26316 2348.21 7.67237 2348.21 9.39474C2348.21 11.1171 2349.63 12.5263 2351.34 12.5263C2353.66 12.5263 2354.47 14.9418 2354.47 21.7478C2354.47 26.8188 2355.54 31.32 2356.83 31.7521C2358.13 32.1843 2359.67 37.6353 2360.28 43.8672C2360.87 50.099 2362.62 56.4686 2364.19 58.0198C2365.9 59.7443 2367.01 65.569 2367.01 72.995C2367.01 81.8741 2367.84 85.4733 2370.14 86.3522C2372.5 87.2604 2373.27 91.0914 2373.27 102.058C2373.27 111.532 2374.15 116.856 2375.8 117.405C2377.35 117.923 2378.64 124.18 2379.19 133.758C2379.65 142.291 2381.11 149.942 2382.4 150.76C2383.8 151.644 2385.06 160.539 2385.5 172.682C2385.94 184.688 2387.21 193.713 2388.57 194.565C2390.03 195.475 2391.22 206.73 2391.74 224.837C2392.27 243.184 2393.44 254.199 2394.94 255.149C2398.37 257.305 2398.3 456.747 2394.88 458.864C2393.29 459.839 2392.2 469.716 2391.74 487.052C2391.28 504.157 2390.18 514.272 2388.63 515.224C2387.19 516.126 2385.96 524.859 2385.5 537.414C2385 551.571 2383.95 558.394 2382.15 558.989C2380.38 559.578 2379.54 564.778 2379.54 575.192C2379.54 586.039 2378.62 591.443 2376.41 593.658C2374.22 595.852 2373.27 601.213 2373.27 611.553C2373.27 623.284 2372.63 626.316 2370.14 626.316C2367.7 626.316 2367.01 629.107 2367.01 638.907C2367.01 648.174 2366.17 651.817 2363.87 652.7C2361.62 653.565 2360.74 657.08 2360.74 665.162C2360.74 673.327 2359.95 676.421 2357.86 676.421C2355.87 676.421 2354.68 680.089 2354.01 688.321C2353.47 694.864 2351.92 700.58 2350.61 701.021C2349.29 701.461 2348.21 703.152 2348.21 704.779C2348.21 707.2 2353.91 707.737 2379.54 707.737C2400.43 707.737 2410.88 706.991 2410.88 705.501C2410.88 704.269 2412.3 701.854 2414.01 700.131C2415.73 698.409 2417.15 695.188 2417.15 692.974C2417.15 690.759 2417.98 688.947 2419.01 688.947C2420.03 688.947 2421.51 686.373 2422.31 683.227C2423.1 680.081 2424.69 676.928 2425.84 676.221C2426.97 675.513 2428.43 671.041 2429.08 666.283C2429.7 661.525 2431.04 657.632 2432.02 657.632C2433 657.632 2434.4 653.874 2435.16 649.281C2435.89 644.688 2437.24 640.93 2438.18 640.93C2439.1 640.93 2440.5 636.702 2441.28 631.535C2442.05 626.368 2443.47 622.14 2444.41 622.14C2445.37 622.14 2446.77 617.913 2447.54 612.746C2448.32 607.578 2449.68 603.351 2450.53 603.351C2451.41 603.351 2452.75 598.654 2453.52 592.912C2454.27 587.171 2455.75 582.474 2456.78 582.474C2457.82 582.474 2459.33 575.897 2460.12 567.86C2460.91 559.822 2462.25 553.246 2463.09 553.246C2463.92 553.246 2465.22 546.475 2465.99 538.199C2466.76 529.924 2468.16 522.642 2469.1 522.02C2470.07 521.395 2471.42 512.965 2472.15 503.286C2472.89 493.606 2474.31 485.15 2475.31 484.497C2476.33 483.841 2477.84 466.866 2478.65 446.772C2479.49 426.678 2481.03 409.924 2482.08 409.542C2484.56 408.64 2484.63 302.719 2482.14 302.719C2481.14 302.719 2479.61 286.514 2478.78 266.706C2477.92 246.9 2476.48 230.213 2475.56 229.626C2474.64 229.039 2473.2 219.175 2472.38 207.705C2471.55 196.235 2469.88 186.21 2468.67 185.427C2467.45 184.646 2466.07 177.834 2465.59 170.291C2465.11 162.75 2464.01 156.579 2463.13 156.579C2462.27 156.579 2460.91 150.942 2460.14 144.053C2459.37 137.163 2457.93 131.526 2456.95 131.526C2455.96 131.526 2454.5 125.889 2453.71 119C2452.91 112.111 2451.47 106.474 2450.49 106.474C2449.53 106.474 2448.11 102.246 2447.34 97.0789C2446.56 91.9118 2445.14 87.6842 2444.2 87.6842C2443.24 87.6842 2441.84 83.4566 2441.07 78.2895C2440.29 73.1224 2438.85 68.8947 2437.89 68.8947C2436.93 68.8947 2435.51 65.6066 2434.76 61.5877C2434.01 57.5689 2432.67 54.2807 2431.81 54.2807C2430.94 54.2807 2429.62 50.5228 2428.89 45.9298C2428.14 41.3368 2426.61 37.5789 2425.48 37.5789C2424.35 37.5789 2423.41 34.7605 2423.41 31.3158C2423.41 27.1404 2422.37 25.0526 2420.28 25.0526C2418.19 25.0526 2417.15 22.9649 2417.15 18.7895C2417.15 14.7706 2416.08 12.5263 2414.18 12.5263C2412.55 12.5263 2410.59 9.70789 2409.83 6.26316L2408.46 0H2380.42C2356.9 0 2352.38 0.50314 2352.38 3.13158ZM457.001 199.697C454.99 200.264 453.345 201.517 453.345 202.482C453.345 203.448 442.375 204.553 428.969 204.939C411.845 205.432 404.334 206.417 403.726 208.25C403.206 209.814 399.157 210.86 393.631 210.86C386.821 210.86 384.404 211.68 384.404 213.991C384.404 216.079 382.314 217.123 378.136 217.123C373.958 217.123 371.869 218.167 371.869 220.254C371.869 222.342 369.779 223.386 365.601 223.386C361.423 223.386 359.334 224.43 359.334 226.518C359.334 228.24 357.924 229.649 356.2 229.649C354.476 229.649 353.066 231.058 353.066 232.781C353.066 234.503 351.656 235.912 349.933 235.912C348.209 235.912 346.799 237.321 346.799 239.044C346.799 240.766 345.389 242.175 343.665 242.175C341.942 242.175 340.531 243.507 340.531 245.134C340.531 246.76 339.357 248.48 337.92 248.958C336.125 249.556 335.085 256.464 334.59 271.053C333.992 288.759 334.387 292.281 336.976 292.281C338.682 292.281 340.669 294.629 341.39 297.5C342.111 300.371 343.623 302.719 344.749 302.719C345.877 302.719 346.799 303.92 346.799 305.387C346.799 309.018 353.944 314.861 360.347 316.469C363.236 317.193 365.601 319.093 365.601 320.69C365.601 322.29 367.078 323.596 368.883 323.596C370.69 323.596 373.578 325.006 375.301 326.728C377.025 328.45 381.188 329.86 384.552 329.86C387.917 329.86 390.671 330.697 390.671 331.722C390.671 332.745 393.247 334.229 396.395 335.018C399.544 335.808 402.734 337.446 403.484 338.661C404.236 339.874 409.885 341.34 416.04 341.918C422.196 342.495 427.801 343.847 428.497 344.923C429.193 345.998 433.659 347.401 438.421 348.037C443.182 348.676 447.078 349.923 447.078 350.806C447.078 351.691 452.719 353.069 459.613 353.868C466.507 354.668 472.148 356.077 472.148 357C472.148 357.923 477.789 359.332 484.683 360.132C491.577 360.931 497.218 362.365 497.218 363.317C497.218 364.272 502.388 365.695 508.708 366.484C515.028 367.274 520.198 368.626 520.198 369.493C520.198 370.357 524.174 371.597 529.031 372.249C533.891 372.9 538.201 374.432 538.608 375.654C539.015 376.877 541.083 377.877 543.204 377.877C545.325 377.877 548.31 379.128 549.839 380.656C551.37 382.186 555.198 384.082 558.346 384.871C561.495 385.662 564.07 387.23 564.07 388.355C564.07 389.483 565.272 390.404 566.74 390.404C568.209 390.404 571.019 392.282 572.987 394.579C574.955 396.875 577.882 398.754 579.493 398.754C581.103 398.754 583.011 401.103 583.732 403.974C584.452 406.844 585.965 409.193 587.091 409.193C588.219 409.193 589.14 411.005 589.14 413.22C589.14 415.433 590.55 418.655 592.274 420.377C593.998 422.099 595.408 425.991 595.408 429.026C595.408 432.062 593.998 435.953 592.274 437.676C590.55 439.398 589.14 443.559 589.14 446.92C589.14 450.283 588.275 453.035 587.216 453.035C586.159 453.035 584.674 455.853 583.917 459.298C583.161 462.743 581.206 465.561 579.574 465.561C577.94 465.561 576.605 466.971 576.605 468.693C576.605 470.415 575.195 471.825 573.472 471.825C571.748 471.825 570.338 473.234 570.338 474.956C570.338 477.044 568.249 478.088 564.07 478.088C559.892 478.088 557.803 479.132 557.803 481.219C557.803 483.624 555.133 484.351 546.313 484.351C537.492 484.351 534.822 485.077 534.822 487.482C534.822 490.188 527.161 490.614 478.415 490.614C429.669 490.614 422.008 490.188 422.008 487.482C422.008 485.046 419.223 484.351 409.473 484.351C399.723 484.351 396.938 483.656 396.938 481.219C396.938 479.132 394.849 478.088 390.671 478.088C386.493 478.088 384.404 477.044 384.404 474.956C384.404 473.234 382.993 471.825 381.27 471.825C379.546 471.825 378.136 470.415 378.136 468.693C378.136 466.971 376.726 465.561 375.002 465.561C373.279 465.561 371.869 464.152 371.869 462.43C371.869 460.707 370.458 459.298 368.735 459.298C366.182 459.298 365.601 455.818 365.601 440.509V421.719H353.066H340.531V437.377C340.531 449.903 341.158 453.035 343.665 453.035C345.754 453.035 346.799 455.123 346.799 459.298C346.799 463.474 347.843 465.561 349.933 465.561C352.022 465.561 353.066 467.649 353.066 471.825C353.066 476 354.111 478.088 356.2 478.088C357.924 478.088 359.334 479.497 359.334 481.219C359.334 483.307 361.423 484.351 365.601 484.351C369.779 484.351 371.869 485.395 371.869 487.482C371.869 489.57 373.958 490.614 378.136 490.614C382.314 490.614 384.404 491.658 384.404 493.746C384.404 496.065 386.842 496.877 393.805 496.877C400.768 496.877 403.206 497.689 403.206 500.009C403.206 504.737 538.518 504.737 540.334 500.009C541.198 497.76 544.717 496.877 552.804 496.877C561.426 496.877 564.07 496.142 564.07 493.746C564.07 491.658 566.16 490.614 570.338 490.614C574.516 490.614 576.605 489.57 576.605 487.482C576.605 485.395 578.695 484.351 582.873 484.351C587.051 484.351 589.14 483.307 589.14 481.219C589.14 479.497 590.55 478.088 592.274 478.088C593.998 478.088 595.408 476.678 595.408 474.956C595.408 473.234 596.818 471.825 598.541 471.825C600.265 471.825 601.675 470.415 601.675 468.693C601.675 466.971 603.085 465.561 604.809 465.561C606.532 465.561 607.943 464.152 607.943 462.43C607.943 460.707 609.23 459.298 610.801 459.298C612.583 459.298 614.106 455.97 614.845 450.471C615.497 445.615 617.03 441.308 618.253 440.901C621.773 439.73 620.994 424.452 617.344 423.051C615.62 422.392 614.21 419.406 614.21 416.416C614.21 413.427 612.8 409.573 611.076 407.851C609.353 406.128 607.943 402.907 607.943 400.694C607.943 398.479 606.532 396.667 604.809 396.667C603.085 396.667 601.675 395.257 601.675 393.535C601.675 391.813 600.265 390.404 598.541 390.404C596.818 390.404 595.408 388.994 595.408 387.272C595.408 385.55 593.998 384.14 592.274 384.14C590.55 384.14 589.14 382.731 589.14 381.009C589.14 379.286 587.73 377.877 586.007 377.877C584.283 377.877 582.873 377.04 582.873 376.015C582.873 374.992 580.297 373.508 577.149 372.718C574 371.929 570.846 370.347 570.137 369.203C569.429 368.059 564.954 366.599 560.193 365.963C555.432 365.324 551.536 364.092 551.536 363.226C551.536 362.359 547.305 361.015 542.134 360.24C536.964 359.466 532.733 358.058 532.733 357.113C532.733 356.167 527.563 354.747 521.243 353.958C514.923 353.169 509.753 351.772 509.753 350.856C509.753 349.937 505.052 348.564 499.307 347.801C493.562 347.042 488.861 345.63 488.861 344.668C488.861 343.705 484.06 342.457 478.192 341.893C472.325 341.33 466.919 339.929 466.179 338.778C465.442 337.628 459.429 336.023 452.823 335.21C446.217 334.398 440.811 332.983 440.811 332.066C440.811 331.148 436.11 329.774 430.365 329.012C424.62 328.252 419.919 326.722 419.919 325.613C419.919 324.505 416.159 323.596 411.562 323.596C405.884 323.596 403.206 322.68 403.206 320.74C403.206 318.96 399.876 317.438 394.373 316.699C389.514 316.047 385.204 314.515 384.796 313.294C384.389 312.07 382.724 311.07 381.096 311.07C379.467 311.07 378.136 309.661 378.136 307.939C378.136 306.216 376.726 304.807 375.002 304.807C373.279 304.807 371.869 303.398 371.869 301.675C371.869 299.953 370.458 298.544 368.735 298.544C367.011 298.544 365.601 297.068 365.601 295.264C365.601 293.458 364.191 290.573 362.467 288.851C360.151 286.535 359.334 280.865 359.334 267.08C359.334 251.902 359.917 248.439 362.467 248.439C364.191 248.439 365.601 247.029 365.601 245.307C365.601 243.585 367.011 242.175 368.735 242.175C370.458 242.175 371.869 240.766 371.869 239.044C371.869 237.305 373.726 235.912 376.047 235.912C378.368 235.912 380.225 234.52 380.225 232.781C380.225 230.52 382.546 229.649 388.582 229.649C394.617 229.649 396.938 228.779 396.938 226.518C396.938 224.206 399.356 223.386 406.166 223.386C411.692 223.386 415.741 222.34 416.261 220.776C416.923 218.787 431.777 218.023 478.873 217.557C532.269 217.029 541.05 217.382 543.837 220.167C545.609 221.937 549.946 223.386 553.476 223.386C557.786 223.386 559.892 224.413 559.892 226.518C559.892 228.465 561.864 229.649 565.115 229.649C568.366 229.649 570.338 230.833 570.338 232.781C570.338 234.503 571.748 235.912 573.472 235.912C575.195 235.912 576.605 237.321 576.605 239.044C576.605 240.766 578.016 242.175 579.739 242.175C581.699 242.175 582.873 244.155 582.873 247.459C582.873 250.368 584.283 253.286 586.007 253.946C588.397 254.863 589.14 258.773 589.14 270.435C589.14 288.909 591.58 292.281 604.957 292.281H614.21V273.491C614.21 258.182 613.629 254.702 611.076 254.702C608.987 254.702 607.943 252.614 607.943 248.439C607.943 244.263 606.898 242.175 604.809 242.175C603.085 242.175 601.675 240.766 601.675 239.044C601.675 237.321 600.265 235.912 598.541 235.912C596.818 235.912 595.408 234.503 595.408 232.781C595.408 231.058 594.468 229.649 593.319 229.649C592.17 229.649 591.229 228.24 591.229 226.518C591.229 224.778 589.372 223.386 587.051 223.386C584.73 223.386 582.873 221.993 582.873 220.254C582.873 218.167 580.784 217.123 576.605 217.123C572.427 217.123 570.338 216.079 570.338 213.991C570.338 211.745 568.042 210.86 562.205 210.86C556.903 210.86 553.654 209.77 552.868 207.728C551.949 205.331 548.011 204.596 536.107 204.596C525.513 204.596 520.269 203.763 519.68 201.987C519.049 200.089 510.881 199.281 489.734 199.022C473.742 198.826 459.013 199.131 457.001 199.697ZM801.07 201.024C800.502 202.505 800.295 253.862 800.612 315.154C801.062 402.036 801.764 426.784 803.8 427.461C805.363 427.982 806.412 432.031 806.412 437.55C806.412 444.356 807.233 446.772 809.546 446.772C811.269 446.772 812.679 448.21 812.679 449.968C812.679 451.728 814.09 453.707 815.813 454.367C817.537 455.029 818.947 457.818 818.947 460.565C818.947 463.614 820.169 465.561 822.081 465.561C823.804 465.561 825.214 466.971 825.214 468.693C825.214 470.432 827.072 471.825 829.393 471.825C831.714 471.825 833.571 473.217 833.571 474.956C833.571 476.904 835.543 478.088 838.794 478.088C842.044 478.088 844.017 479.271 844.017 481.219C844.017 482.942 845.427 484.351 847.15 484.351C848.874 484.351 850.284 485.76 850.284 487.482C850.284 489.57 852.373 490.614 856.552 490.614C860.73 490.614 862.819 491.658 862.819 493.746C862.819 496.065 865.257 496.877 872.22 496.877C879.183 496.877 881.621 497.689 881.621 500.009C881.621 502.328 884.059 503.14 891.023 503.14C897.986 503.14 900.424 503.952 900.424 506.272C900.424 508.969 907.37 509.403 950.415 509.403C992.064 509.403 1000.93 508.882 1003.54 506.272C1005.3 504.514 1010.4 503.14 1015.18 503.14C1021.35 503.14 1023.68 502.28 1023.68 500.009C1023.68 497.833 1025.87 496.877 1030.85 496.877C1034.79 496.877 1039.42 495.468 1041.14 493.746C1042.87 492.023 1045.75 490.614 1047.56 490.614C1049.37 490.614 1050.84 489.205 1050.84 487.482C1050.84 485.535 1052.81 484.351 1056.07 484.351C1059.32 484.351 1061.29 483.167 1061.29 481.219C1061.29 479.497 1062.7 478.088 1064.42 478.088C1066.15 478.088 1067.56 476.678 1067.56 474.956C1067.56 473.234 1068.97 471.825 1070.69 471.825C1072.41 471.825 1073.82 470.415 1073.82 468.693C1073.82 466.971 1075.23 465.561 1076.96 465.561C1078.68 465.561 1080.09 464.152 1080.09 462.43C1080.09 460.707 1081.5 459.298 1083.22 459.298C1084.95 459.298 1086.36 457.956 1086.36 456.315C1086.36 454.676 1087.61 452.083 1089.14 450.555C1090.67 449.025 1092.62 444.974 1093.48 441.553C1094.34 438.131 1095.81 434.853 1096.75 434.266C1099.33 432.646 1099.9 402.738 1099.37 295.934L1098.89 198.333H1087.63C1077.28 198.333 1076.26 198.768 1075.02 203.695C1074.28 206.642 1073.8 259.399 1073.95 320.93C1074.21 421.454 1073.9 432.995 1070.9 434.674C1069.06 435.701 1067.56 438.843 1067.56 441.657C1067.56 444.812 1066.35 446.772 1064.42 446.772C1062.68 446.772 1061.29 448.628 1061.29 450.947C1061.29 453.244 1060.37 455.123 1059.24 455.123C1058.11 455.123 1056.6 457.471 1055.88 460.342C1054.94 464.09 1053.16 465.561 1049.57 465.561C1046.52 465.561 1044.58 466.783 1044.58 468.693C1044.58 470.432 1042.72 471.825 1040.4 471.825C1038.08 471.825 1036.22 473.217 1036.22 474.956C1036.22 476.904 1034.25 478.088 1031 478.088C1027.74 478.088 1025.77 479.271 1025.77 481.219C1025.77 483.407 1023.57 484.351 1018.46 484.351C1013.35 484.351 1011.15 485.294 1011.15 487.482C1011.15 489.879 1008.5 490.614 999.882 490.614C991.795 490.614 988.277 491.497 987.412 493.746C986.407 496.364 980.213 496.877 949.584 496.877C918.422 496.877 912.959 496.41 912.959 493.746C912.959 491.309 910.174 490.614 900.424 490.614C890.674 490.614 887.889 489.919 887.889 487.482C887.889 485.395 885.8 484.351 881.621 484.351C877.443 484.351 875.354 483.307 875.354 481.219C875.354 479.132 873.265 478.088 869.086 478.088C864.908 478.088 862.819 477.044 862.819 474.956C862.819 473.234 861.409 471.825 859.685 471.825C857.962 471.825 856.552 470.415 856.552 468.693C856.552 466.971 855.141 465.561 853.418 465.561C851.694 465.561 850.284 464.152 850.284 462.43C850.284 460.707 848.874 459.298 847.15 459.298C845.427 459.298 844.017 457.889 844.017 456.167C844.017 454.444 842.606 453.035 840.883 453.035C838.794 453.035 837.749 450.947 837.749 446.772C837.749 442.596 836.705 440.509 834.615 440.509C832.526 440.509 831.482 438.421 831.482 434.246C831.482 430.07 830.437 427.982 828.348 427.982C825.601 427.982 825.214 413.832 825.214 313.158V198.333H813.659C806.155 198.333 801.741 199.277 801.07 201.024ZM1297.36 201.465C1297.36 203.187 1295.95 204.596 1294.23 204.596C1292.51 204.596 1291.09 205.905 1291.09 207.505C1291.09 209.104 1289.68 210.954 1287.96 211.615C1285.22 212.668 1284.83 230.87 1284.83 357.979V503.14H1297.36H1309.9V360.132V217.123H1319.3C1326.26 217.123 1328.7 217.935 1328.7 220.254C1328.7 221.977 1330.11 223.386 1331.83 223.386C1333.56 223.386 1334.97 224.795 1334.97 226.518C1334.97 228.24 1336.38 229.649 1338.1 229.649C1340.19 229.649 1341.23 231.737 1341.23 235.912C1341.23 240.088 1342.28 242.175 1344.37 242.175C1346.09 242.175 1347.5 243.585 1347.5 245.307C1347.5 247.029 1348.91 248.439 1350.64 248.439C1352.36 248.439 1353.77 249.848 1353.77 251.57C1353.77 253.293 1355.18 254.702 1356.9 254.702C1358.99 254.702 1360.04 256.789 1360.04 260.965C1360.04 265.14 1361.08 267.228 1363.17 267.228C1364.89 267.228 1366.3 268.637 1366.3 270.36C1366.3 272.082 1367.71 273.491 1369.44 273.491C1371.35 273.491 1372.57 275.439 1372.57 278.487C1372.57 281.235 1373.98 284.024 1375.71 284.686C1377.43 285.345 1378.84 287.324 1378.84 289.084C1378.84 290.842 1380.25 292.281 1381.97 292.281C1383.7 292.281 1385.11 293.287 1385.11 294.517C1385.11 295.748 1386.52 298.164 1388.24 299.886C1389.96 301.609 1391.37 304.83 1391.37 307.043C1391.37 309.258 1392.78 311.07 1394.51 311.07C1396.23 311.07 1397.64 312.479 1397.64 314.202C1397.64 315.924 1399.05 317.333 1400.78 317.333C1402.69 317.333 1403.91 319.281 1403.91 322.329C1403.91 325.077 1405.32 327.866 1407.04 328.528C1408.77 329.187 1410.18 331.167 1410.18 332.926C1410.18 334.684 1411.59 336.123 1413.31 336.123C1415.03 336.123 1416.44 337.532 1416.44 339.254C1416.44 340.977 1417.37 342.386 1418.49 342.386C1419.62 342.386 1421.12 344.666 1421.82 347.455C1422.52 350.242 1424.41 353.031 1426.03 353.651C1427.65 354.273 1428.98 356.219 1428.98 357.979C1428.98 359.737 1429.86 361.175 1430.93 361.175C1432 361.175 1433.52 363.201 1434.31 365.677C1435.09 368.153 1437.81 372.144 1440.35 374.549C1442.88 376.954 1445.56 380.564 1446.3 382.575C1447.04 384.585 1448.56 386.228 1449.66 386.228C1450.77 386.228 1452.32 388.253 1453.11 390.729C1453.89 393.205 1456.65 397.197 1459.23 399.602C1461.8 402.007 1464.62 406.235 1465.49 408.997C1466.36 411.759 1469.31 416.095 1472.05 418.632C1474.79 421.166 1477.03 424.099 1477.03 425.147C1477.03 426.197 1478.91 428.663 1481.21 430.63C1483.51 432.596 1485.39 435.624 1485.39 437.356C1485.39 439.091 1486.33 440.509 1487.48 440.509C1488.62 440.509 1489.56 441.918 1489.56 443.64C1489.56 445.363 1490.9 446.772 1492.53 446.772C1494.16 446.772 1496.12 449.59 1496.88 453.035C1497.63 456.48 1499.12 459.298 1500.17 459.298C1501.23 459.298 1502.1 460.707 1502.1 462.43C1502.1 464.152 1503.51 465.561 1505.23 465.561C1506.96 465.561 1508.37 466.971 1508.37 468.693C1508.37 470.415 1509.7 471.825 1511.34 471.825C1512.97 471.825 1514.92 474.643 1515.68 478.088C1516.43 481.532 1517.92 484.351 1518.98 484.351C1520.04 484.351 1520.9 485.76 1520.9 487.482C1520.9 489.205 1522.31 490.614 1524.04 490.614C1525.76 490.614 1527.17 492.023 1527.17 493.746C1527.17 495.468 1528.58 496.877 1530.3 496.877C1532.03 496.877 1533.44 498.286 1533.44 500.009C1533.44 501.731 1534.91 503.14 1536.72 503.14C1538.53 503.14 1541.41 504.55 1543.14 506.272C1547.55 510.681 1577.82 510.681 1582.23 506.272C1583.96 504.55 1586.37 503.14 1587.61 503.14C1588.84 503.14 1589.84 500.322 1589.84 496.877C1589.84 492.702 1590.89 490.614 1592.98 490.614C1595.73 490.614 1596.11 473.332 1596.11 347.605V204.596H1583.58H1571.04V347.605C1571.04 473.332 1570.66 490.614 1567.91 490.614C1566.18 490.614 1564.77 492.023 1564.77 493.746C1564.77 495.468 1563.8 496.877 1562.62 496.877C1561.43 496.877 1559.92 495.468 1559.26 493.746C1558.6 492.023 1555.88 490.614 1553.22 490.614C1549.55 490.614 1548.06 489.109 1547.02 484.351C1546.26 480.906 1544.3 478.088 1542.67 478.088C1541.04 478.088 1539.7 476.678 1539.7 474.956C1539.7 473.234 1538.29 471.825 1536.57 471.825C1534.85 471.825 1533.44 470.415 1533.44 468.693C1533.44 466.971 1532.57 465.561 1531.51 465.561C1530.46 465.561 1528.97 462.743 1528.21 459.298C1527.46 455.853 1525.5 453.035 1523.87 453.035C1522.24 453.035 1520.9 451.626 1520.9 449.903C1520.9 448.181 1520.04 446.772 1518.98 446.772C1517.92 446.772 1516.43 443.953 1515.68 440.509C1514.92 437.064 1512.97 434.246 1511.34 434.246C1509.7 434.246 1508.37 432.836 1508.37 431.114C1508.37 429.392 1506.96 427.982 1505.23 427.982C1503.51 427.982 1502.1 426.573 1502.1 424.851C1502.1 423.128 1501.26 421.719 1500.24 421.719C1499.21 421.719 1497.74 419.183 1496.96 416.085C1496.18 412.984 1493.37 408.433 1490.71 405.972C1488.05 403.508 1485.23 399.468 1484.45 396.992C1483.66 394.516 1482.11 392.491 1481 392.491C1479.89 392.491 1478.38 390.848 1477.64 388.838C1476.9 386.827 1474.22 383.218 1471.68 380.813C1469.15 378.407 1466.43 374.416 1465.64 371.94C1464.86 369.464 1463.34 367.439 1462.27 367.439C1461.19 367.439 1460.32 366 1460.32 364.242C1460.32 362.482 1458.99 360.537 1457.37 359.914C1455.75 359.294 1453.85 356.505 1453.15 353.718C1452.45 350.929 1450.96 348.649 1449.83 348.649C1448.7 348.649 1447.78 347.24 1447.78 345.518C1447.78 343.795 1446.37 342.386 1444.65 342.386C1442.92 342.386 1441.51 340.948 1441.51 339.19C1441.51 337.43 1440.1 335.451 1438.38 334.791C1436.66 334.129 1435.25 331.34 1435.25 328.592C1435.25 325.544 1434.02 323.596 1432.11 323.596C1430.39 323.596 1428.98 322.158 1428.98 320.4C1428.98 318.64 1427.65 316.694 1426.03 316.072C1424.41 315.452 1422.52 312.663 1421.82 309.876C1421.12 307.087 1419.62 304.807 1418.49 304.807C1417.37 304.807 1416.44 303.398 1416.44 301.675C1416.44 299.953 1415.03 298.544 1413.31 298.544C1411.59 298.544 1410.18 297.105 1410.18 295.348C1410.18 293.588 1408.77 291.608 1407.04 290.949C1405.32 290.287 1403.91 287.498 1403.91 284.75C1403.91 281.702 1402.69 279.754 1400.78 279.754C1399.05 279.754 1397.64 278.345 1397.64 276.623C1397.64 274.9 1396.23 273.491 1394.51 273.491C1392.78 273.491 1391.37 271.679 1391.37 269.464C1391.37 267.251 1389.96 264.03 1388.24 262.307C1386.52 260.585 1385.11 258.169 1385.11 256.938C1385.11 255.708 1383.7 254.702 1381.97 254.702C1380.25 254.702 1378.84 253.293 1378.84 251.57C1378.84 249.848 1377.43 248.439 1375.71 248.439C1373.62 248.439 1372.57 246.351 1372.57 242.175C1372.57 238 1371.53 235.912 1369.44 235.912C1367.71 235.912 1366.3 234.503 1366.3 232.781C1366.3 231.058 1364.89 229.649 1363.17 229.649C1361.22 229.649 1360.04 227.678 1360.04 224.43C1360.04 221.181 1358.85 219.211 1356.9 219.211C1355.16 219.211 1353.77 217.355 1353.77 215.035C1353.77 212.716 1352.38 210.86 1350.64 210.86C1348.91 210.86 1347.5 209.45 1347.5 207.728C1347.5 205.64 1345.41 204.596 1341.23 204.596C1337.06 204.596 1334.97 203.553 1334.97 201.465C1334.97 198.914 1331.48 198.333 1316.16 198.333C1300.84 198.333 1297.36 198.914 1297.36 201.465ZM1943.67 201.465C1942.76 203.83 1938.93 204.596 1928 204.596C1917.07 204.596 1913.24 205.363 1912.33 207.728C1911.51 209.853 1908.18 210.86 1901.95 210.86C1895.18 210.86 1892.77 211.682 1892.77 213.991C1892.77 216.252 1890.45 217.123 1884.41 217.123C1878.38 217.123 1876.06 217.993 1876.06 220.254C1876.06 222.342 1873.97 223.386 1869.79 223.386C1865.61 223.386 1863.52 224.43 1863.52 226.518C1863.52 228.605 1861.43 229.649 1857.25 229.649C1853.08 229.649 1850.99 230.693 1850.99 232.781C1850.99 234.868 1848.9 235.912 1844.72 235.912C1840.54 235.912 1838.45 236.956 1838.45 239.044C1838.45 240.766 1837.04 242.175 1835.32 242.175C1833.6 242.175 1832.18 243.585 1832.18 245.307C1832.18 247.029 1830.77 248.439 1829.05 248.439C1827.33 248.439 1825.92 249.848 1825.92 251.57C1825.92 253.293 1824.51 254.702 1822.78 254.702C1821.06 254.702 1819.65 256.111 1819.65 257.833C1819.65 259.556 1818.24 260.965 1816.52 260.965C1814.79 260.965 1813.38 262.374 1813.38 264.096C1813.38 265.819 1811.97 267.228 1810.25 267.228C1808.53 267.228 1807.12 268.637 1807.12 270.36C1807.12 272.082 1805.7 273.491 1803.98 273.491C1802.07 273.491 1800.85 275.439 1800.85 278.487C1800.85 281.235 1799.44 284.024 1797.71 284.686C1795.99 285.345 1794.58 287.247 1794.58 288.909C1794.58 290.573 1793.58 292.266 1792.36 292.673C1791.13 293.08 1789.6 297.387 1788.95 302.243C1788.21 307.742 1786.69 311.07 1784.9 311.07C1782.81 311.07 1782.05 314.363 1782.05 323.423C1782.05 331.085 1781.11 336.087 1779.57 336.599C1776.25 337.707 1776.35 372.153 1779.68 373.263C1781.05 373.718 1782.05 378.804 1782.05 385.357C1782.05 394.017 1782.78 396.667 1785.18 396.667C1787.27 396.667 1788.31 398.761 1788.31 402.995C1788.31 406.694 1789.61 409.823 1791.45 410.525C1793.17 411.187 1794.58 413.976 1794.58 416.723C1794.58 419.771 1795.8 421.719 1797.71 421.719C1799.45 421.719 1800.85 423.575 1800.85 425.895C1800.85 428.214 1802.24 430.07 1803.98 430.07C1805.93 430.07 1807.12 432.041 1807.12 435.289C1807.12 438.538 1808.3 440.509 1810.25 440.509C1811.97 440.509 1813.38 441.918 1813.38 443.64C1813.38 445.363 1814.79 446.772 1816.52 446.772C1818.24 446.772 1819.65 448.181 1819.65 449.903C1819.65 451.626 1821.09 453.035 1822.85 453.035C1824.61 453.035 1826.59 454.444 1827.25 456.167C1827.91 457.889 1830.7 459.298 1833.45 459.298C1836.5 459.298 1838.45 460.52 1838.45 462.43C1838.45 464.152 1839.86 465.561 1841.59 465.561C1843.31 465.561 1844.72 466.971 1844.72 468.693C1844.72 470.781 1846.81 471.825 1850.99 471.825C1855.17 471.825 1857.25 472.868 1857.25 474.956C1857.25 477.044 1859.34 478.088 1863.52 478.088C1867.7 478.088 1869.79 479.132 1869.79 481.219C1869.79 483.307 1871.88 484.351 1876.06 484.351C1880.24 484.351 1882.32 485.395 1882.32 487.482C1882.32 489.453 1884.31 490.614 1887.7 490.614C1890.65 490.614 1894.48 492.023 1896.2 493.746C1897.93 495.468 1902.16 496.877 1905.6 496.877C1909.05 496.877 1913.28 498.286 1915.01 500.009C1917.07 502.076 1922.28 503.14 1930.3 503.14C1939.18 503.14 1942.79 503.984 1943.67 506.272C1944.63 508.781 1949.24 509.403 1966.87 509.403C1980.14 509.403 1988.87 510.232 1988.87 511.491C1988.87 512.639 1992.63 513.579 1997.23 513.579C2001.82 513.579 2005.58 512.639 2005.58 511.491C2005.58 510.216 2015.33 509.403 2030.65 509.403C2051.55 509.403 2055.72 508.882 2055.72 506.272C2055.72 503.836 2058.51 503.14 2068.26 503.14C2078.01 503.14 2080.79 502.445 2080.79 500.009C2080.79 497.689 2083.23 496.877 2090.2 496.877C2097.15 496.877 2099.6 496.065 2099.6 493.746C2099.6 491.658 2101.69 490.614 2105.86 490.614C2110.04 490.614 2112.13 489.57 2112.13 487.482C2112.13 485.395 2114.22 484.351 2118.4 484.351C2122.58 484.351 2124.67 483.307 2124.67 481.219C2124.67 479.132 2126.76 478.088 2130.93 478.088C2135.11 478.088 2137.2 477.044 2137.2 474.956C2137.2 473.008 2139.16 471.825 2142.42 471.825C2145.68 471.825 2147.65 470.641 2147.65 468.693C2147.65 466.954 2149.51 465.561 2151.82 465.561C2154.14 465.561 2156 464.169 2156 462.43C2156 460.707 2157.42 459.298 2159.14 459.298C2160.85 459.298 2162.27 457.889 2162.27 456.167C2162.27 454.444 2163.69 453.035 2165.4 453.035C2167.12 453.035 2168.54 451.626 2168.54 449.903C2168.54 448.181 2169.96 446.772 2171.67 446.772C2173.39 446.772 2174.81 445.363 2174.81 443.64C2174.81 441.918 2176.23 440.509 2177.94 440.509C2179.65 440.509 2181.07 439.1 2181.07 437.377C2181.07 435.655 2182.49 434.246 2184.21 434.246C2185.92 434.246 2187.34 432.836 2187.34 431.114C2187.34 429.392 2188.26 427.982 2189.39 427.982C2190.52 427.982 2192.08 425.408 2192.88 422.262C2193.67 419.116 2195.57 415.291 2197.1 413.761C2198.62 412.233 2199.88 409.64 2199.88 408.001C2199.88 406.36 2200.73 405.018 2201.8 405.018C2202.86 405.018 2204.39 401.963 2205.2 398.232C2206 394.502 2207.73 390.777 2209.03 389.957C2212.47 387.765 2212.29 312.77 2208.82 311.615C2207.42 311.147 2205.66 307.546 2204.93 303.611C2204.2 299.675 2202.86 296.456 2201.96 296.456C2201.07 296.456 2199.73 294.107 2199.02 291.237C2198.29 288.366 2196.87 286.018 2195.82 286.018C2194.8 286.018 2193.32 283.199 2192.56 279.754C2191.81 276.31 2190.33 273.491 2189.26 273.491C2188.2 273.491 2187.34 272.082 2187.34 270.36C2187.34 268.637 2185.92 267.228 2184.21 267.228C2182.49 267.228 2181.07 265.819 2181.07 264.096C2181.07 262.374 2179.65 260.965 2177.94 260.965C2176.23 260.965 2174.81 259.556 2174.81 257.833C2174.81 256.111 2173.39 254.702 2171.67 254.702C2169.96 254.702 2168.54 253.293 2168.54 251.57C2168.54 249.848 2167.12 248.439 2165.4 248.439C2163.69 248.439 2162.27 247.029 2162.27 245.307C2162.27 243.568 2160.41 242.175 2158.09 242.175C2155.77 242.175 2153.91 240.783 2153.91 239.044C2153.91 237.096 2151.95 235.912 2148.69 235.912C2145.43 235.912 2143.47 234.729 2143.47 232.781C2143.47 230.693 2141.38 229.649 2137.2 229.649C2133.02 229.649 2130.93 228.605 2130.93 226.518C2130.93 224.43 2128.84 223.386 2124.67 223.386C2120.49 223.386 2118.4 222.342 2118.4 220.254C2118.4 217.935 2115.95 217.123 2109 217.123C2102.04 217.123 2099.6 216.311 2099.6 213.991C2099.6 211.672 2097.15 210.86 2090.2 210.86C2083.23 210.86 2080.79 210.048 2080.79 207.728C2080.79 205.223 2077.66 204.596 2065.13 204.596C2052.59 204.596 2049.46 203.97 2049.46 201.465C2049.46 198.765 2042.25 198.333 1997.16 198.333C1952.61 198.333 1944.69 198.797 1943.67 201.465ZM1977.9 212.194C1975.89 212.776 1974.25 214.125 1974.25 215.187C1974.25 216.265 1963.58 217.123 1950.22 217.123C1930.26 217.123 1926.2 217.653 1926.2 220.254C1926.2 222.691 1923.41 223.386 1913.66 223.386C1903.91 223.386 1901.13 224.081 1901.13 226.518C1901.13 228.705 1898.92 229.649 1893.81 229.649C1888.71 229.649 1886.5 230.593 1886.5 232.781C1886.5 234.729 1884.53 235.912 1881.28 235.912C1878.03 235.912 1876.06 237.096 1876.06 239.044C1876.06 241.132 1873.97 242.175 1869.79 242.175C1865.61 242.175 1863.52 243.219 1863.52 245.307C1863.52 247.395 1861.43 248.439 1857.25 248.439C1853.08 248.439 1850.99 249.482 1850.99 251.57C1850.99 253.293 1849.58 254.702 1847.85 254.702C1846.13 254.702 1844.72 256.111 1844.72 257.833C1844.72 259.556 1843.31 260.965 1841.59 260.965C1839.86 260.965 1838.45 262.374 1838.45 264.096C1838.45 265.819 1837.04 267.228 1835.32 267.228C1833.6 267.228 1832.18 268.637 1832.18 270.36C1832.18 272.082 1830.77 273.491 1829.05 273.491C1827.33 273.491 1825.92 274.497 1825.92 275.727C1825.92 276.959 1824.51 279.374 1822.78 281.097C1821.06 282.819 1819.65 286.04 1819.65 288.253C1819.65 290.469 1818.24 292.281 1816.52 292.281C1814.54 292.281 1813.38 294.268 1813.38 297.648C1813.38 300.602 1811.97 304.427 1810.25 306.149C1808.12 308.275 1807.12 313.536 1807.12 322.528C1807.12 331.269 1806.23 336.071 1804.5 336.645C1802.78 337.219 1801.89 342.014 1801.89 350.737C1801.89 359.459 1802.78 364.255 1804.5 364.829C1806.23 365.403 1807.12 370.205 1807.12 378.946C1807.12 387.938 1808.12 393.199 1810.25 395.324C1811.97 397.047 1813.38 400.901 1813.38 403.89C1813.38 406.88 1814.79 409.865 1816.52 410.525C1818.24 411.187 1819.65 413.976 1819.65 416.723C1819.65 419.771 1820.87 421.719 1822.78 421.719C1824.87 421.719 1825.92 423.807 1825.92 427.982C1825.92 432.158 1826.96 434.246 1829.05 434.246C1830.77 434.246 1832.18 435.655 1832.18 437.377C1832.18 439.1 1833.6 440.509 1835.32 440.509C1837.04 440.509 1838.45 441.918 1838.45 443.64C1838.45 445.363 1839.86 446.772 1841.59 446.772C1843.31 446.772 1844.72 448.181 1844.72 449.903C1844.72 451.626 1846.13 453.035 1847.85 453.035C1849.58 453.035 1850.99 454.444 1850.99 456.167C1850.99 458.125 1852.97 459.298 1856.27 459.298C1859.19 459.298 1862.11 460.707 1862.77 462.43C1863.43 464.152 1865.28 465.561 1866.88 465.561C1868.48 465.561 1869.79 466.971 1869.79 468.693C1869.79 470.781 1871.88 471.825 1876.06 471.825C1880.24 471.825 1882.32 472.868 1882.32 474.956C1882.32 477.276 1884.76 478.088 1891.73 478.088C1898.69 478.088 1901.13 478.9 1901.13 481.219C1901.13 483.539 1903.56 484.351 1910.53 484.351C1917.49 484.351 1919.93 485.163 1919.93 487.482C1919.93 489.971 1922.96 490.614 1934.7 490.614C1945.3 490.614 1950.4 491.535 1952.73 493.869C1955.5 496.639 1961.94 497.027 1995.76 496.478C2025.25 496 2035.76 495.159 2036.4 493.224C2036.99 491.449 2042.22 490.614 2052.76 490.614C2065.14 490.614 2068.26 489.986 2068.26 487.482C2068.26 485.163 2070.7 484.351 2077.66 484.351C2084.62 484.351 2087.06 483.539 2087.06 481.219C2087.06 478.9 2089.51 478.088 2096.46 478.088C2103.42 478.088 2105.86 477.276 2105.86 474.956C2105.86 473.234 2107.26 471.825 2109 471.825C2110.71 471.825 2112.13 470.415 2112.13 468.693C2112.13 466.605 2114.22 465.561 2118.4 465.561C2122.58 465.561 2124.67 464.518 2124.67 462.43C2124.67 460.707 2126.07 459.298 2127.8 459.298C2129.51 459.298 2130.93 458.378 2130.93 457.25C2130.93 456.125 2133.27 454.613 2136.16 453.893C2139.02 453.173 2141.38 451.275 2141.38 449.678C2141.38 448.079 2142.36 446.772 2143.57 446.772C2146.52 446.772 2156 436.369 2156 433.12C2156 431.688 2157.42 429.976 2159.14 429.314C2160.85 428.655 2162.27 426.676 2162.27 424.916C2162.27 423.158 2163.13 421.719 2164.19 421.719C2165.26 421.719 2166.74 418.901 2167.49 415.456C2168.25 412.011 2169.69 409.193 2170.69 409.193C2171.71 409.193 2173.18 405.671 2173.97 401.364C2174.76 397.059 2176.46 392.865 2177.71 392.047C2180.91 389.99 2180.93 313.596 2177.75 311.517C2176.48 310.696 2174.85 306.277 2174.14 301.692C2173.41 297.107 2171.86 293.036 2170.67 292.646C2169.5 292.254 2168.54 290.602 2168.54 288.976C2168.54 287.347 2167.12 286.018 2165.4 286.018C2163.69 286.018 2162.27 284.205 2162.27 281.99C2162.27 279.777 2160.85 276.556 2159.14 274.834C2157.42 273.111 2156 270.696 2156 269.464C2156 268.234 2154.58 267.228 2152.87 267.228C2151.16 267.228 2149.74 265.819 2149.74 264.096C2149.74 262.374 2148.29 260.965 2146.54 260.965C2144.78 260.965 2142.82 259.641 2142.21 258.021C2141.59 256.403 2138.79 254.505 2136.01 253.806C2133.21 253.107 2130.93 251.612 2130.93 250.487C2130.93 249.359 2129.51 248.439 2127.8 248.439C2126.07 248.439 2124.67 247.029 2124.67 245.307C2124.67 243.219 2122.58 242.175 2118.4 242.175C2114.22 242.175 2112.13 241.132 2112.13 239.044C2112.13 236.956 2110.04 235.912 2105.86 235.912C2101.69 235.912 2099.6 234.868 2099.6 232.781C2099.6 230.461 2097.15 229.649 2090.2 229.649C2083.23 229.649 2080.79 228.837 2080.79 226.518C2080.79 224.246 2078.46 223.386 2072.29 223.386C2067.51 223.386 2062.41 222.012 2060.65 220.254C2058.25 217.856 2052.21 217.123 2034.86 217.123C2019.02 217.123 2011.95 216.365 2011.36 214.603C2010.49 212.004 1984.92 210.162 1977.9 212.194Z" fill="white"/>
</g>
</g>
<defs>
<clipPath id="clip0_4397_845">
<rect width="2484" height="714" fill="white"/>
</clipPath>
</defs>
</svg>
