<svg width="1032" height="394" viewBox="0 0 1032 394" fill="none" xmlns="http://www.w3.org/2000/svg">
<path fill-rule="evenodd" clip-rule="evenodd" d="M117.145 3.22388C82.8857 9.47797 55.4575 23.0314 33.7142 44.4503C8.06998 69.7106 -1.951 93.3965 0.309486 123.41C1.80197 143.214 8.93153 159.313 22.7686 174.118C42.7648 195.515 72.112 207.81 150.087 227.463C204.756 241.241 227.085 250.443 245.038 266.601C267.534 286.846 274.47 315.517 263.085 341.208C241.568 389.767 149.617 397.11 65.4741 356.992L43.1739 346.36V355.868V365.375L60.035 371.865C82.9902 380.699 97.3145 384.617 120.409 388.377C179.599 398.016 222.337 393.514 264.395 373.208C308.016 352.146 332.577 316.976 332.507 275.671C332.451 241.045 318.533 213.487 290.426 192.338C265.857 173.853 238.502 163.6 158.106 142.748C99.0376 127.428 79.0697 118.785 63.8859 101.963C54.5611 91.6304 51.8764 85.3088 51.8764 73.6804C51.8764 61.6164 56.5214 51.7649 67.9978 39.4854C86.8062 19.36 114.524 9.79154 154.131 9.75235C172.069 9.73492 182.845 10.8433 192.205 13.6677C234.073 26.3022 263.411 54.9834 271.631 91.3125C273.119 97.8997 274.698 104.574 275.136 106.144C275.658 108.015 278.747 108.766 284.108 108.322L292.284 107.645L292.869 58.104L293.455 8.56337H283.623C275.427 8.56337 273.791 9.24932 273.791 12.6856C273.791 21.6029 260.106 21.6399 230.609 12.8075C187.323 -0.153592 151.988 -3.13909 117.145 3.22388ZM320.931 12.1934C320.132 12.9904 319.48 16.9101 319.48 20.9039V28.1618L340.692 28.2098L361.904 28.2555L443.667 210.584L525.427 392.911H534.711H543.992L563.138 350.722C581.511 310.232 582.166 308.257 579.37 301.726C577.766 297.983 549.629 235.143 516.842 162.085L457.228 29.2506L473.203 28.6148L489.179 27.9789V19.36V10.741H405.78C359.909 10.741 321.727 11.3943 320.931 12.1934ZM640.775 12.1651C639.964 12.9796 639.298 16.9101 639.298 20.9039V28.1618H659.953H680.611L681.166 210.537L681.723 392.911H716.533H751.343L752.024 385.834L752.707 378.757H732.987H713.269V212.793C713.269 72.6743 713.731 47.3226 716.23 50.0163C718.793 52.7732 879.608 264.217 952.589 360.785L977.609 393.891L986.856 393.946L996.102 394V332.173V270.347L957.276 219.482C935.92 191.506 891.598 133.34 858.782 90.2237L799.118 11.8298L720.686 11.2593C677.548 10.9435 641.587 11.3529 640.775 12.1651ZM948.238 18.3626V26.0779L990.119 25.4877L1032 24.8954V18.3626V11.8298L990.119 11.2375L948.238 10.6473V18.3626Z" fill="white"/>
</svg>
