<svg width="1892" height="685" viewBox="0 0 1892 685" fill="none" xmlns="http://www.w3.org/2000/svg">
<path fill-rule="evenodd" clip-rule="evenodd" d="M143.569 83.4418L0 166.678L2.31149 337.833L4.62299 508.998L150.161 593.407L295.7 677.816L325.664 662.044L355.628 646.272L358.042 545.662C359.369 490.323 362.459 445.053 364.916 445.053C367.365 445.053 406.737 466.69 452.393 493.14L535.41 541.227L565.374 523.991C591.083 509.212 595.278 502.379 594.91 475.904C594.67 458.941 593.711 381.81 592.77 304.508L591.057 163.963L449.971 81.8834C372.364 36.7419 303.987 -0.111061 298.011 0.000251498C292.027 0.111564 222.537 37.6581 143.569 83.4418ZM423.868 134.662L539.357 201.022L539.52 335.881C539.614 410.058 537.705 470.741 535.265 470.741C532.833 470.741 481.142 441.842 420.392 406.522C359.643 371.202 307.788 342.303 305.177 342.303C302.557 342.303 299.355 401.992 298.054 474.945L295.7 607.586L180.125 540.885C67.0333 475.613 64.4907 473.498 61.8966 442.493C58.8831 406.59 60.1587 405.88 94.9424 423.869L120.198 436.927V403.302C120.198 373.959 116.388 367.434 90.2338 352.004C64.9786 337.097 60.27 329.562 60.27 304.063C60.27 287.417 62.4018 273.803 65.0043 273.803C67.6069 273.803 106.44 294.995 151.292 320.897C196.152 346.798 234.471 367.991 236.449 367.991C238.435 367.991 240.053 352.98 240.053 334.64C240.053 301.349 239.933 301.229 154.442 252.816C107.356 226.153 68.8311 202.786 68.8311 200.902C68.8311 195.191 142.388 153.928 152.559 153.928C157.764 153.928 204.499 178.776 256.43 209.148C399.426 292.786 385.591 288.531 385.591 248.903V214.833L299.647 166.164C252.372 139.398 215.739 115.448 218.239 112.957C229.702 101.491 288.252 68.8085 297.763 68.5688C303.602 68.4232 360.353 98.1605 423.868 134.662ZM751.886 196.792C749.806 210.946 750.011 224.432 752.34 226.761C754.668 229.09 786.747 230.991 823.636 230.991H890.695V367.991V504.991H920.659H950.623V367.991V230.991H1053.36H1156.09V367.991V504.991H1378.45H1600.81L1603.17 382.298L1605.55 259.606L1715.37 382.298C1816.14 494.878 1827.6 504.991 1854.49 504.991H1883.78V338.022V171.053H1854.05H1824.32L1821.94 292.718L1819.57 414.382L1712.56 293.12C1611.5 178.605 1603.77 171.841 1573.66 171.456L1541.77 171.053L1539.41 310.194L1537.06 449.334L1376.54 451.663L1216.02 453.992V406.71V359.428H1318.75H1421.48V329.459V299.491H1318.75H1216.02V265.463V231.436L1346.57 229.073L1477.13 226.709L1479.81 198.881L1482.5 171.053H1119.08H755.661L751.886 196.792ZM385.591 573.491C385.591 620.584 387.774 659.116 390.454 659.116C398.202 659.116 530.522 578.226 530.522 573.491C530.522 568.755 398.202 487.866 390.454 487.866C387.774 487.866 385.591 526.397 385.591 573.491Z" fill="white"/>
</svg>
