<svg width="1645" height="459" viewBox="0 0 1645 459" fill="none" xmlns="http://www.w3.org/2000/svg">
<path fill-rule="evenodd" clip-rule="evenodd" d="M613.006 231.394C613.006 394.247 613.267 461.194 613.585 380.162C613.903 299.13 613.903 165.887 613.585 84.0651C613.267 2.24376 613.006 68.5409 613.006 231.394ZM153.533 24.6243V49.2464L136.013 31.8293L118.493 14.4122L109.656 23.0385L100.821 31.667L127.178 58.0854C153.426 84.3985 153.533 84.5477 153.533 94.8913C153.533 100.605 152.779 105.279 151.86 105.279C150.939 105.279 136.408 91.4741 119.567 74.6032L88.9506 43.9276L80.6247 52.0604L72.2967 60.191L112.915 100.851L153.533 141.51V151.909C153.533 157.627 152.783 162.305 151.869 162.305C150.952 162.305 130.003 142.087 105.315 117.377L60.4285 72.4516L52.1026 80.58L43.7789 88.7084L98.6561 143.618L153.533 198.525V210.56V222.592L92.6091 161.697L31.6849 100.802L23.5367 109.146L15.3906 117.489L31.8209 133.809C40.8596 142.787 48.2533 150.897 48.2533 151.832C48.2533 152.766 37.3963 153.532 24.1267 153.532H0V164.498V175.465H36.8414H73.6828L82.25 184.238L90.8172 193.011H45.4086H0V205.074V217.138H57.6934H115.387L122.397 224.371C126.253 228.348 129.407 232.296 129.407 233.144C129.407 233.991 100.29 234.684 64.7033 234.684H0V245.651V256.617H76.7667H153.533V265.39V274.164H76.7667H0V286.227V298.29H76.7667H153.533V378.346V458.401H165.597H177.66V229.201V0H165.597H153.533V24.6243ZM193.013 229.201V458.401H205.077H217.14V229.201V0H205.077H193.013V229.201ZM234.687 229.201V458.401H246.75H258.813V229.201V0H246.75H234.687V229.201ZM274.167 229.201V458.401H286.23H298.293V378.346V298.29H375.06H451.827V286.227V274.164H375.06H298.293V265.39V256.617H375.06H451.827V245.651V234.684H387.123C351.536 234.684 322.42 233.89 322.42 232.921C322.42 231.951 325.675 228.003 329.654 224.147L336.885 217.138H394.357H451.827V205.074V193.011H406.418H361.009L369.577 184.238L378.144 175.465H414.985H451.827V164.498V153.532H427.7C414.43 153.532 403.573 152.766 403.573 151.832C403.573 150.897 410.967 142.787 420.006 133.809L436.436 117.489L428.29 109.146L420.142 100.802L359.218 161.697L298.293 222.592V210.56V198.525L353.171 143.618L408.048 88.7084L399.724 80.58L391.398 72.4516L346.512 117.377C321.823 142.087 300.875 162.305 299.958 162.305C299.043 162.305 298.293 157.627 298.293 151.909V141.51L338.912 100.851L379.53 60.191L370.632 51.5011L361.733 42.8134L330.72 74.0461C313.66 91.2241 299.386 105.279 299 105.279C298.611 105.279 298.293 100.605 298.293 94.8913C298.293 84.5477 298.401 84.3985 324.648 58.0854L351.006 31.667L342.171 23.0385L333.334 14.4122L315.814 31.8293L298.293 49.2464V24.6243V0H286.23H274.167V229.201ZM1518.17 83.3523C1469.18 90.2656 1460.76 106.343 1460.76 193.011C1460.76 234.686 1463.68 262.541 1469.41 275.488C1473.55 284.845 1483.4 293.561 1494.76 297.922C1511.61 304.39 1554.6 306.616 1585.78 302.635C1623.31 297.84 1636.68 283.147 1640.59 242.361C1643.29 214.231 1643.28 171.604 1640.57 143.701C1636.99 106.963 1626.28 92.029 1598.94 85.6948C1585.04 82.475 1534.73 81.0164 1518.17 83.3523ZM787.407 84.3788C787.407 84.9446 804.186 109.157 824.693 138.178C845.201 167.2 861.98 191.757 861.98 192.748C861.98 193.739 849.362 212.216 833.94 233.809C818.519 255.4 801.161 279.728 795.366 287.872L784.827 302.677L805.309 302.611L825.79 302.545L854.104 262.035C869.679 239.753 883.17 221.524 884.089 221.524C885.006 221.524 898.692 239.783 914.504 262.1L943.247 302.677H963.165C978.815 302.677 982.844 302.054 981.966 299.766C981.352 298.165 964.468 273.589 944.445 245.153C924.422 216.716 908.04 192.748 908.04 191.89C908.04 191.031 924.819 166.718 945.327 137.86C965.834 109.003 982.613 84.8942 982.613 84.2867C982.613 83.6791 973.59 83.4642 962.56 83.8107L942.506 84.4424L915.399 122.825C900.488 143.936 887.396 161.506 886.304 161.873C885.212 162.237 873.216 146.939 859.646 127.876C825.211 79.5031 829.775 83.3457 806.765 83.3457C796.119 83.3457 787.407 83.8107 787.407 84.3788ZM1041.29 84.5959C1040.38 85.5171 1039.64 134.961 1039.64 194.474V302.677H1057.19H1074.73V264.526V226.376L1116.96 225.325C1165.41 224.119 1172.56 222.441 1185.91 209.136C1197.99 197.095 1200.71 187.078 1200.71 154.628C1200.71 123.678 1197.97 112.554 1187.47 100.94C1174.37 86.4317 1167.23 85.0258 1101.05 83.905C1069.09 83.3655 1042.19 83.6747 1041.29 84.5959ZM1244.54 86.3067C1243.9 87.9648 1243.68 95.1326 1244.05 102.234L1244.72 115.149L1277.04 115.756L1309.37 116.362L1309.94 208.972L1310.52 301.58H1328.06H1345.61L1346.18 208.972L1346.75 116.362L1379.08 115.756L1411.41 115.149V99.7955V84.4424L1328.55 83.8677C1259.91 83.3918 1245.5 83.8107 1244.54 86.3067ZM1518.25 113.916C1499.26 118.68 1496.99 127.276 1497.11 194.108C1497.24 272.738 1497.46 273.067 1549.2 273.067C1586.76 273.067 1594.85 271.034 1600.47 260.168C1608.99 243.681 1609.04 142.429 1600.53 125.973C1595.01 115.287 1588.04 113.247 1555.07 112.646C1538.79 112.348 1522.21 112.92 1518.25 113.916ZM1076.38 115.311C1075.47 116.228 1074.73 134.577 1074.73 156.091V195.204L1108.18 195.082C1160.8 194.886 1165.76 191.425 1165.76 154.92C1165.76 130.859 1163.32 123.716 1153.15 118.024C1147.61 114.927 1079.15 112.508 1076.38 115.311ZM787.407 420.986C787.407 437.543 788.321 449.933 789.6 450.725C790.971 451.572 791.793 447.093 791.793 438.791V425.502H804.824C811.992 425.502 818.464 424.515 819.21 423.309C820.061 421.931 815.212 421.115 806.179 421.115H791.793V409.052V396.989H807.147C815.92 396.989 822.5 396.048 822.5 394.796C822.5 393.517 815.19 392.602 804.953 392.602H787.407V420.986ZM870.72 397.537C859.385 423.758 849.213 450.729 850.287 451.71C851.018 452.374 852.022 451.931 852.522 450.725C859.534 433.784 860.225 433.211 874.456 432.529L888.006 431.88L892.785 442.399C895.415 448.185 897.986 451.824 898.497 450.486C899.716 447.295 877.322 392.602 874.796 392.602C873.727 392.602 871.892 394.822 870.72 397.537ZM936.553 422.212C936.553 440.489 937.393 451.822 938.747 451.822C940.069 451.822 941.004 442.028 941.098 427.147L941.256 402.472L953.21 427.537C960.119 442.02 965.957 451.743 967.041 450.567C968.074 449.446 973.072 439.155 978.152 427.695C983.232 416.235 988.287 405.922 989.389 404.775C990.595 403.516 991.387 412.463 991.387 427.386C991.387 443.29 992.168 451.598 993.58 450.725C994.859 449.933 995.773 437.543 995.773 420.986C995.773 398.654 995.144 392.602 992.819 392.602C991.189 392.602 984.662 403.88 978.255 417.764C971.868 431.604 966.03 442.548 965.282 442.083C964.531 441.62 959 430.299 952.99 416.922C946.98 403.547 940.824 392.602 939.308 392.602C937.233 392.602 936.553 399.908 936.553 422.212ZM1037.45 422.212C1037.45 440.489 1038.29 451.822 1039.64 451.822C1040.99 451.822 1041.83 440.489 1041.83 422.212C1041.83 403.935 1040.99 392.602 1039.64 392.602C1038.29 392.602 1037.45 403.935 1037.45 422.212ZM1083.99 421.664L1084.6 450.725L1100.51 451.37C1110.5 451.773 1116.41 451.164 1116.41 449.725C1116.41 448.369 1110.59 447.435 1102.15 447.435H1087.89V420.019C1087.89 402.687 1087.06 392.602 1085.64 392.602C1084.17 392.602 1083.59 402.808 1083.99 421.664ZM1139.57 395.059C1140.58 396.723 1145.65 404.674 1150.84 412.726C1159.08 425.511 1160.27 428.917 1160.27 439.594C1160.27 446.319 1161.26 451.822 1162.47 451.822C1163.67 451.822 1164.66 446.281 1164.66 439.508C1164.66 428.673 1165.88 425.241 1174.81 410.91C1180.39 401.952 1184.4 394.065 1183.72 393.383C1183.03 392.699 1177.91 399.261 1172.33 407.964L1162.19 423.789L1153 408.907C1147.96 400.722 1142.45 393.576 1140.78 393.028C1138.67 392.339 1138.29 392.964 1139.57 395.059ZM1264.8 396.614C1261.95 399.763 1261.17 405.176 1261.17 421.837C1261.17 440.125 1261.77 443.654 1265.55 447.435C1271.66 453.541 1293.51 453.66 1300.95 447.624C1305.78 443.713 1306.13 441.917 1306.13 421.126C1306.13 394.056 1304.95 392.602 1283.02 392.602C1271.67 392.602 1267.62 393.493 1264.8 396.614ZM1346.71 420.986C1346.71 437.543 1347.62 449.933 1348.9 450.725C1350.27 451.572 1351.09 447.093 1351.09 438.791V425.502H1364.12C1371.29 425.502 1377.76 424.515 1378.51 423.309C1379.36 421.931 1374.51 421.115 1365.48 421.115H1351.09V409.052V396.989H1366.45C1375.22 396.989 1381.8 396.048 1381.8 394.796C1381.8 393.517 1374.49 392.602 1364.25 392.602H1346.71V420.986ZM1419.09 422.341C1419.09 441.61 1419.86 451.602 1421.28 450.725C1422.49 449.979 1423.47 444 1423.47 437.436V425.502H1436.63C1443.94 425.502 1449.79 424.528 1449.79 423.309C1449.79 422.089 1443.94 421.115 1436.63 421.115H1423.47V409.052V396.989H1437.73C1445.77 396.989 1451.99 396.033 1451.99 394.796C1451.99 393.528 1445.04 392.602 1435.54 392.602H1419.09V422.341ZM1489.27 422.212C1489.27 440.489 1490.11 451.822 1491.47 451.822C1492.82 451.822 1493.66 440.489 1493.66 422.212C1493.66 403.935 1492.82 392.602 1491.47 392.602C1490.11 392.602 1489.27 403.935 1489.27 422.212ZM1540.5 395.811C1531.5 402.115 1531.91 442.285 1541.03 448.961C1545.6 452.3 1570.43 452.863 1570.43 449.628C1570.43 448.415 1564.67 447.435 1557.53 447.435C1540.32 447.435 1538.62 445.147 1538.62 421.96C1538.62 399.13 1540.75 396.362 1558.18 396.519C1564.92 396.579 1570.43 395.723 1570.43 394.616C1570.43 391.28 1545.55 392.273 1540.5 395.811ZM1608.2 421.664L1608.81 450.725L1626.91 451.361C1638.38 451.767 1645 451.164 1645 449.716C1645 448.339 1638.48 447.435 1628.55 447.435H1612.1V435.372V423.309H1626.36C1634.4 423.309 1640.61 422.352 1640.61 421.115C1640.61 419.878 1634.4 418.922 1626.36 418.922H1612.1V407.955V396.989H1628.55C1638.05 396.989 1645 396.063 1645 394.796C1645 393.504 1637.3 392.602 1626.29 392.602H1607.59L1608.2 421.664ZM1274.98 396.491C1270.08 397.022 1267.49 398.7 1266.41 402.055C1263.87 409.894 1264.91 440.723 1267.82 444.237C1270.87 447.902 1293.11 448.665 1298.45 445.29C1302.98 442.428 1304.46 406.273 1300.26 401.093C1297.13 397.245 1286.28 395.269 1274.98 396.491ZM869.115 410.601C866.632 416.987 863.904 423.938 863.055 426.05C861.695 429.432 862.969 429.888 873.809 429.888C881.042 429.888 886.107 428.928 886.107 427.553C886.107 424.796 877.285 403.253 875.122 400.731C874.302 399.772 871.598 404.214 869.115 410.601Z" fill="white"/>
</svg>
