<svg width="36" height="33" viewBox="0 0 36 33" fill="none" xmlns="http://www.w3.org/2000/svg">
<g clip-path="url(#clip0_4414_175)">
<path d="M8.96453 2.47883C7.63812 0.144097 4.70042 -0.65584 2.40301 0.692118C0.105588 2.04008 -0.681565 5.02549 0.644849 7.36022L6.88403 18.3423C8.21044 20.677 11.1481 21.477 13.4456 20.129C15.743 18.7811 16.5301 15.7957 15.2037 13.4609L8.96453 2.47883Z" fill="white"/>
<path d="M33.5972 0.654488C31.2996 -0.693561 28.3625 0.105898 27.036 2.4408L13.8349 25.678C12.5084 28.0129 13.2951 30.9977 15.5927 32.3457C17.8903 33.6938 20.8273 32.8943 22.1538 30.5594L35.3549 7.32219C36.6814 4.98729 35.8948 2.00254 33.5972 0.654488ZM31.1613 8.18059C29.402 8.18059 27.9759 6.73129 27.9759 4.94346C27.9759 3.15563 29.402 1.70633 31.1613 1.70633C32.9205 1.70633 34.3467 3.15563 34.3467 4.94346C34.3467 6.73129 32.9205 8.18059 31.1613 8.18059Z" fill="white"/>
</g>
<defs>
<clipPath id="clip0_4414_175">
<rect width="36" height="33" fill="white"/>
</clipPath>
</defs>
</svg>
