<svg width="44" height="44" viewBox="0 0 44 44" fill="none" xmlns="http://www.w3.org/2000/svg">
<path d="M35.1995 5.8667H8.79954C7.17888 5.8667 5.86621 7.17937 5.86621 8.80003V35.2C5.86621 36.8207 7.17888 38.1334 8.79954 38.1334H35.1995C36.8202 38.1334 38.1329 36.8207 38.1329 35.2V8.80003C38.1329 7.17937 36.8202 5.8667 35.1995 5.8667ZM16.0654 32.2667H11.7387V18.3451H16.0654V32.2667ZM13.8581 16.3548C12.4633 16.3548 11.3354 15.224 11.3354 13.8322C11.3354 12.4403 12.4647 11.311 13.8581 11.311C15.2485 11.311 16.3793 12.4418 16.3793 13.8322C16.3793 15.224 15.2485 16.3548 13.8581 16.3548ZM32.2721 32.2667H27.9483V25.4966C27.9483 23.8818 27.919 21.805 25.6999 21.805C23.4486 21.805 23.1025 23.5635 23.1025 25.3792V32.2667H18.7787V18.3451H22.9294V20.2474H22.9881C23.5659 19.1532 24.9769 17.999 27.0815 17.999C31.4625 17.999 32.2721 20.8824 32.2721 24.6312V32.2667Z" fill="white"/>
</svg>
