<svg preserveAspectRatio="xMidYMid meet" data-bbox="0.867 0.867 32.266 32.266" xmlns="http://www.w3.org/2000/svg" viewBox="0.867 0.867 32.266 32.266" height="34" width="34" data-type="shape" role="img" aria-label="Vector">
    <g>
        <path d="M30.2.867H3.8A2.933 2.933 0 0 0 .867 3.8v26.4A2.93 2.93 0 0 0 3.8 33.133h26.4a2.93 2.93 0 0 0 2.933-2.933V3.8A2.93 2.93 0 0 0 30.2.867m-19.134 26.4H6.739V13.345h4.327zM8.859 11.355a2.523 2.523 0 1 1 0-5.045 2.523 2.523 0 0 1 0 5.045m18.414 15.912h-4.324v-6.77c0-1.615-.03-3.692-2.249-3.692-2.25 0-2.597 1.759-2.597 3.574v6.888h-4.324V13.345h4.15v1.902h.06C18.566 14.153 19.976 13 22.082 13c4.38 0 5.19 2.883 5.19 6.632z"></path>
    </g>
</svg>