<svg width="100" height="34" viewBox="0 0 100 34" fill="none" xmlns="http://www.w3.org/2000/svg">
<mask id="mask0_4291_1701" style="mask-type:luminance" maskUnits="userSpaceOnUse" x="0" y="0" width="100" height="34">
<path d="M99.653 0H0V33.8591H99.653V0Z" fill="white"/>
</mask>
<g mask="url(#mask0_4291_1701)">
<path d="M83.9878 33.8607C87.3775 33.8607 89.6971 32.4699 90.8377 29.6145L99.651 7.67112H94.7984L89.5896 20.8718L84.4867 7.67112H79.5635L87.2347 26.796L86.7711 28.0087C86.1647 29.507 84.9519 29.9706 83.7376 29.9706C82.9162 29.9706 81.8816 29.7204 80.5613 29.0787V33.0394C81.8094 33.5752 83.059 33.8607 83.9862 33.8607M69.5021 6.63644V7.67112H66.3981V11.5243H69.5021V27.4377H74.2473V11.5243H78.5288V7.67112H74.2473V6.92198C74.2473 5.06596 75.2467 4.06816 76.7803 4.06816C77.3867 4.06816 78.0652 4.17564 78.5994 4.42429V0.393023C78.1005 0.21496 76.9583 0 75.7809 0C72.1057 0 69.5005 2.46239 69.5005 6.63644M58.406 2.78323C58.406 4.31681 59.5835 5.45898 61.1893 5.45898C62.7951 5.45898 63.9725 4.31681 63.9725 2.78323C63.9725 1.24965 62.7951 0.107476 61.1893 0.107476C59.5835 0.107476 58.406 1.24965 58.406 2.78323ZM58.8344 27.4377H63.5442V7.67112H58.8344V27.4377ZM44.0631 27.4377H48.8083V20.1596C48.8083 14.3445 51.2707 11.8099 54.1967 11.8099C55.1961 11.8099 56.0527 11.9879 56.8019 12.3088V7.777C56.1602 7.52675 55.3389 7.38398 54.447 7.38398C52.1273 7.38398 49.8093 8.63201 48.8099 10.4527V7.66952H44.0647V27.4361L44.0631 27.4377ZM38.5688 27.6879C39.5682 27.6879 40.388 27.5099 41.2093 27.2243V23.2283C40.6029 23.4417 39.8185 23.6213 39.2105 23.6213C37.7122 23.6213 36.7128 22.622 36.7128 20.7675V11.5259H40.9591V7.67273H36.7128V3.56927H31.9676V7.67273H29.1138V11.5259H31.9676V21.1959C31.9676 25.4068 34.8215 27.6895 38.5688 27.6895M21.6929 2.78323C21.6929 4.31681 22.8704 5.45898 24.4761 5.45898C26.0819 5.45898 27.2594 4.31681 27.2594 2.78323C27.2594 1.24965 26.0819 0.107476 24.4761 0.107476C22.8704 0.107476 21.6929 1.24965 21.6929 2.78323ZM22.1212 27.4377H26.8311V7.67112H22.1212V27.4377ZM7.88417 27.4377H12.416L20.3005 7.67112H15.3051L10.2391 21.0868L5.13621 7.67112H-0.00195312L7.88256 27.4377H7.88417Z" fill="#ffffff"/>
</g>
</svg>
