<svg preserveAspectRatio="xMidYMid meet" data-bbox="0 -0.001 35.999 33.002" xmlns="http://www.w3.org/2000/svg" viewBox="0 -0.001 35.999 33.002" height="33" width="36" data-type="color" role="img" aria-label="Layer_1"><defs><style>#comp-mbqzq7tc_r_comp-mbqzovvf svg [data-color="1"] {fill: #121212;}</style></defs>
    <g>
        <g clip-path="url(#0b87d659-8bc3-41e3-a641-7f85231bfd2f_comp-mbqzq7tc_r_comp-mbqzovvf)">
            <path fill="#121212" d="M8.964 2.479C7.638.144 4.7-.656 2.403.692.105 2.04-.682 5.025.645 7.36l6.239 10.982c1.326 2.335 4.264 3.135 6.561 1.787 2.298-1.348 3.085-4.333 1.758-6.668z" data-color="1"></path>
            <path fill="#121212" d="M33.597.654c-2.298-1.348-5.235-.548-6.561 1.787L13.835 25.678c-1.327 2.335-.54 5.32 1.757 6.668 2.298 1.348 5.235.548 6.562-1.787l13.2-23.237c1.327-2.335.54-5.32-1.757-6.668M31.16 8.18c-1.76 0-3.186-1.449-3.186-3.237 0-1.787 1.427-3.237 3.186-3.237 1.76 0 3.185 1.45 3.185 3.237S32.92 8.18 31.161 8.18" data-color="1"></path>
        </g>
        <defs fill="none">
            <clipPath id="0b87d659-8bc3-41e3-a641-7f85231bfd2f_comp-mbqzq7tc_r_comp-mbqzovvf">
                <path fill="#ffffff" d="M36 0v33H0V0z"></path>
            </clipPath>
        </defs>
    </g>
</svg>