<svg
  style="width: 34px;"
  viewBox="0 0 34 34"
  fill="none"
  xmlns="http://www.w3.org/2000/svg">
  <mask
    id="mask0_1310_20096"
    style="mask-type: luminance;"
    maskUnits="userSpaceOnUse"
    x="0"
    y="0"
    width="33"
    height="30">
    <path d="M32.155 0H0V29.0044H32.155V0Z" fill="white" />
  </mask>
  <g mask="url(#mask0_1310_20096)">
    <path
      d="M8.00677 2.17861C6.82202 0.126563 4.19809 -0.576518 2.14604 0.608229C0.0940013 1.79297 -0.60908 4.41692 0.575667 6.46895L6.14848 16.1214C7.33322 18.1734 9.95716 18.8764 12.0092 17.6917C14.0612 16.507 14.7643 13.8831 13.5796 11.831L8.00677 2.17861Z"
      fill="#FFB000"
    />
    <path
      d="M30.0086 0.575182C27.9563 -0.609644 25.333 0.0930167 24.1482 2.14522L12.357 22.5689C11.1722 24.621 11.8748 27.2444 13.9269 28.4293C15.9792 29.614 18.6026 28.9114 19.7873 26.8592L31.5785 6.43557C32.7633 4.38336 32.0607 1.76001 30.0086 0.575182ZM27.8328 7.19002C26.2614 7.19002 24.9876 5.9162 24.9876 4.34484C24.9876 2.77349 26.2614 1.49966 27.8328 1.49966C29.4042 1.49966 30.678 2.77349 30.678 4.34484C30.678 5.9162 29.4042 7.19002 27.8328 7.19002Z"
      fill="#E0A0EF"
    />
  </g>
</svg>
