<svg
  style="min-width: 0px; height: 32px;"
  viewBox="0 0 118 34"
  fill="none"
  xmlns="http://www.w3.org/2000/svg">
  <g clip-path="url(#clip0_1206_9522)">
    <mask id="mask0_1206_9522" style="mask-type: luminance" maskUnits="userSpaceOnUse" x="35" y="6" width="83" height="28">
      <path d="M117.475 6.09473H35.6104V33.9102H117.475V6.09473Z" fill="white" />
    </mask>
    <g mask="url(#mask0_1206_9522)">
      <path
        d="M104.607 33.9115C107.392 33.9115 109.297 32.7689 110.234 30.4232L117.474 12.3966H113.488L109.209 23.241L105.017 12.3966H100.972L107.274 28.1077L106.893 29.104C106.395 30.3349 105.399 30.7157 104.401 30.7157C103.727 30.7157 102.877 30.5102 101.792 29.983V33.2367C102.817 33.6769 103.844 33.9115 104.606 33.9115M92.707 11.5466V12.3966H90.157V15.562H92.707V28.6349H96.6051V15.562H100.122V12.3966H96.6051V11.7812C96.6051 10.2564 97.4261 9.43674 98.686 9.43674C99.1841 9.43674 99.7415 9.52504 100.18 9.7293V6.41761C99.7705 6.27133 98.8322 6.09473 97.8649 6.09473C94.8458 6.09473 92.7057 8.11759 92.7057 11.5466M83.5915 8.38117C83.5915 9.64102 84.5588 10.5793 85.878 10.5793C87.1971 10.5793 88.1644 9.64102 88.1644 8.38117C88.1644 7.12133 87.1971 6.18302 85.878 6.18302C84.5588 6.18302 83.5915 7.12133 83.5915 8.38117ZM83.9434 28.6349H87.8125V12.3966H83.9434V28.6349ZM71.8088 28.6349H75.707V22.6559C75.707 17.8788 77.7298 15.7966 80.1336 15.7966C80.9546 15.7966 81.6583 15.9429 82.2737 16.2064V12.4836C81.7466 12.278 81.0718 12.1607 80.3391 12.1607C78.4336 12.1607 76.5293 13.186 75.7083 14.6817V12.3953H71.8102V28.6336L71.8088 28.6349ZM67.2953 28.8405C68.1163 28.8405 68.7897 28.6942 69.4644 28.4596V25.1769C68.9663 25.3522 68.3219 25.4998 67.8224 25.4998C66.5915 25.4998 65.7705 24.6788 65.7705 23.1553V15.5633H69.2588V12.3979H65.7705V9.0269H61.8724V12.3979H59.528V15.5633H61.8724V23.5072C61.8724 26.9665 64.2168 28.8418 67.2953 28.8418M53.4317 8.38117C53.4317 9.64102 54.399 10.5793 55.7181 10.5793C57.0373 10.5793 58.0046 9.64102 58.0046 8.38117C58.0046 7.12133 57.0373 6.18302 55.7181 6.18302C54.399 6.18302 53.4317 7.12133 53.4317 8.38117ZM53.7836 28.6349H57.6527V12.3966H53.7836V28.6349ZM42.0878 28.6349H45.8107L52.2878 12.3966H48.1841L44.0224 23.4176L39.8304 12.3966H35.6094L42.0865 28.6349H42.0878Z"
        fill="#121212"
      />
    </g>
    <mask id="mask1_1206_9522" style="mask-type: luminance" maskUnits="userSpaceOnUse" x="0" y="0" width="33" height="30">
      <path d="M32.155 0H0V29.0044H32.155V0Z" fill="white" />
    </mask>
    <g mask="url(#mask1_1206_9522)">
      <path
        d="M8.00662 2.17861C6.82187 0.126563 4.19793 -0.576518 2.14589 0.608229C0.0938487 1.79297 -0.609233 4.41692 0.575514 6.46895L6.14832 16.1214C7.33306 18.1734 9.95701 18.8764 12.009 17.6917C14.0611 16.507 14.7641 13.8831 13.5794 11.831L8.00662 2.17861Z"
        fill="#FFB000"
      />
      <path
        d="M30.0085 0.575182C27.9562 -0.609644 25.333 0.0930167 24.1481 2.14522L12.3569 22.5689C11.1721 24.621 11.8748 27.2444 13.9269 28.4293C15.9791 29.614 18.6025 28.9114 19.7873 26.8592L31.5784 6.43557C32.7633 4.38336 32.0606 1.76001 30.0085 0.575182ZM27.8328 7.19002C26.2614 7.19002 24.9876 5.9162 24.9876 4.34484C24.9876 2.77349 26.2614 1.49966 27.8328 1.49966C29.4041 1.49966 30.6779 2.77349 30.6779 4.34484C30.6779 5.9162 29.4041 7.19002 27.8328 7.19002Z"
        fill="#E0A0EF"
      />
    </g>
  </g>
  <defs>
    <clipPath id="clip0_1206_9522">
      <rect width="117.55" height="34" fill="white" />
    </clipPath>
  </defs>
</svg>
