<svg preserveAspectRatio="xMidYMid meet" data-bbox="0.52 0.52 34.96 34.96" xmlns="http://www.w3.org/2000/svg" viewBox="0.52 0.52 34.96 34.96" height="36" width="36" data-type="shape" role="img" aria-label="Vector">
    <g>
        <path d="M18 .52C8.362.52.52 8.362.52 18c0 3.01.777 5.969 2.252 8.58L.548 34.515a.76.76 0 0 0 .914.943l8.281-2.051A17.5 17.5 0 0 0 18 35.48c9.638 0 17.48-7.842 17.48-17.48S27.638.52 18 .52m8.793 23.648c-.374 1.035-2.167 1.98-3.03 2.107-.773.113-1.752.162-2.826-.176a26 26 0 0 1-2.559-.934c-4.501-1.92-7.44-6.395-7.666-6.69-.224-.296-1.832-2.403-1.832-4.584s1.159-3.252 1.57-3.696a1.66 1.66 0 0 1 1.198-.555c.3 0 .598.004.86.016.276.014.646-.104 1.01.76.374.888 1.272 3.069 1.383 3.291.112.222.187.482.038.777-.15.296-.224.48-.449.74-.225.259-.47.577-.673.776-.225.222-.458.461-.197.905.262.444 1.162 1.894 2.497 3.07 1.713 1.509 3.16 1.977 3.608 2.199.449.222.71.185.972-.111s1.122-1.294 1.42-1.737c.3-.444.599-.37 1.01-.222.413.147 2.619 1.219 3.067 1.44.449.223.748.334.86.518.113.184.113 1.072-.26 2.106"></path>
    </g>
</svg>