<svg width="38" height="38" viewBox="0 0 38 38" fill="none" xmlns="http://www.w3.org/2000/svg">
<path d="M18.9996 1.52002C9.36132 1.52002 1.51964 9.3617 1.51964 19C1.51964 22.0096 2.29712 24.9691 3.77152 27.5804L1.54776 35.5148C1.4748 35.7755 1.54548 36.0552 1.73396 36.249C1.87912 36.3987 2.07672 36.48 2.27964 36.48C2.34044 36.48 2.402 36.4724 2.46204 36.458L10.743 34.4067C13.2715 35.7641 16.1192 36.48 18.9996 36.48C28.638 36.48 36.4796 28.6383 36.4796 19C36.4796 9.3617 28.638 1.52002 18.9996 1.52002ZM27.7928 25.1682C27.4189 26.2033 25.6253 27.148 24.7635 27.2749C23.9898 27.3881 23.0109 27.4368 21.9363 27.0993C21.285 26.8941 20.449 26.6221 19.3781 26.1653C14.8766 24.2455 11.937 19.7699 11.712 19.4743C11.4878 19.1786 9.87964 17.0719 9.87964 14.8915C9.87964 12.711 11.0386 11.6387 11.4506 11.1948C11.8625 10.751 12.3481 10.64 12.6476 10.64C12.947 10.64 13.2457 10.6438 13.5079 10.656C13.7838 10.6697 14.1539 10.5519 14.5179 11.4167C14.8918 12.3044 15.7894 14.4849 15.9004 14.7075C16.0128 14.9295 16.0873 15.1886 15.9384 15.4843C15.7894 15.7799 15.7149 15.9646 15.49 16.2237C15.265 16.4829 15.0188 16.8013 14.8166 17.0005C14.5916 17.2216 14.3583 17.461 14.6198 17.9049C14.8812 18.3487 15.7818 19.7995 17.1164 20.9745C18.8302 22.4839 20.2764 22.952 20.7248 23.1739C21.1732 23.3959 21.4354 23.3586 21.6969 23.063C21.9583 22.7666 22.8186 21.7687 23.1173 21.3256C23.416 20.8825 23.7154 20.9555 24.1274 21.1037C24.5393 21.2511 26.7456 22.3227 27.194 22.5447C27.6424 22.7666 27.9418 22.8775 28.0543 23.0622C28.1668 23.2461 28.1668 24.1338 27.7928 25.1682Z" fill="white"/>
</svg>
